{
.appVersion = "3249";
.formatVersion = 3;
axes = (
{
name = Weight;
tag = wght;
}
);
classes = (
{
automatic = 1;
code = "A Aacute Abreve Acircumflex Adieresis Adotbelow Agrave Amacron Aogonek Aring Aringacute Atilde AE AEacute B C Cacute Ccaron Ccedilla Ccircumflex Cdotaccent D Dcaron Dcroat Eth E Eacute Ebreve Ecaron Ecircumflex Edieresis Edotaccent Edotbelow Egrave Emacron Eogonek Etilde Schwa F G Gbreve Gcaron Gcircumflex Gcommaaccent Gdotaccent H Hbar Hcircumflex I IJ Iacute Ibreve Icircumflex Idieresis Idotaccent Idotbelow Igrave Imacron Iogonek Itilde J Jcircumflex K Kcommaaccent L Lacute Lcaron Lcommaaccent Ldot Lslash M N Nacute Ncaron Ncommaaccent Nhookleft Ntilde Eng O Oacute Obreve Ocircumflex Odieresis Odotbelow Ograve Ohungarumlaut Omacron Oogonek Oslash Oslashacute Otilde OE P Thorn Q R Racute Rcaron Rcommaaccent S Sacute Scaron Scedilla Scircumflex Scommaaccent Germandbls T Tbar Tcaron Tcedilla Tcommaaccent U Uacute Ubreve Ucircumflex Udieresis Udotbelow Ugrave Uhungarumlaut Umacron Uogonek Uring Utilde V W Wacute Wcircumflex Wdieresis Wgrave X Y Yacute Ycircumflex Ydieresis Ygrave Ymacron Ytilde Z Zacute Zcaron Zdotaccent Delta Omega";
name = Uppercase;
}
);
customParameters = (
{
name = fsType;
value = (
);
},
{
name = "Use Typo Metrics";
value = 1;
}
);
date = "2024-03-20 13:28:04 +0000";
familyName = "Radio Canada Display";
featurePrefixes = (
{
automatic = 1;
code = "languagesystem DFLT dflt;

languagesystem latn dflt;
languagesystem latn AZE;
languagesystem latn CRT;
languagesystem latn KAZ;
languagesystem latn TAT;
languagesystem latn TRK;
languagesystem latn ROM;
languagesystem latn MOL;
languagesystem latn CAT;
";
name = Languagesystems;
}
);
features = (
{
automatic = 1;
code = "feature locl;
feature sups;
feature frac;
feature ordn;
feature case;
feature pnum;
feature tnum;
";
tag = aalt;
},
{
automatic = 1;
code = "script latn;
language AZE;
lookup locl_latn_0 {
	sub i by idotaccent;
} locl_latn_0;
language CRT;
lookup locl_latn_0;

glyphs = (
{
color = 6;
glyphname = A;
kernLeft = A;
kernRight = A;
lastChange = "2024-03-21 14:21:14 +0000";
layers = (
{
anchors = (
{
name = bottom;
pos = (274,0);
},
{
name = ogonek;
pos = (572,0);
},
{
name = top;
pos = (406,690);
}
);
background = {
anchors = (
{
name = bottom;
pos = (258,0);
},
{
name = top;
pos = (404.664,690);
}
);
shapes = (
{
closed = 1;
nodes = (
(57,0,l),
(429,690,l),
(327,690,l),
(-58,0,l)
);
},
{
closed = 1;
nodes = (
(482,191,l),
(502,287,l),
(134,287,l),
(114,191,l)
);
},
{
closed = 1;
nodes = (
(572,0,l),
(481,690,l),
(383,690,l),
(467,0,l)
);
}
);
};
layerId = m001;
shapes = (
{
closed = 1;
nodes = (
(57,0,l),
(160,191,l),
(444,191,l),
(467,0,l),
(572,0,l),
(481,690,l),
(327,690,l),
(-58,0,l)
);
},
{
closed = 1;
nodes = (
(391,620,l),
(432,287,l),
(212,287,l)
);
}
);
width = 660;
},
{
anchors = (
{
name = bottom;
pos = (282,0);
},
{
name = ogonek;
pos = (602,0);
},
{
name = top;
pos = (411,690);
}
);
background = {
anchors = (
{
name = bottom;
pos = (264,0);
},
{
name = top;
pos = (410.664,690);
}
);
shapes = (
{
closed = 1;
nodes = (
(103,0,l),
(450,690,l),
(293,690,l),
(-73,0,l)
);
},
{
closed = 1;
nodes = (
(482,158,l),
(511,295,l),
(143,295,l),
(114,158,l)
);
},
{
closed = 1;
nodes = (
(602,0,l),
(530,690,l),
(380,690,l),
(443,0,l)
);
}
);
};
layerId = "935096DB-18C6-4F5A-A149-9E36F9702B37";
shapes = (
{
closed = 1;
nodes = (
(103,0,l),
(182,158,l),
(429,158,l),
(443,0,l),
(602,0,l),
(530,690,l),
(293,690,l),
(-73,0,l)
);
},
{
closed = 1;
nodes = (
(391,572,l),
(416,295,l),
(251,295,l)
);
}
);
width = 675;
}
);
unicode = 65;
},
{
color = 10;
glyphname = Aacute;
kernLeft = A;
kernRight = A;
lastChange = "2024-03-21 14:21:18 +0000";
layers = (
{
background = {
shapes = (
{
closed = 1;
nodes = (
(57,0,l),
(429,690,l),
(327,690,l),
(-58,0,l)
);
},
{
closed = 1;
nodes = (
(482,191,l),
(502,287,l),
(134,287,l),
(114,191,l)
);
},
{
closed = 1;
nodes = (
(572,0,l),
(481,690,l),
(383,690,l),
(467,0,l)
);
},
{
closed = 1;
nodes = (
(450,735,l),
(608,845,l),
(473,845,l),
(349,735,l)
);
}
);
};
layerId = m001;
shapes = (
{
ref = A;
},
{
pos = (83,0);
ref = acutecomb.case;
}
);
width = 660;
},
{
background = {
shapes = (
{
closed = 1;
nodes = (
(103,0,l),
(450,690,l),
(293,690,l),
(-73,0,l)
);
},
{
closed = 1;
nodes = (
(482,158,l),
(511,295,l),
(143,295,l),
(114,158,l)
);
},
{
closed = 1;
nodes = (
(602,0,l),
(530,690,l),
(380,690,l),
(443,0,l)
);
},
{
closed = 1;
nodes = (
(472,735,l),
(648,850,l),
(475,850,l),
(347,735,l)
);
}
);
};
layerId = "935096DB-18C6-4F5A-A149-9E36F9702B37";
shapes = (
{
ref = A;
},
{
pos = (89,0);
ref = acutecomb.case;
}
);
width = 675;
}
);
unicode = 193;
},
{
color = 10;
glyphname = Abreve;
kernLeft = A;
kernRight = A;
lastChange = "2024-03-21 14:21:14 +0000";
layers = (
{
background = {
shapes = (
{
closed = 1;
nodes = (
(57,0,l),
(429,690,l),
(327,690,l),
(-58,0,l)
);
},
{
closed = 1;
nodes = (
(482,191,l),
(502,287,l),
(134,287,l),
(114,191,l)
);
},
{
closed = 1;
nodes = (
(572,0,l),
(481,690,l),
(383,690,l),
(467,0,l)
);
},
{
closed = 1;
nodes = (
(523,735,o),
(570,777,o),
(588,845,c),
(518,845,l),
(510,820,o),
(483,805,o),
(426,805,c),
(439,805,o),
(358,792,o),
(358,845,c),
(288,845,l),
(287,838,o),
(287,833,o),
(287,828,cs),
(287,773,o),
(335,735,o),
(423,735,c)
);
}
);
};
layerId = m001;
shapes = (
{
ref = A;
},
{
pos = (82,0);
ref = brevecomb.case;
}
);
width = 660;
},
{
background = {
shapes = (
{
closed = 1;
nodes = (
(103,0,l),
(450,690,l),
(293,690,l),
(-73,0,l)
);
},
{
closed = 1;
nodes = (
(482,158,l),
(511,295,l),
(143,295,l),
(114,158,l)
);
},
{
closed = 1;
nodes = (
(602,0,l),
(530,690,l),
(380,690,l),
(443,0,l)
);
},
{
closed = 1;
nodes = (
(535,730,o),
(588,779,o),
(604,850,c),
(507,850,l),
(499,827,o),
(477,814,o),
(436,814,c),
(395,814,o),
(383,827,o),
(383,850,c),
(286,850,l),
(285,843,o),
(284,837,o),
(284,831,cs),
(284,770,o),
(337,730,o),
(431,730,c)
);
}
);
};
layerId = "935096DB-18C6-4F5A-A149-9E36F9702B37";
shapes = (
{
ref = A;
},
{
pos = (87,0);
ref = brevecomb.case;
}
);
width = 675;
}
);
unicode = 258;
},
{
color = 10;
glyphname = Acircumflex;
kernLeft = A;
kernRight = A;
lastChange = "2024-03-21 14:21:14 +0000";
layers = (
{
background = {
shapes = (
{
closed = 1;
nodes = (
(57,0,l),
(429,690,l),
(327,690,l),
(-58,0,l)
);
},
{
closed = 1;
nodes = (
(482,191,l),
(502,287,l),
(134,287,l),
(114,191,l)
);
},
{
closed = 1;
nodes = (
(572,0,l),
(481,690,l),
(383,690,l),
(467,0,l)
);
},
{
closed = 1;
nodes = (
(338,735,l),
(459,814,l),
(474,845,l),
(369,845,l),
(231,735,l)
);
},
{
closed = 1;
nodes = (
(597,735,l),
(507,845,l),
(402,845,l),
(416,814,l),
(504,735,l)
);
}
);
};
layerId = m001;
shapes = (
{
ref = A;
},
{
pos = (82,0);
ref = circumflexcomb.case;
}
);
width = 660;
},
{
background = {
shapes = (
{
closed = 1;
nodes = (
(103,0,l),
(450,690,l),
(293,690,l),
(-73,0,l)
);
},
{
closed = 1;
nodes = (
(482,158,l),
(511,295,l),
(143,295,l),
(114,158,l)
);
},
{
closed = 1;
nodes = (
(602,0,l),
(530,690,l),
(380,690,l),
(443,0,l)
);
},
{
closed = 1;
nodes = (
(353,735,l),
(468,812,l),
(490,850,l),
(361,850,l),
(226,735,l)
);
},
{
closed = 1;
nodes = (
(614,735,l),
(529,850,l),
(400,850,l),
(416,812,l),
(497,735,l)
);
}
);
};
layerId = "935096DB-18C6-4F5A-A149-9E36F9702B37";
shapes = (
{
ref = A;
},
{
pos = (87,0);
ref = circumflexcomb.case;
}
);
width = 675;
}
);
unicode = 194;
},
{
color = 10;
glyphname = Adieresis;
kernLeft = A;
kernRight = A;
lastChange = "2024-03-21 14:21:14 +0000";
layers = (
{
background = {
shapes = (
{
closed = 1;
nodes = (
(57,0,l),
(429,690,l),
(327,690,l),
(-58,0,l)
);
},
{
closed = 1;
nodes = (
(482,191,l),
(502,287,l),
(134,287,l),
(114,191,l)
);
},
{
closed = 1;
nodes = (
(572,0,l),
(481,690,l),
(383,690,l),
(467,0,l)
);
},
{
closed = 1;
nodes = (
(356,742,o),
(382,767,o),
(382,802,c),
(382,834,o),
(361,855,o),
(330,855,c),
(295,855,o),
(270,830,o),
(270,793,c),
(270,763,o),
(291,742,o),
(321,742,c)
);
},
{
closed = 1;
nodes = (
(559,742,o),
(585,767,o),
(585,802,c),
(585,834,o),
(564,855,o),
(533,855,c),
(498,855,o),
(473,830,o),
(473,793,c),
(473,763,o),
(494,742,o),
(524,742,c)
);
}
);
};
layerId = m001;
shapes = (
{
ref = A;
},
{
pos = (83,0);
ref = dieresiscomb.case;
}
);
width = 660;
},
{
background = {
shapes = (
{
closed = 1;
nodes = (
(103,0,l),
(450,690,l),
(293,690,l),
(-73,0,l)
);
},
{
closed = 1;
nodes = (
(482,158,l),
(511,295,l),
(143,295,l),
(114,158,l)
);
},
{
closed = 1;
nodes = (
(602,0,l),
(530,690,l),
(380,690,l),
(443,0,l)
);
},
{
closed = 1;
nodes = (
(363,742,o),
(395,770,o),
(395,813,c),
(395,850,o),
(371,873,o),
(330,873,c),
(288,873,o),
(256,845,o),
(256,802,c),
(256,765,o),
(279,742,o),
(321,742,c)
);
},
{
closed = 1;
nodes = (
(583,742,o),
(615,770,o),
(615,813,c),
(615,850,o),
(591,873,o),
(550,873,c),
(508,873,o),
(476,845,o),
(476,802,c),
(476,765,o),
(499,742,o),
(541,742,c)
);
}
);
};
layerId = "935096DB-18C6-4F5A-A149-9E36F9702B37";
shapes = (
{
ref = A;
},
{
pos = (87,0);
ref = dieresiscomb.case;
}
);
width = 675;
}
);
unicode = 196;
},
{
color = 10;
glyphname = Adotbelow;
kernLeft = A;
kernRight = A;
lastChange = "2024-03-21 14:00:11 +0000";
layers = (
{
background = {
shapes = (
{
closed = 1;
nodes = (
(57,0,l),
(429,690,l),
(327,690,l),
(-58,0,l)
);
},
{
closed = 1;
nodes = (
(262,-195,o),
(290,-168,o),
(290,-130,c),
(290,-95,o),
(267,-72,o),
(233,-72,c),
(195,-72,o),
(168,-99,o),
(168,-140,c),
(168,-172,o),
(191,-195,o),
(224,-195,c)
);
},
{
closed = 1;
nodes = (
(482,191,l),
(502,287,l),
(134,287,l),
(114,191,l)
);
},
{
closed = 1;
nodes = (
(572,0,l),
(481,690,l),
(383,690,l),
(467,0,l)
);
}
);
};
layerId = m001;
shapes = (
{
ref = A;
},
{
pos = (98,0);
ref = dotbelow;
}
);
width = 660;
},
{
background = {
shapes = (
{
closed = 1;
nodes = (
(103,0,l),
(450,690,l),
(293,690,l),
(-73,0,l)
);
},
{
closed = 1;
nodes = (
(278,-198,o),
(314,-166,o),
(314,-117,c),
(314,-75,o),
(287,-48,o),
(243,-48,c),
(198,-48,o),
(162,-80,o),
(162,-130,c),
(162,-171,o),
(189,-198,o),
(233,-198,c)
);
},
{
closed = 1;
nodes = (
(482,158,l),
(511,295,l),
(143,295,l),
(114,158,l)
);
},
{
closed = 1;
nodes = (
(602,0,l),
(530,690,l),
(380,690,l),
(443,0,l)
);
}
);
};
layerId = "935096DB-18C6-4F5A-A149-9E36F9702B37";
shapes = (
{
ref = A;
},
{
pos = (105,0);
ref = dotbelow;
}
);
width = 675;
}
);
unicode = 7840;
},
{
color = 10;
glyphname = Agrave;
kernLeft = A;
kernRight = A;
lastChange = "2024-03-21 14:21:14 +0000";
layers = (
{
background = {
shapes = (
{
closed = 1;
nodes = (
(57,0,l),
(429,690,l),
(327,690,l),
(-58,0,l)
);
},
{
closed = 1;
nodes = (
(482,191,l),
(502,287,l),
(134,287,l),
(114,191,l)
);
},
{
closed = 1;
nodes = (
(572,0,l),
(481,690,l),
(383,690,l),
(467,0,l)
);
},
{
closed = 1;
nodes = (
(473,735,l),
(397,845,l),
(272,845,l),
(385,735,l)
);
}
);
};
layerId = m001;
shapes = (
{
ref = A;
},
{
pos = (82,0);
ref = gravecomb.case;
}
);
width = 660;
},
{
background = {
shapes = (
{
closed = 1;
nodes = (
(103,0,l),
(450,690,l),
(293,690,l),
(-73,0,l)
);
},
{
closed = 1;
nodes = (
(482,158,l),
(511,295,l),
(143,295,l),
(114,158,l)
);
},
{
closed = 1;
nodes = (
(602,0,l),
(530,690,l),
(380,690,l),
(443,0,l)
);
},
{
closed = 1;
nodes = (
(486,735,l),
(408,850,l),
(247,850,l),
(376,735,l)
);
}
);
};
layerId = "935096DB-18C6-4F5A-A149-9E36F9702B37";
shapes = (
{
ref = A;
},
{
pos = (86,0);
ref = gravecomb.case;
}
);
width = 675;
}
);
unicode = 192;
},
{
color = 10;
glyphname = Amacron;
kernLeft = A;
kernRight = A;
lastChange = "2024-03-21 14:21:14 +0000";
layers = (
{
background = {
shapes = (
{
closed = 1;
nodes = (
(57,0,l),
(429,690,l),
(327,690,l),
(-58,0,l)
);
},
{
closed = 1;
nodes = (
(482,191,l),
(502,287,l),
(134,287,l),
(114,191,l)
);
},
{
closed = 1;
nodes = (
(572,0,l),
(481,690,l),
(383,690,l),
(467,0,l)
);
},
{
closed = 1;
nodes = (
(576,753,l),
(594,837,l),
(278,837,l),
(260,753,l)
);
}
);
};
layerId = m001;
shapes = (
{
ref = A;
},
{
pos = (83,0);
ref = macroncomb.case;
}
);
width = 660;
},
{
background = {
shapes = (
{
closed = 1;
nodes = (
(103,0,l),
(450,690,l),
(293,690,l),
(-73,0,l)
);
},
{
closed = 1;
nodes = (
(482,158,l),
(511,295,l),
(143,295,l),
(114,158,l)
);
},
{
closed = 1;
nodes = (
(602,0,l),
(530,690,l),
(380,690,l),
(443,0,l)
);
},
{
closed = 1;
nodes = (
(585,735,l),
(610,850,l),
(280,850,l),
(255,735,l)
);
}
);
};
layerId = "935096DB-18C6-4F5A-A149-9E36F9702B37";
shapes = (
{
ref = A;
},
{
pos = (88,0);
ref = macroncomb.case;
}
);
width = 675;
}
);
unicode = 256;
},
{
color = 10;
glyphname = Aogonek;
kernLeft = A;
kernRight = A;
lastChange = "2024-03-21 14:03:05 +0000";
layers = (
{
background = {
shapes = (
{
closed = 1;
nodes = (
(57,0,l),
(429,690,l),
(327,690,l),
(-58,0,l)
);
},
{
closed = 1;
nodes = (
(478,-185,o),
(515,-176,o),
(537,-165,c),
(545,-84,l),
(520,-96,o),
(489,-106,o),
(463,-106,c),
(452,-106,o),
(446,-101,o),
(446,-93,cs),
(446,-72,o),
(483,-38,o),
(572,0,c),
(472,0,l),
(387,-35,o),
(358,-74,o),
(358,-118,c),
(358,-155,o),
(384,-185,o),
(446,-185,c)
);
},
{
closed = 1;
nodes = (
(482,191,l),
(502,287,l),
(134,287,l),
(114,191,l)
);
},
{
closed = 1;
nodes = (
(572,0,l),
(481,690,l),
(383,690,l),
(467,0,l)
);
}
);
};
layerId = m001;
shapes = (
{
ref = A;
},
{
pos = (342,0);
ref = ogonekcomb;
}
);
width = 660;
},
{
background = {
shapes = (
{
closed = 1;
nodes = (
(103,0,l),
(450,690,l),
(293,690,l),
(-73,0,l)
);
},
{
closed = 1;
nodes = (
(500,-190,o),
(535,-183,o),
(566,-170,c),
(577,-75,l),
(555,-87,o),
(527,-96,o),
(508,-96,c),
(495,-96,o),
(488,-90,o),
(488,-82,cs),
(488,-65,o),
(513,-36,o),
(602,0,c),
(497,0,l),
(404,-36,o),
(373,-82,o),
(373,-121,c),
(373,-158,o),
(403,-190,o),
(472,-190,c)
);
},
{
closed = 1;
nodes = (
(482,158,l),
(511,295,l),
(143,295,l),
(114,158,l)
);
},
{
closed = 1;
nodes = (
(602,0,l),
(530,690,l),
(380,690,l),
(443,0,l)
);
}
);
};
layerId = "935096DB-18C6-4F5A-A149-9E36F9702B37";
shapes = (
{
ref = A;
},
{
pos = (336,0);
ref = ogonekcomb;
}
);
width = 675;
}
);
unicode = 260;
},
{
color = 10;
glyphname = Aring;
kernLeft = A;
kernRight = A;
lastChange = "2024-03-21 14:21:14 +0000";
layers = (
{
background = {
shapes = (
{
closed = 1;
nodes = (
(57,0,l),
(429,690,l),
(327,690,l),
(-58,0,l)
);
},
{
closed = 1;
nodes = (
(482,191,l),
(502,287,l),
(134,287,l),
(114,191,l)
);
},
{
closed = 1;
nodes = (
(572,0,l),
(481,690,l),
(383,690,l),
(467,0,l)
);
},
{
closed = 1;
nodes = (
(486,735,o),
(530,779,o),
(530,833,c),
(530,878,o),
(495,908,o),
(444,908,c),
(379,908,o),
(335,864,o),
(335,810,c),
(335,765,o),
(370,735,o),
(421,735,c)
);
},
{
closed = 1;
nodes = (
(408,790,o),
(398,800,o),
(398,815,c),
(398,836,o),
(414,853,o),
(439,853,c),
(457,853,o),
(467,843,o),
(467,828,c),
(467,807,o),
(451,790,o),
(426,790,c)
);
}
);
};
layerId = m001;
shapes = (
{
ref = A;
},
{
pos = (83,0);
ref = ringcomb.case;
}
);
width = 660;
},
{
background = {
shapes = (
{
closed = 1;
nodes = (
(103,0,l),
(450,690,l),
(293,690,l),
(-73,0,l)
);
},
{
closed = 1;
nodes = (
(482,158,l),
(511,295,l),
(143,295,l),
(114,158,l)
);
},
{
closed = 1;
nodes = (
(602,0,l),
(530,690,l),
(380,690,l),
(443,0,l)
);
},
{
closed = 1;
nodes = (
(500,735,o),
(543,784,o),
(543,837,c),
(543,883,o),
(509,917,o),
(449,917,c),
(379,917,o),
(336,868,o),
(336,815,c),
(336,769,o),
(370,735,o),
(430,735,c)
);
},
{
closed = 1;
nodes = (
(419,800,o),
(409,808,o),
(409,823,c),
(409,839,o),
(422,852,o),
(442,852,c),
(460,852,o),
(470,844,o),
(470,829,c),
(470,813,o),
(457,800,o),
(437,800,c)
);
}
);
};
layerId = "935096DB-18C6-4F5A-A149-9E36F9702B37";
shapes = (
{
ref = A;
},
{
pos = (88,0);
ref = ringcomb.case;
}
);
width = 675;
}
);
unicode = 197;
},
{
color = 10;
glyphname = Aringacute;
kernLeft = A;
kernRight = A;
lastChange = "2024-03-21 14:21:18 +0000";
layers = (
{
background = {
shapes = (
{
closed = 1;
nodes = (
(57,0,l),
(429,690,l),
(327,690,l),
(-58,0,l)
);
},
{
closed = 1;
nodes = (
(482,191,l),
(502,287,l),
(134,287,l),
(114,191,l)
);
},
{
closed = 1;
nodes = (
(572,0,l),
(481,690,l),
(383,690,l),
(467,0,l)
);
},
{
closed = 1;
nodes = (
(486,735,o),
(530,779,o),
(530,833,c),
(530,878,o),
(495,908,o),
(444,908,c),
(379,908,o),
(335,864,o),
(335,810,c),
(335,765,o),
(370,735,o),
(421,735,c)
);
},
{
closed = 1;
nodes = (
(408,790,o),
(398,800,o),
(398,815,c),
(398,836,o),
(414,853,o),
(439,853,c),
(457,853,o),
(467,843,o),
(467,828,c),
(467,807,o),
(451,790,o),
(426,790,c)
);
},
{
closed = 1;
nodes = (
(498,925,l),
(638,1015,l),
(503,1015,l),
(402,925,l)
);
}
);
};
layerId = m001;
shapes = (
{
ref = A;
},
{
pos = (83,0);
ref = ringcomb.case;
},
{
pos = (129,188);
ref = acutecomb.case;
}
);
width = 660;
},
{
background = {
shapes = (
{
closed = 1;
nodes = (
(103,0,l),
(450,690,l),
(293,690,l),
(-73,0,l)
);
},
{
closed = 1;
nodes = (
(482,158,l),
(511,295,l),
(143,295,l),
(114,158,l)
);
},
{
closed = 1;
nodes = (
(602,0,l),
(530,690,l),
(380,690,l),
(443,0,l)
);
},
{
closed = 1;
nodes = (
(500,735,o),
(543,784,o),
(543,837,c),
(543,883,o),
(509,917,o),
(449,917,c),
(379,917,o),
(336,868,o),
(336,815,c),
(336,769,o),
(370,735,o),
(430,735,c)
);
},
{
closed = 1;
nodes = (
(419,800,o),
(409,808,o),
(409,823,c),
(409,839,o),
(422,852,o),
(442,852,c),
(460,852,o),
(470,844,o),
(470,829,c),
(470,813,o),
(457,800,o),
(437,800,c)
);
},
{
closed = 1;
nodes = (
(525,934,l),
(662,1017,l),
(500,1017,l),
(410,934,l)
);
}
);
};
layerId = "935096DB-18C6-4F5A-A149-9E36F9702B37";
shapes = (
{
ref = A;
},
{
pos = (88,0);
ref = ringcomb.case;
},
{
pos = (137,200);
ref = acutecomb.case;
}
);
width = 675;
}
);
unicode = 506;
},
{
color = 10;
glyphname = Atilde;
kernLeft = A;
kernRight = A;
lastChange = "2024-03-21 14:21:14 +0000";
layers = (
{
background = {
shapes = (
{
closed = 1;
nodes = (
(57,0,l),
(429,690,l),
(327,690,l),
(-58,0,l)
);
},
{
closed = 1;
nodes = (
(482,191,l),
(502,287,l),
(134,287,l),
(114,191,l)
);
},
{
closed = 1;
nodes = (
(572,0,l),
(481,690,l),
(383,690,l),
(467,0,l)
);
},
{
closed = 1;
nodes = (
(324,735,l),
(326,757,o),
(339,773,o),
(362,773,c),
(398,773,o),
(425,735,o),
(482,735,c),
(545,735,o),
(584,777,o),
(596,845,c),
(528,845,l),
(526,823,o),
(513,807,o),
(490,807,c),
(455,807,o),
(427,845,o),
(370,845,c),
(307,845,o),
(268,803,o),
(256,735,c)
);
}
);
};
layerId = m001;
shapes = (
{
ref = A;
},
{
pos = (83,0);
ref = tildecomb.case;
}
);
width = 660;
},
{
background = {
shapes = (
{
closed = 1;
nodes = (
(103,0,l),
(450,690,l),
(293,690,l),
(-73,0,l)
);
},
{
closed = 1;
nodes = (
(482,158,l),
(511,295,l),
(143,295,l),
(114,158,l)
);
},
{
closed = 1;
nodes = (
(602,0,l),
(530,690,l),
(380,690,l),
(443,0,l)
);
},
{
closed = 1;
nodes = (
(337,735,l),
(338,761,o),
(354,772,o),
(371,772,c),
(404,772,o),
(426,735,o),
(491,735,c),
(554,735,o),
(601,781,o),
(613,854,c),
(529,854,l),
(528,828,o),
(512,817,o),
(495,817,c),
(464,817,o),
(440,854,o),
(375,854,c),
(311,854,o),
(264,808,o),
(253,735,c)
);
}
);
};
layerId = "935096DB-18C6-4F5A-A149-9E36F9702B37";
shapes = (
{
ref = A;
},
{
pos = (87,0);
ref = tildecomb.case;
}
);
width = 675;
}
);
unicode = 195;
},
{
color = 6;
glyphname = AE;
kernLeft = B;
kernRight = E;
lastChange = "2024-03-21 14:00:11 +0000";
layers = (
{
anchors = (
{
name = top;
pos = (589,690);
}
);
background = {
anchors = (
{
name = top;
pos = (589,690);
}
);
shapes = (
{
closed = 1;
nodes = (
(65,0,l),
(574,690,l),
(461,690,l),
(-58,0,l)
);
},
{
closed = 1;
nodes = (
(482,193,l),
(502,287,l),
(194,287,l),
(174,193,l)
);
},
{
closed = 1;
nodes = (
(860,0,l),
(880,96,l),
(460,96,l),
(440,0,l)
);
},
{
closed = 1;
nodes = (
(495,0,l),
(642,690,l),
(537,690,l),
(390,0,l)
);
},
{
closed = 1;
nodes = (
(860,306,l),
(880,402,l),
(525,402,l),
(505,306,l)
);
},
{
closed = 1;
nodes = (
(981,594,l),
(1002,690,l),
(587,690,l),
(566,594,l)
);
}
);
};
layerId = m001;
shapes = (
{
closed = 1;
nodes = (
(65,0,l),
(574,690,l),
(461,690,l),
(-58,0,l)
);
},
{
closed = 1;
nodes = (
(482,193,l),
(502,287,l),
(194,287,l),
(174,193,l)
);
},
{
closed = 1;
nodes = (
(860,0,l),
(880,96,l),
(460,96,l),
(440,0,l)
);
},
{
closed = 1;
nodes = (
(495,0,l),
(642,690,l),
(537,690,l),
(390,0,l)
);
},
{
closed = 1;
nodes = (
(860,306,l),
(880,402,l),
(525,402,l),
(505,306,l)
);
},
{
closed = 1;
nodes = (
(981,594,l),
(1002,690,l),
(587,690,l),
(566,594,l)
);
}
);
width = 979;
},
{
anchors = (
{
name = top;
pos = (610,690);
}
);
background = {
anchors = (
{
name = top;
pos = (610,690);
}
);
shapes = (
{
closed = 1;
nodes = (
(118,0,l),
(593,690,l),
(426,690,l),
(-73,0,l)
);
},
{
closed = 1;
nodes = (
(464,162,l),
(493,295,l),
(203,295,l),
(174,162,l)
);
},
{
closed = 1;
nodes = (
(883,0,l),
(914,145,l),
(487,145,l),
(456,0,l)
);
},
{
closed = 1;
nodes = (
(543,0,l),
(690,690,l),
(535,690,l),
(388,0,l)
);
},
{
closed = 1;
nodes = (
(896,282,l),
(925,419,l),
(545,419,l),
(516,282,l)
);
},
{
closed = 1;
nodes = (
(995,545,l),
(1026,690,l),
(603,690,l),
(572,545,l)
);
}
);
};
layerId = "935096DB-18C6-4F5A-A149-9E36F9702B37";
shapes = (
{
closed = 1;
nodes = (
(118,0,l),
(593,690,l),
(426,690,l),
(-73,0,l)
);
},
{
closed = 1;
nodes = (
(464,162,l),
(493,295,l),
(203,295,l),
(174,162,l)
);
},
{
closed = 1;
nodes = (
(883,0,l),
(914,145,l),
(487,145,l),
(456,0,l)
);
},
{
closed = 1;
nodes = (
(543,0,l),
(690,690,l),
(535,690,l),
(388,0,l)
);
},
{
closed = 1;
nodes = (
(896,282,l),
(925,419,l),
(545,419,l),
(516,282,l)
);
},
{
closed = 1;
nodes = (
(995,545,l),
(1026,690,l),
(603,690,l),
(572,545,l)
);
}
);
width = 991;
}
);
unicode = 198;
},
{
color = 10;
glyphname = AEacute;
kernLeft = B;
kernRight = E;
lastChange = "2024-03-21 14:21:18 +0000";
layers = (
{
background = {
shapes = (
{
closed = 1;
nodes = (
(65,0,l),
(574,690,l),
(461,690,l),
(-58,0,l)
);
},
{
closed = 1;
nodes = (
(482,193,l),
(502,287,l),
(194,287,l),
(174,193,l)
);
},
{
closed = 1;
nodes = (
(860,0,l),
(880,96,l),
(460,96,l),
(440,0,l)
);
},
{
closed = 1;
nodes = (
(495,0,l),
(642,690,l),
(537,690,l),
(390,0,l)
);
},
{
closed = 1;
nodes = (
(860,306,l),
(880,402,l),
(525,402,l),
(505,306,l)
);
},
{
closed = 1;
nodes = (
(634,735,l),
(792,845,l),
(657,845,l),
(533,735,l)
);
},
{
closed = 1;
nodes = (
(981,594,l),
(1002,690,l),
(587,690,l),
(566,594,l)
);
}
);
};
layerId = m001;
shapes = (
{
ref = AE;
},
{
pos = (266,0);
ref = acutecomb.case;
}
);
width = 979;
},
{
background = {
shapes = (
{
closed = 1;
nodes = (
(118,0,l),
(593,690,l),
(426,690,l),
(-73,0,l)
);
},
{
closed = 1;
nodes = (
(464,162,l),
(493,295,l),
(203,295,l),
(174,162,l)
);
},
{
closed = 1;
nodes = (
(883,0,l),
(914,145,l),
(487,145,l),
(456,0,l)
);
},
{
closed = 1;
nodes = (
(543,0,l),
(690,690,l),
(535,690,l),
(388,0,l)
);
},
{
closed = 1;
nodes = (
(896,282,l),
(925,419,l),
(545,419,l),
(516,282,l)
);
},
{
closed = 1;
nodes = (
(995,545,l),
(1026,690,l),
(603,690,l),
(572,545,l)
);
},
{
closed = 1;
nodes = (
(671,735,l),
(847,850,l),
(674,850,l),
(546,735,l)
);
}
);
};
layerId = "935096DB-18C6-4F5A-A149-9E36F9702B37";
shapes = (
{
ref = AE;
},
{
pos = (288,0);
ref = acutecomb.case;
}
);
width = 991;
}
);
unicode = 508;
},
{
color = 6;
glyphname = B;
kernLeft = H;
kernRight = B;
lastChange = "2024-03-21 14:00:11 +0000";
layers = (
{
background = {
shapes = (
{
closed = 1;
nodes = (
(283,0,l),
(457.365,0,o),
(559,95.833,o),
(559,230,c),
(559,322.647,o),
(479.418,381,o),
(373,381,c),
(133,381,l),
(119,313,l),
(334,313,l),
(413,313,o),
(453,285,o),
(453,232,c),
(453,159,o),
(399,93,o),
(275,93,c),
(72,93,l),
(52,0,l)
);
},
{
closed = 1;
nodes = (
(107,0,l),
(254,690,l),
(149,690,l),
(2,0,l)
);
},
{
closed = 1;
nodes = (
(324,344,l),
(498,344,o),
(598,417,o),
(598,530,c),
(598,629,o),
(519,690,o),
(409,690,c),
(199,690,l),
(179,597,l),
(386,597,l),
(459,597,o),
(495,567,o),
(495,518,c),
(495,454,o),
(444,399,o),
(327,399,c),
(129,399,l),
(117,344,l)
);
}
);
};
layerId = m001;
shapes = (
{
closed = 1;
nodes = (
(283,0,ls),
(457,0,o),
(559,96,o),
(559,230,cs),
(559,293,o),
(522,341,o),
(464,364,c),
(551,393,o),
(598,452,o),
(598,530,cs),
(598,629,o),
(519,690,o),
(409,690,cs),
(149,690,l),
(2,0,l)
);
},
{
closed = 1;
nodes = (
(174,313,l),
(334,313,ls),
(413,313,o),
(453,285,o),
(453,232,cs),
(453,159,o),
(399,93,o),
(275,93,cs),
(127,93,l)
);
},
{
closed = 1;
nodes = (
(234,597,l),
(386,597,ls),
(459,597,o),
(495,567,o),
(495,518,cs),
(495,454,o),
(444,399,o),
(327,399,cs),
(192.004,399,l)
);
}
);
width = 623;
},
{
background = {
shapes = (
{
closed = 1;
nodes = (
(285,0,l),
(475,0,o),
(578,101,o),
(578,232,c),
(578,320,o),
(505.481,380,o),
(380,380,c),
(143,380,l),
(123,287,l),
(333,287,l),
(396.526,287,o),
(418,265,o),
(418,231,c),
(418,180,o),
(385.692,144,o),
(298,144,c),
(88,144,l),
(57,0,l)
);
},
{
closed = 1;
nodes = (
(144,0,l),
(291,690,l),
(136,690,l),
(-11,0,l)
);
},
{
closed = 1;
nodes = (
(366,349,l),
(522.617,349,o),
(612,424.981,o),
(612,525,c),
(612,621.462,o),
(538.862,690,o),
(410,690,c),
(204,690,l),
(173,546,l),
(387,546,l),
(436,546,o),
(457,524,o),
(457,491,c),
(457,449,o),
(425.5,414,o),
(352,414,c),
(137,414,l),
(127,349,l)
);
}
);
};
layerId = "935096DB-18C6-4F5A-A149-9E36F9702B37";
shapes = (
{
closed = 1;
nodes = (
(285,0,ls),
(475,0,o),
(578,101,o),
(578,232,cs),
(578,294,o),
(542,342,o),
(478,365,c),
(564,392,o),
(612,452,o),
(612,525,cs),
(612,621,o),
(539,690,o),
(410,690,cs),
(136,690,l),
(-11,0,l)
);
},
{
closed = 1;
nodes = (
(205,287,l),
(333,287,ls),
(397,287,o),
(418,265,o),
(418,231,cs),
(418,180,o),
(386,144,o),
(298,144,cs),
(175,144,l)
);
},
{
closed = 1;
nodes = (
(260,546,l),
(387,546,ls),
(436,546,o),
(457,524,o),
(457,491,cs),
(457,449,o),
(426,414,o),
(352,414,cs),
(232,414,l)
);
}
);
width = 636;
}
);
unicode = 66;
},
{
color = 6;
glyphname = C;
kernLeft = O;
kernRight = C;
lastChange = "2024-03-21 14:00:11 +0000";
layers = (
{
anchors = (
{
name = bottom;
pos = (273,0);
},
{
name = top;
pos = (419.664,690);
}
);
background = {
anchors = (
{
name = bottom;
pos = (273,0);
},
{
name = top;
pos = (419.664,690);
}
);
shapes = (
{
closed = 1;
nodes = (
(422,-10,o),
(539,77,o),
(600,208,c),
(497,240,l),
(460,149,o),
(386,88,o),
(295,88,c),
(198,88,o),
(146,146,o),
(146,254,cs),
(146,444,o),
(253,602,o),
(390,602,c),
(485,602,o),
(538,551,o),
(543,456,c),
(650,486,l),
(637,612,o),
(545,700,o),
(406,700,c),
(198,700,o),
(38,499,o),
(38,248,cs),
(38,94,o),
(132,-10,o),
(278,-10,c)
);
}
);
};
layerId = m001;
shapes = (
{
closed = 1;
nodes = (
(422,-10,o),
(539,77,o),
(600,208,c),
(497,240,l),
(460,149,o),
(386,88,o),
(295,88,c),
(198,88,o),
(146,146,o),
(146,254,cs),
(146,444,o),
(253,602,o),
(390,602,c),
(485,602,o),
(538,551,o),
(543,456,c),
(650,486,l),
(637,612,o),
(545,700,o),
(406,700,c),
(198,700,o),
(38,499,o),
(38,248,cs),
(38,94,o),
(132,-10,o),
(278,-10,c)
);
}
);
width = 668;
},
{
anchors = (
{
name = bottom;
pos = (286,0);
},
{
name = top;
pos = (433,690);
}
);
background = {
anchors = (
{
name = bottom;
pos = (286,0);
},
{
name = top;
pos = (433,690);
}
);
shapes = (
{
closed = 1;
nodes = (
(465.162,-14,o),
(587.445,85,o),
(635,227,c),
(477,262,l),
(452.576,185,o),
(397.152,132,o),
(322,132,c),
(231.588,132,o),
(196,193,o),
(196,278,c),
(196,432,o),
(277.825,558,o),
(392,558,c),
(472.585,558,o),
(505.203,506,o),
(510,432,c),
(671,466,l),
(657.267,607,o),
(564.08,704,o),
(414,704,c),
(189.882,704,o),
(33,506,o),
(33,267,c),
(33,107,o),
(137.094,-14,o),
(306,-14,c)
);
}
);
};
layerId = "935096DB-18C6-4F5A-A149-9E36F9702B37";
shapes = (
{
closed = 1;
nodes = (
(465.162,-14,o),
(587.445,85,o),
(635,227,c),
(477,262,l),
(452.576,185,o),
(397.152,132,o),
(322,132,c),
(231.588,132,o),
(196,193,o),
(196,278,c),
(196,432,o),
(277.825,558,o),
(392,558,c),
(472.585,558,o),
(505.203,506,o),
(510,432,c),
(671,466,l),
(657.267,607,o),
(564.08,704,o),
(414,704,c),
(189.882,704,o),
(33,506,o),
(33,267,c),
(33,107,o),
(137.094,-14,o),
(306,-14,c)
);
}
);
width = 688;
}
);
unicode = 67;
},
{
color = 10;
glyphname = Cacute;
kernLeft = O;
kernRight = C;
lastChange = "2024-03-21 14:21:18 +0000";
layers = (
{
background = {
shapes = (
{
closed = 1;
nodes = (
(422,-10,o),
(539,77,o),
(600,208,c),
(497,240,l),
(460,149,o),
(386,88,o),
(295,88,c),
(198,88,o),
(146,146,o),
(146,254,cs),
(146,444,o),
(253,602,o),
(390,602,c),
(485,602,o),
(538,551,o),
(543,456,c),
(650,486,l),
(637,612,o),
(545,700,o),
(406,700,c),
(198,700,o),
(38,499,o),
(38,248,cs),
(38,94,o),
(132,-10,o),
(278,-10,c)
);
},
{
closed = 1;
nodes = (
(465,735,l),
(623,845,l),
(488,845,l),
(364,735,l)
);
}
);
};
layerId = m001;
shapes = (
{
ref = C;
},
{
pos = (97,0);
ref = acutecomb.case;
}
);
width = 668;
},
{
background = {
shapes = (
{
closed = 1;
nodes = (
(465,-14,o),
(587,85,o),
(635,227,c),
(477,262,l),
(453,185,o),
(397,132,o),
(322,132,c),
(232,132,o),
(196,193,o),
(196,278,c),
(196,432,o),
(278,558,o),
(392,558,c),
(473,558,o),
(505,506,o),
(510,432,c),
(671,466,l),
(657,607,o),
(564,704,o),
(414,704,c),
(190,704,o),
(33,506,o),
(33,267,c),
(33,107,o),
(137,-14,o),
(306,-14,c)
);
},
{
closed = 1;
nodes = (
(494,735,l),
(670,850,l),
(497,850,l),
(369,735,l)
);
}
);
};
layerId = "935096DB-18C6-4F5A-A149-9E36F9702B37";
shapes = (
{
ref = C;
},
{
pos = (111,0);
ref = acutecomb.case;
}
);
width = 688;
}
);
unicode = 262;
},
{
color = 10;
glyphname = Ccaron;
kernLeft = O;
kernRight = C;
lastChange = "2024-03-21 14:00:11 +0000";
layers = (
{
background = {
shapes = (
{
closed = 1;
nodes = (
(422,-10,o),
(539,77,o),
(600,208,c),
(497,240,l),
(460,149,o),
(386,88,o),
(295,88,c),
(198,88,o),
(146,146,o),
(146,254,cs),
(146,444,o),
(253,602,o),
(390,602,c),
(485,602,o),
(538,551,o),
(543,456,c),
(650,486,l),
(637,612,o),
(545,700,o),
(406,700,c),
(198,700,o),
(38,499,o),
(38,248,cs),
(38,94,o),
(132,-10,o),
(278,-10,c)
);
},
{
closed = 1;
nodes = (
(465,735,l),
(451,766,l),
(363,845,l),
(270,845,l),
(360,735,l)
);
},
{
closed = 1;
nodes = (
(498,735,l),
(636,845,l),
(529,845,l),
(408,766,l),
(393,735,l)
);
}
);
};
layerId = m001;
shapes = (
{
ref = C;
},
{
pos = (95,0);
ref = caroncomb.case;
}
);
width = 668;
},
{
background = {
shapes = (
{
closed = 1;
nodes = (
(465,-14,o),
(587,85,o),
(635,227,c),
(477,262,l),
(453,185,o),
(397,132,o),
(322,132,c),
(232,132,o),
(196,193,o),
(196,278,c),
(196,432,o),
(278,558,o),
(392,558,c),
(473,558,o),
(505,506,o),
(510,432,c),
(671,466,l),
(657,607,o),
(564,704,o),
(414,704,c),
(190,704,o),
(33,506,o),
(33,267,c),
(33,107,o),
(137,-14,o),
(306,-14,c)
);
},
{
closed = 1;
nodes = (
(487,735,l),
(471,773,l),
(390,850,l),
(273,850,l),
(358,735,l)
);
},
{
closed = 1;
nodes = (
(526,735,l),
(661,850,l),
(534,850,l),
(419,773,l),
(397,735,l)
);
}
);
};
layerId = "935096DB-18C6-4F5A-A149-9E36F9702B37";
shapes = (
{
ref = C;
},
{
pos = (108,0);
ref = caroncomb.case;
}
);
width = 688;
}
);
unicode = 268;
},
{
color = 10;
glyphname = Ccedilla;
kernLeft = O;
kernRight = C;
lastChange = "2024-03-21 14:00:11 +0000";
layers = (
{
background = {
shapes = (
{
closed = 1;
nodes = (
(422,-10,o),
(539,77,o),
(600,208,c),
(497,240,l),
(460,149,o),
(386,88,o),
(295,88,c),
(198,88,o),
(146,146,o),
(146,254,cs),
(146,444,o),
(253,602,o),
(390,602,c),
(485,602,o),
(538,551,o),
(543,456,c),
(650,486,l),
(637,612,o),
(545,700,o),
(406,700,c),
(198,700,o),
(38,499,o),
(38,248,cs),
(38,94,o),
(132,-10,o),
(278,-10,c)
);
},
{
closed = 1;
nodes = (
(295,-185,o),
(339,-144,o),
(339,-96,c),
(339,-55,o),
(310,-29,o),
(269,-29,c),
(278,-43,l),
(295,9,l),
(239,11,l),
(208,-73,l),
(220,-71,o),
(227,-70,o),
(238,-70,c),
(260,-70,o),
(271,-79,o),
(271,-94,c),
(271,-108,o),
(257,-119,o),
(232,-119,c),
(212,-119,o),
(197,-114,o),
(181,-105,c),
(154,-169,l),
(177,-180,o),
(201,-185,o),
(227,-185,c)
);
}
);
};
layerId = m001;
shapes = (
{
ref = C;
},
{
pos = (94,0);
ref = cedillacomb;
}
);
width = 668;
},
{
background = {
shapes = (
{
closed = 1;
nodes = (
(465,-14,o),
(587,85,o),
(635,227,c),
(477,262,l),
(453,185,o),
(397,132,o),
(322,132,c),
(232,132,o),
(196,193,o),
(196,278,c),
(196,432,o),
(278,558,o),
(392,558,c),
(473,558,o),
(505,506,o),
(510,432,c),
(671,466,l),
(657,607,o),
(564,704,o),
(414,704,c),
(190,704,o),
(33,506,o),
(33,267,c),
(33,107,o),
(137,-14,o),
(306,-14,c)
);
},
{
closed = 1;
nodes = (
(328,-190,o),
(367,-146,o),
(367,-97,c),
(367,-57,o),
(338,-29,o),
(288,-29,c),
(297,-43,l),
(314,9,l),
(246,11,l),
(213,-80,l),
(225,-76,o),
(235,-74,o),
(247,-74,c),
(267,-74,o),
(277,-80,o),
(277,-91,c),
(277,-103,o),
(266,-109,o),
(243,-109,c),
(223,-109,o),
(201,-105,o),
(182,-94,c),
(153,-174,l),
(178,-185,o),
(208,-190,o),
(236,-190,c)
);
}
);
};
layerId = "935096DB-18C6-4F5A-A149-9E36F9702B37";
shapes = (
{
ref = C;
},
{
pos = (106,0);
ref = cedillacomb;
}
);
width = 688;
}
);
unicode = 199;
},
{
color = 10;
glyphname = Ccircumflex;
kernLeft = O;
kernRight = C;
lastChange = "2024-03-21 14:00:11 +0000";
layers = (
{
background = {
shapes = (
{
closed = 1;
nodes = (
(422,-10,o),
(539,77,o),
(600,208,c),
(497,240,l),
(460,149,o),
(386,88,o),
(295,88,c),
(198,88,o),
(146,146,o),
(146,254,cs),
(146,444,o),
(253,602,o),
(390,602,c),
(485,602,o),
(538,551,o),
(543,456,c),
(650,486,l),
(637,612,o),
(545,700,o),
(406,700,c),
(198,700,o),
(38,499,o),
(38,248,cs),
(38,94,o),
(132,-10,o),
(278,-10,c)
);
},
{
closed = 1;
nodes = (
(353,735,l),
(474,814,l),
(489,845,l),
(384,845,l),
(246,735,l)
);
},
{
closed = 1;
nodes = (
(612,735,l),
(522,845,l),
(417,845,l),
(431,814,l),
(519,735,l)
);
}
);
};
layerId = m001;
shapes = (
{
ref = C;
},
{
pos = (96,0);
ref = circumflexcomb.case;
}
);
width = 668;
},
{
background = {
shapes = (
{
closed = 1;
nodes = (
(465,-14,o),
(587,85,o),
(635,227,c),
(477,262,l),
(453,185,o),
(397,132,o),
(322,132,c),
(232,132,o),
(196,193,o),
(196,278,c),
(196,432,o),
(278,558,o),
(392,558,c),
(473,558,o),
(505,506,o),
(510,432,c),
(671,466,l),
(657,607,o),
(564,704,o),
(414,704,c),
(190,704,o),
(33,506,o),
(33,267,c),
(33,107,o),
(137,-14,o),
(306,-14,c)
);
},
{
closed = 1;
nodes = (
(375,735,l),
(490,812,l),
(512,850,l),
(383,850,l),
(248,735,l)
);
},
{
closed = 1;
nodes = (
(636,735,l),
(551,850,l),
(422,850,l),
(438,812,l),
(519,735,l)
);
}
);
};
layerId = "935096DB-18C6-4F5A-A149-9E36F9702B37";
shapes = (
{
ref = C;
},
{
pos = (109,0);
ref = circumflexcomb.case;
}
);
width = 688;
}
);
unicode = 264;
},
{
color = 10;
glyphname = Cdotaccent;
kernLeft = O;
kernRight = C;
lastChange = "2024-03-21 14:00:11 +0000";
layers = (
{
background = {
shapes = (
{
closed = 1;
nodes = (
(422,-10,o),
(539,77,o),
(600,208,c),
(497,240,l),
(460,149,o),
(386,88,o),
(295,88,c),
(198,88,o),
(146,146,o),
(146,254,cs),
(146,444,o),
(253,602,o),
(390,602,c),
(485,602,o),
(538,551,o),
(543,456,c),
(650,486,l),
(637,612,o),
(545,700,o),
(406,700,c),
(198,700,o),
(38,499,o),
(38,248,cs),
(38,94,o),
(132,-10,o),
(278,-10,c)
);
},
{
closed = 1;
nodes = (
(475,735,o),
(503,760,o),
(503,795,c),
(503,827,o),
(480,848,o),
(446,848,c),
(408,848,o),
(381,823,o),
(381,785,c),
(381,756,o),
(404,735,o),
(437,735,c)
);
}
);
};
layerId = m001;
shapes = (
{
ref = C;
},
{
pos = (96,0);
ref = dotaccentcomb.case;
}
);
width = 668;
},
{
background = {
shapes = (
{
closed = 1;
nodes = (
(465,-14,o),
(587,85,o),
(635,227,c),
(477,262,l),
(453,185,o),
(397,132,o),
(322,132,c),
(232,132,o),
(196,193,o),
(196,278,c),
(196,432,o),
(278,558,o),
(392,558,c),
(473,558,o),
(505,506,o),
(510,432,c),
(671,466,l),
(657,607,o),
(564,704,o),
(414,704,c),
(190,704,o),
(33,506,o),
(33,267,c),
(33,107,o),
(137,-14,o),
(306,-14,c)
);
},
{
closed = 1;
nodes = (
(499,741,o),
(535,771,o),
(535,817,c),
(535,856,o),
(508,881,o),
(464,881,c),
(419,881,o),
(383,851,o),
(383,804,c),
(383,766,o),
(410,741,o),
(454,741,c)
);
}
);
};
layerId = "935096DB-18C6-4F5A-A149-9E36F9702B37";
shapes = (
{
ref = C;
},
{
pos = (109,0);
ref = dotaccentcomb.case;
}
);
width = 688;
}
);
unicode = 266;
},
{
color = 6;
glyphname = D;
kernLeft = H;
kernRight = O;
lastChange = "2024-03-21 14:00:11 +0000";
layers = (
{
anchors = (
{
name = top;
pos = (401.664,690);
}
);
background = {
anchors = (
{
name = top;
pos = (401.664,690);
}
);
shapes = (
{
closed = 1;
nodes = (
(236,0,ls),
(488,0,o),
(642,195.565,o),
(642,441,cs),
(642,588.093,o),
(539,690,o),
(375,690,cs),
(199,690,l),
(178,594,l),
(352,594,ls),
(487,594,o),
(534,536.512,o),
(534,434,cs),
(534,249.491,o),
(426,96,o),
(246,96,cs),
(72,96,l),
(52,0,l)
);
},
{
closed = 1;
nodes = (
(107,0,l),
(254,690,l),
(149,690,l),
(2,0,l)
);
}
);
};
layerId = m001;
shapes = (
{
closed = 1;
nodes = (
(236,0,ls),
(488,0,o),
(642,195.565,o),
(642,441,cs),
(642,588.093,o),
(539,690,o),
(375,690,cs),
(199,690,l),
(178,594,l),
(352,594,ls),
(487,594,o),
(534,536.512,o),
(534,434,cs),
(534,249.491,o),
(426,96,o),
(246,96,cs),
(72,96,l),
(52,0,l)
);
},
{
closed = 1;
nodes = (
(107,0,l),
(254,690,l),
(149,690,l),
(2,0,l)
);
}
);
width = 678;
},
{
anchors = (
{
name = top;
pos = (383.664,690);
}
);
background = {
anchors = (
{
name = top;
pos = (383.664,690);
}
);
shapes = (
{
closed = 1;
nodes = (
(259,0,l),
(505,0,o),
(660,193,o),
(660,424,c),
(660,575,o),
(561,690,o),
(388,690,c),
(204,690,l),
(173,545,l),
(368,545,l),
(464,545,o),
(499,488.267,o),
(499,412,c),
(499,266.25,o),
(415,145,o),
(280,145,c),
(88,145,l),
(57,0,l)
);
},
{
closed = 1;
nodes = (
(144,0,l),
(291,690,l),
(136,690,l),
(-11,0,l)
);
}
);
};
layerId = "935096DB-18C6-4F5A-A149-9E36F9702B37";
shapes = (
{
closed = 1;
nodes = (
(259,0,l),
(505,0,o),
(660,193,o),
(660,424,c),
(660,575,o),
(561,690,o),
(388,690,c),
(204,690,l),
(173,545,l),
(368,545,l),
(464,545,o),
(499,488.267,o),
(499,412,c),
(499,266.25,o),
(415,145,o),
(280,145,c),
(88,145,l),
(57,0,l)
);
},
{
closed = 1;
nodes = (
(144,0,l),
(291,690,l),
(136,690,l),
(-11,0,l)
);
}
);
width = 689;
}
);
unicode = 68;
},
{
color = 10;
glyphname = Dcaron;
kernLeft = H;
kernRight = O;
lastChange = "2024-03-21 14:00:11 +0000";
layers = (
{
background = {
shapes = (
{
closed = 1;
nodes = (
(236,0,ls),
(488,0,o),
(642,196,o),
(642,441,cs),
(642,588,o),
(539,690,o),
(375,690,cs),
(199,690,l),
(178,594,l),
(352,594,ls),
(487,594,o),
(534,537,o),
(534,434,cs),
(534,249,o),
(426,96,o),
(246,96,cs),
(72,96,l),
(52,0,l)
);
},
{
closed = 1;
nodes = (
(107,0,l),
(254,690,l),
(149,690,l),
(2,0,l)
);
},
{
closed = 1;
nodes = (
(447,735,l),
(433,766,l),
(345,845,l),
(252,845,l),
(342,735,l)
);
},
{
closed = 1;
nodes = (
(480,735,l),
(618,845,l),
(511,845,l),
(390,766,l),
(375,735,l)
);
}
);
};
layerId = m001;
shapes = (
{
ref = D;
},
{
pos = (77,0);
ref = caroncomb.case;
}
);
width = 678;
},
{
background = {
shapes = (
{
closed = 1;
nodes = (
(259,0,l),
(505,0,o),
(660,193,o),
(660,424,c),
(660,575,o),
(561,690,o),
(388,690,c),
(204,690,l),
(173,545,l),
(368,545,l),
(464,545,o),
(499,488,o),
(499,412,c),
(499,266,o),
(415,145,o),
(280,145,c),
(88,145,l),
(57,0,l)
);
},
{
closed = 1;
nodes = (
(144,0,l),
(291,690,l),
(136,690,l),
(-11,0,l)
);
},
{
closed = 1;
nodes = (
(438,735,l),
(422,773,l),
(341,850,l),
(224,850,l),
(309,735,l)
);
},
{
closed = 1;
nodes = (
(477,735,l),
(612,850,l),
(485,850,l),
(370,773,l),
(348,735,l)
);
}
);
};
layerId = "935096DB-18C6-4F5A-A149-9E36F9702B37";
shapes = (
{
ref = D;
},
{
pos = (59,0);
ref = caroncomb.case;
}
);
width = 689;
}
);
unicode = 270;
},
{
color = 10;
glyphname = Dcroat;
kernRight = O;
lastChange = "2024-03-21 14:00:11 +0000";
layers = (
{
background = {
shapes = (
{
closed = 1;
nodes = (
(251,0,ls),
(503,0,o),
(657,196,o),
(657,441,cs),
(657,588,o),
(554,690,o),
(390,690,cs),
(214,690,l),
(193,594,l),
(367,594,ls),
(502,594,o),
(549,537,o),
(549,434,cs),
(549,249,o),
(441,96,o),
(261,96,cs),
(87,96,l),
(67,0,l)
);
},
{
closed = 1;
nodes = (
(122,0,l),
(269,690,l),
(164,690,l),
(17,0,l)
);
},
{
closed = 1;
nodes = (
(355,295,l),
(374,386,l),
(29,386,l),
(10,295,l)
);
}
);
};
layerId = m001;
shapes = (
{
ref = Eth;
}
);
width = 693;
},
{
background = {
shapes = (
{
closed = 1;
nodes = (
(269,0,l),
(515,0,o),
(670,193,o),
(670,424,c),
(670,575,o),
(571,690,o),
(398,690,c),
(214,690,l),
(183,545,l),
(378,545,l),
(474,545,o),
(509,488,o),
(509,412,c),
(509,266,o),
(425,145,o),
(290,145,c),
(98,145,l),
(67,0,l)
);
},
{
closed = 1;
nodes = (
(154,0,l),
(301,690,l),
(146,690,l),
(-1,0,l)
);
},
{
closed = 1;
nodes = (
(355,280,l),
(380,401,l),
(22,401,l),
(-3,280,l)
);
}
);
};
layerId = "935096DB-18C6-4F5A-A149-9E36F9702B37";
shapes = (
{
ref = Eth;
}
);
width = 699;
}
);
unicode = 272;
},
{
color = 6;
glyphname = Eth;
kernRight = O;
lastChange = "2024-03-21 14:00:11 +0000";
layers = (
{
background = {
shapes = (
{
closed = 1;
nodes = (
(251,0,ls),
(503,0,o),
(657,196,o),
(657,441,cs),
(657,588,o),
(554,690,o),
(390,690,cs),
(214,690,l),
(193,594,l),
(367,594,ls),
(502,594,o),
(549,537,o),
(549,434,cs),
(549,249,o),
(441,96,o),
(261,96,cs),
(87,96,l),
(67,0,l)
);
},
{
closed = 1;
nodes = (
(122,0,l),
(269,690,l),
(164,690,l),
(17,0,l)
);
},
{
closed = 1;
nodes = (
(355,295,l),
(374,386,l),
(29,386,l),
(10,295,l)
);
}
);
};
layerId = m001;
shapes = (
{
closed = 1;
nodes = (
(251,0,ls),
(503,0,o),
(657,196,o),
(657,441,cs),
(657,588,o),
(554,690,o),
(390,690,cs),
(214,690,l),
(193,594,l),
(367,594,ls),
(502,594,o),
(549,537,o),
(549,434,cs),
(549,249,o),
(441,96,o),
(261,96,cs),
(87,96,l),
(67,0,l)
);
},
{
closed = 1;
nodes = (
(122,0,l),
(269,690,l),
(164,690,l),
(17,0,l)
);
},
{
closed = 1;
nodes = (
(355,295,l),
(374,386,l),
(29,386,l),
(10,295,l)
);
}
);
width = 693;
},
{
background = {
shapes = (
{
closed = 1;
nodes = (
(269,0,l),
(515,0,o),
(670,193,o),
(670,424,c),
(670,575,o),
(571,690,o),
(398,690,c),
(214,690,l),
(183,545,l),
(378,545,l),
(474,545,o),
(509,488,o),
(509,412,c),
(509,266,o),
(425,145,o),
(290,145,c),
(98,145,l),
(67,0,l)
);
},
{
closed = 1;
nodes = (
(154,0,l),
(301,690,l),
(146,690,l),
(-1,0,l)
);
},
{
closed = 1;
nodes = (
(355,280,l),
(380,401,l),
(22,401,l),
(-3,280,l)
);
}
);
};
layerId = "935096DB-18C6-4F5A-A149-9E36F9702B37";
shapes = (
{
closed = 1;
nodes = (
(269,0,l),
(515,0,o),
(670,193,o),
(670,424,c),
(670,575,o),
(571,690,o),
(398,690,c),
(214,690,l),
(183,545,l),
(378,545,l),
(474,545,o),
(509,488,o),
(509,412,c),
(509,266,o),
(425,145,o),
(290,145,c),
(98,145,l),
(67,0,l)
);
},
{
closed = 1;
nodes = (
(154,0,l),
(301,690,l),
(146,690,l),
(-1,0,l)
);
},
{
closed = 1;
nodes = (
(355,280,l),
(380,401,l),
(22,401,l),
(-3,280,l)
);
}
);
width = 699;
}
);
unicode = 208;
},
{
color = 6;
glyphname = E;
kernLeft = H;
kernRight = E;
lastChange = "2024-03-21 14:03:07 +0000";
layers = (
{
anchors = (
{
name = bottom;
pos = (252,0);
},
{
name = ogonek;
pos = (492,0);
},
{
name = top;
pos = (398.664,690);
}
);
background = {
anchors = (
{
name = bottom;
pos = (252,0);
},
{
name = top;
pos = (398.664,690);
}
);
shapes = (
{
closed = 1;
nodes = (
(107,0,l),
(254,690,l),
(149,690,l),
(2,0,l)
);
},
{
closed = 1;
nodes = (
(492,0,l),
(512,96,l),
(72,96,l),
(52,0,l)
);
},
{
closed = 1;
nodes = (
(492,306,l),
(512,402,l),
(137,402,l),
(117,306,l)
);
},
{
closed = 1;
nodes = (
(613,594,l),
(634,690,l),
(199,690,l),
(178,594,l)
);
}
);
};
layerId = m001;
shapes = (
{
closed = 1;
nodes = (
(107,0,l),
(254,690,l),
(149,690,l),
(2,0,l)
);
},
{
closed = 1;
nodes = (
(492,0,l),
(512,96,l),
(72,96,l),
(52,0,l)
);
},
{
closed = 1;
nodes = (
(492,306,l),
(512,402,l),
(137,402,l),
(117,306,l)
);
},
{
closed = 1;
nodes = (
(613,594,l),
(634,690,l),
(199,690,l),
(178,594,l)
);
}
);
width = 611;
},
{
anchors = (
{
name = bottom;
pos = (254,0);
},
{
name = ogonek;
pos = (509,0);
},
{
name = top;
pos = (400.664,690);
}
);
background = {
anchors = (
{
name = bottom;
pos = (254,0);
},
{
name = top;
pos = (400.664,690);
}
);
shapes = (
{
closed = 1;
nodes = (
(144,0,l),
(291,690,l),
(136,690,l),
(-11,0,l)
);
},
{
closed = 1;
nodes = (
(509,0,l),
(540,145,l),
(88,145,l),
(57,0,l)
);
},
{
closed = 1;
nodes = (
(522,282,l),
(551,419,l),
(146,419,l),
(117,282,l)
);
},
{
closed = 1;
nodes = (
(621,545,l),
(652,690,l),
(204,690,l),
(173,545,l)
);
}
);
};
layerId = "935096DB-18C6-4F5A-A149-9E36F9702B37";
shapes = (
{
closed = 1;
nodes = (
(144,0,l),
(291,690,l),
(136,690,l),
(-11,0,l)
);
},
{
closed = 1;
nodes = (
(509,0,l),
(540,145,l),
(88,145,l),
(57,0,l)
);
},
{
closed = 1;
nodes = (
(522,282,l),
(551,419,l),
(146,419,l),
(117,282,l)
);
},
{
closed = 1;
nodes = (
(621,545,l),
(652,690,l),
(204,690,l),
(173,545,l)
);
}
);
width = 617;
}
);
unicode = 69;
},
{
color = 10;
glyphname = Eacute;
kernLeft = H;
kernRight = E;
lastChange = "2024-03-21 14:21:18 +0000";
layers = (
{
background = {
shapes = (
{
closed = 1;
nodes = (
(107,0,l),
(254,690,l),
(149,690,l),
(2,0,l)
);
},
{
closed = 1;
nodes = (
(492,0,l),
(512,96,l),
(72,96,l),
(52,0,l)
);
},
{
closed = 1;
nodes = (
(492,306,l),
(512,402,l),
(137,402,l),
(117,306,l)
);
},
{
closed = 1;
nodes = (
(613,594,l),
(634,690,l),
(199,690,l),
(178,594,l)
);
},
{
closed = 1;
nodes = (
(444,735,l),
(602,845,l),
(467,845,l),
(343,735,l)
);
}
);
};
layerId = m001;
shapes = (
{
ref = E;
},
{
pos = (76,0);
ref = acutecomb.case;
}
);
width = 611;
},
{
background = {
shapes = (
{
closed = 1;
nodes = (
(144,0,l),
(291,690,l),
(136,690,l),
(-11,0,l)
);
},
{
closed = 1;
nodes = (
(509,0,l),
(540,145,l),
(88,145,l),
(57,0,l)
);
},
{
closed = 1;
nodes = (
(522,282,l),
(551,419,l),
(146,419,l),
(117,282,l)
);
},
{
closed = 1;
nodes = (
(621,545,l),
(652,690,l),
(204,690,l),
(173,545,l)
);
},
{
closed = 1;
nodes = (
(462,735,l),
(638,850,l),
(465,850,l),
(337,735,l)
);
}
);
};
layerId = "935096DB-18C6-4F5A-A149-9E36F9702B37";
shapes = (
{
ref = E;
},
{
pos = (79,0);
ref = acutecomb.case;
}
);
width = 617;
}
);
unicode = 201;
},
{
color = 10;
glyphname = Ebreve;
kernLeft = H;
kernRight = E;
lastChange = "2024-03-21 14:00:11 +0000";
layers = (
{
background = {
shapes = (
{
closed = 1;
nodes = (
(107,0,l),
(254,690,l),
(149,690,l),
(2,0,l)
);
},
{
closed = 1;
nodes = (
(492,0,l),
(512,96,l),
(72,96,l),
(52,0,l)
);
},
{
closed = 1;
nodes = (
(492,306,l),
(512,402,l),
(137,402,l),
(117,306,l)
);
},
{
closed = 1;
nodes = (
(613,594,l),
(634,690,l),
(199,690,l),
(178,594,l)
);
},
{
closed = 1;
nodes = (
(517,735,o),
(564,777,o),
(582,845,c),
(512,845,l),
(504,820,o),
(477,805,o),
(420,805,c),
(368,805,o),
(352,818,o),
(352,841,cs),
(352,845,l),
(282,845,l),
(281,838,o),
(281,833,o),
(281,828,cs),
(281,773,o),
(329,735,o),
(417,735,c)
);
}
);
};
layerId = m001;
shapes = (
{
ref = E;
},
{
pos = (75,0);
ref = brevecomb.case;
}
);
width = 611;
},
{
background = {
shapes = (
{
closed = 1;
nodes = (
(144,0,l),
(291,690,l),
(136,690,l),
(-11,0,l)
);
},
{
closed = 1;
nodes = (
(509,0,l),
(540,145,l),
(88,145,l),
(57,0,l)
);
},
{
closed = 1;
nodes = (
(522,282,l),
(551,419,l),
(146,419,l),
(117,282,l)
);
},
{
closed = 1;
nodes = (
(621,545,l),
(652,690,l),
(204,690,l),
(173,545,l)
);
},
{
closed = 1;
nodes = (
(525,730,o),
(578,779,o),
(594,850,c),
(497,850,l),
(489,827,o),
(467,814,o),
(426,814,c),
(385,814,o),
(373,827,o),
(373,850,c),
(276,850,l),
(275,843,o),
(274,837,o),
(274,831,cs),
(274,770,o),
(327,730,o),
(421,730,c)
);
}
);
};
layerId = "935096DB-18C6-4F5A-A149-9E36F9702B37";
shapes = (
{
ref = E;
},
{
pos = (77,0);
ref = brevecomb.case;
}
);
width = 617;
}
);
unicode = 276;
},
{
color = 10;
glyphname = Ecaron;
kernLeft = H;
kernRight = E;
lastChange = "2024-03-21 14:00:11 +0000";
layers = (
{
background = {
shapes = (
{
closed = 1;
nodes = (
(107,0,l),
(254,690,l),
(149,690,l),
(2,0,l)
);
},
{
closed = 1;
nodes = (
(492,0,l),
(512,96,l),
(72,96,l),
(52,0,l)
);
},
{
closed = 1;
nodes = (
(492,306,l),
(512,402,l),
(137,402,l),
(117,306,l)
);
},
{
closed = 1;
nodes = (
(613,594,l),
(634,690,l),
(199,690,l),
(178,594,l)
);
},
{
closed = 1;
nodes = (
(444,735,l),
(430,766,l),
(342,845,l),
(249,845,l),
(339,735,l)
);
},
{
closed = 1;
nodes = (
(477,735,l),
(615,845,l),
(508,845,l),
(387,766,l),
(372,735,l)
);
}
);
};
layerId = m001;
shapes = (
{
ref = E;
},
{
pos = (74,0);
ref = caroncomb.case;
}
);
width = 611;
},
{
background = {
shapes = (
{
closed = 1;
nodes = (
(144,0,l),
(291,690,l),
(136,690,l),
(-11,0,l)
);
},
{
closed = 1;
nodes = (
(509,0,l),
(540,145,l),
(88,145,l),
(57,0,l)
);
},
{
closed = 1;
nodes = (
(522,282,l),
(551,419,l),
(146,419,l),
(117,282,l)
);
},
{
closed = 1;
nodes = (
(621,545,l),
(652,690,l),
(204,690,l),
(173,545,l)
);
},
{
closed = 1;
nodes = (
(455,735,l),
(439,773,l),
(358,850,l),
(241,850,l),
(326,735,l)
);
},
{
closed = 1;
nodes = (
(494,735,l),
(629,850,l),
(502,850,l),
(387,773,l),
(365,735,l)
);
}
);
};
layerId = "935096DB-18C6-4F5A-A149-9E36F9702B37";
shapes = (
{
ref = E;
},
{
pos = (76,0);
ref = caroncomb.case;
}
);
width = 617;
}
);
unicode = 282;
},
{
color = 10;
glyphname = Ecircumflex;
kernLeft = H;
kernRight = E;
lastChange = "2024-03-21 14:00:11 +0000";
layers = (
{
background = {
shapes = (
{
closed = 1;
nodes = (
(107,0,l),
(254,690,l),
(149,690,l),
(2,0,l)
);
},
{
closed = 1;
nodes = (
(492,0,l),
(512,96,l),
(72,96,l),
(52,0,l)
);
},
{
closed = 1;
nodes = (
(492,306,l),
(512,402,l),
(137,402,l),
(117,306,l)
);
},
{
closed = 1;
nodes = (
(613,594,l),
(634,690,l),
(199,690,l),
(178,594,l)
);
},
{
closed = 1;
nodes = (
(332,735,l),
(453,814,l),
(468,845,l),
(363,845,l),
(225,735,l)
);
},
{
closed = 1;
nodes = (
(591,735,l),
(501,845,l),
(396,845,l),
(410,814,l),
(498,735,l)
);
}
);
};
layerId = m001;
shapes = (
{
ref = E;
},
{
pos = (75,0);
ref = circumflexcomb.case;
}
);
width = 611;
},
{
background = {
shapes = (
{
closed = 1;
nodes = (
(144,0,l),
(291,690,l),
(136,690,l),
(-11,0,l)
);
},
{
closed = 1;
nodes = (
(509,0,l),
(540,145,l),
(88,145,l),
(57,0,l)
);
},
{
closed = 1;
nodes = (
(522,282,l),
(551,419,l),
(146,419,l),
(117,282,l)
);
},
{
closed = 1;
nodes = (
(621,545,l),
(652,690,l),
(204,690,l),
(173,545,l)
);
},
{
closed = 1;
nodes = (
(343,735,l),
(458,812,l),
(480,850,l),
(351,850,l),
(216,735,l)
);
},
{
closed = 1;
nodes = (
(604,735,l),
(519,850,l),
(390,850,l),
(406,812,l),
(487,735,l)
);
}
);
};
layerId = "935096DB-18C6-4F5A-A149-9E36F9702B37";
shapes = (
{
ref = E;
},
{
pos = (77,0);
ref = circumflexcomb.case;
}
);
width = 617;
}
);
unicode = 202;
},
{
color = 10;
glyphname = Edieresis;
kernLeft = H;
kernRight = E;
lastChange = "2024-03-21 14:00:11 +0000";
layers = (
{
background = {
shapes = (
{
closed = 1;
nodes = (
(107,0,l),
(254,690,l),
(149,690,l),
(2,0,l)
);
},
{
closed = 1;
nodes = (
(492,0,l),
(512,96,l),
(72,96,l),
(52,0,l)
);
},
{
closed = 1;
nodes = (
(492,306,l),
(512,402,l),
(137,402,l),
(117,306,l)
);
},
{
closed = 1;
nodes = (
(613,594,l),
(634,690,l),
(199,690,l),
(178,594,l)
);
},
{
closed = 1;
nodes = (
(350,742,o),
(376,767,o),
(376,802,c),
(376,834,o),
(355,855,o),
(324,855,c),
(289,855,o),
(264,830,o),
(264,793,c),
(264,763,o),
(285,742,o),
(315,742,c)
);
},
{
closed = 1;
nodes = (
(553,742,o),
(579,767,o),
(579,802,c),
(579,834,o),
(558,855,o),
(527,855,c),
(492,855,o),
(467,830,o),
(467,793,c),
(467,763,o),
(488,742,o),
(518,742,c)
);
}
);
};
layerId = m001;
shapes = (
{
ref = E;
},
{
pos = (76,0);
ref = dieresiscomb.case;
}
);
width = 611;
},
{
background = {
shapes = (
{
closed = 1;
nodes = (
(144,0,l),
(291,690,l),
(136,690,l),
(-11,0,l)
);
},
{
closed = 1;
nodes = (
(509,0,l),
(540,145,l),
(88,145,l),
(57,0,l)
);
},
{
closed = 1;
nodes = (
(522,282,l),
(551,419,l),
(146,419,l),
(117,282,l)
);
},
{
closed = 1;
nodes = (
(621,545,l),
(652,690,l),
(204,690,l),
(173,545,l)
);
},
{
closed = 1;
nodes = (
(353,742,o),
(385,770,o),
(385,813,c),
(385,850,o),
(361,873,o),
(320,873,c),
(278,873,o),
(246,845,o),
(246,802,c),
(246,765,o),
(269,742,o),
(311,742,c)
);
},
{
closed = 1;
nodes = (
(573,742,o),
(605,770,o),
(605,813,c),
(605,850,o),
(581,873,o),
(540,873,c),
(498,873,o),
(466,845,o),
(466,802,c),
(466,765,o),
(489,742,o),
(531,742,c)
);
}
);
};
layerId = "935096DB-18C6-4F5A-A149-9E36F9702B37";
shapes = (
{
ref = E;
},
{
pos = (77,0);
ref = dieresiscomb.case;
}
);
width = 617;
}
);
unicode = 203;
},
{
color = 10;
glyphname = Edotaccent;
kernLeft = H;
kernRight = E;
lastChange = "2024-03-21 14:00:11 +0000";
layers = (
{
background = {
shapes = (
{
closed = 1;
nodes = (
(107,0,l),
(254,690,l),
(149,690,l),
(2,0,l)
);
},
{
closed = 1;
nodes = (
(492,0,l),
(512,96,l),
(72,96,l),
(52,0,l)
);
},
{
closed = 1;
nodes = (
(492,306,l),
(512,402,l),
(137,402,l),
(117,306,l)
);
},
{
closed = 1;
nodes = (
(613,594,l),
(634,690,l),
(199,690,l),
(178,594,l)
);
},
{
closed = 1;
nodes = (
(454,735,o),
(482,760,o),
(482,795,c),
(482,827,o),
(459,848,o),
(425,848,c),
(387,848,o),
(360,823,o),
(360,785,c),
(360,756,o),
(383,735,o),
(416,735,c)
);
}
);
};
layerId = m001;
shapes = (
{
ref = E;
},
{
pos = (75,0);
ref = dotaccentcomb.case;
}
);
width = 611;
},
{
background = {
shapes = (
{
closed = 1;
nodes = (
(144,0,l),
(291,690,l),
(136,690,l),
(-11,0,l)
);
},
{
closed = 1;
nodes = (
(509,0,l),
(540,145,l),
(88,145,l),
(57,0,l)
);
},
{
closed = 1;
nodes = (
(522,282,l),
(551,419,l),
(146,419,l),
(117,282,l)
);
},
{
closed = 1;
nodes = (
(621,545,l),
(652,690,l),
(204,690,l),
(173,545,l)
);
},
{
closed = 1;
nodes = (
(467,741,o),
(503,771,o),
(503,817,c),
(503,856,o),
(476,881,o),
(432,881,c),
(387,881,o),
(351,851,o),
(351,804,c),
(351,766,o),
(378,741,o),
(422,741,c)
);
}
);
};
layerId = "935096DB-18C6-4F5A-A149-9E36F9702B37";
shapes = (
{
ref = E;
},
{
pos = (77,0);
ref = dotaccentcomb.case;
}
);
width = 617;
}
);
unicode = 278;
},
{
color = 10;
glyphname = Edotbelow;
kernLeft = H;
kernRight = E;
lastChange = "2024-03-21 14:00:11 +0000";
layers = (
{
background = {
shapes = (
{
closed = 1;
nodes = (
(107,0,l),
(254,690,l),
(149,690,l),
(2,0,l)
);
},
{
closed = 1;
nodes = (
(256,-195,o),
(284,-168,o),
(284,-130,c),
(284,-95,o),
(261,-72,o),
(227,-72,c),
(189,-72,o),
(162,-99,o),
(162,-140,c),
(162,-172,o),
(185,-195,o),
(218,-195,c)
);
},
{
closed = 1;
nodes = (
(492,0,l),
(512,96,l),
(72,96,l),
(52,0,l)
);
},
{
closed = 1;
nodes = (
(492,306,l),
(512,402,l),
(137,402,l),
(117,306,l)
);
},
{
closed = 1;
nodes = (
(613,594,l),
(634,690,l),
(199,690,l),
(178,594,l)
);
}
);
};
layerId = m001;
shapes = (
{
ref = E;
},
{
pos = (76,0);
ref = dotbelow;
}
);
width = 611;
},
{
background = {
shapes = (
{
closed = 1;
nodes = (
(144,0,l),
(291,690,l),
(136,690,l),
(-11,0,l)
);
},
{
closed = 1;
nodes = (
(268,-198,o),
(304,-166,o),
(304,-117,c),
(304,-75,o),
(277,-48,o),
(233,-48,c),
(188,-48,o),
(152,-80,o),
(152,-130,c),
(152,-171,o),
(179,-198,o),
(223,-198,c)
);
},
{
closed = 1;
nodes = (
(509,0,l),
(540,145,l),
(88,145,l),
(57,0,l)
);
},
{
closed = 1;
nodes = (
(522,282,l),
(551,419,l),
(146,419,l),
(117,282,l)
);
},
{
closed = 1;
nodes = (
(621,545,l),
(652,690,l),
(204,690,l),
(173,545,l)
);
}
);
};
layerId = "935096DB-18C6-4F5A-A149-9E36F9702B37";
shapes = (
{
ref = E;
},
{
pos = (77,0);
ref = dotbelow;
}
);
width = 617;
}
);
unicode = 7864;
},
{
color = 10;
glyphname = Egrave;
kernLeft = H;
kernRight = E;
lastChange = "2024-03-21 14:00:11 +0000";
layers = (
{
background = {
shapes = (
{
closed = 1;
nodes = (
(107,0,l),
(254,690,l),
(149,690,l),
(2,0,l)
);
},
{
closed = 1;
nodes = (
(492,0,l),
(512,96,l),
(72,96,l),
(52,0,l)
);
},
{
closed = 1;
nodes = (
(492,306,l),
(512,402,l),
(137,402,l),
(117,306,l)
);
},
{
closed = 1;
nodes = (
(613,594,l),
(634,690,l),
(199,690,l),
(178,594,l)
);
},
{
closed = 1;
nodes = (
(467,735,l),
(391,845,l),
(266,845,l),
(379,735,l)
);
}
);
};
layerId = m001;
shapes = (
{
ref = E;
},
{
pos = (75,0);
ref = gravecomb.case;
}
);
width = 611;
},
{
background = {
shapes = (
{
closed = 1;
nodes = (
(144,0,l),
(291,690,l),
(136,690,l),
(-11,0,l)
);
},
{
closed = 1;
nodes = (
(509,0,l),
(540,145,l),
(88,145,l),
(57,0,l)
);
},
{
closed = 1;
nodes = (
(522,282,l),
(551,419,l),
(146,419,l),
(117,282,l)
);
},
{
closed = 1;
nodes = (
(621,545,l),
(652,690,l),
(204,690,l),
(173,545,l)
);
},
{
closed = 1;
nodes = (
(476,735,l),
(398,850,l),
(237,850,l),
(366,735,l)
);
}
);
};
layerId = "935096DB-18C6-4F5A-A149-9E36F9702B37";
shapes = (
{
ref = E;
},
{
pos = (76,0);
ref = gravecomb.case;
}
);
width = 617;
}
);
unicode = 200;
},
{
color = 10;
glyphname = Emacron;
kernLeft = H;
kernRight = E;
lastChange = "2024-03-21 14:00:11 +0000";
layers = (
{
background = {
shapes = (
{
closed = 1;
nodes = (
(107,0,l),
(254,690,l),
(149,690,l),
(2,0,l)
);
},
{
closed = 1;
nodes = (
(492,0,l),
(512,96,l),
(72,96,l),
(52,0,l)
);
},
{
closed = 1;
nodes = (
(492,306,l),
(512,402,l),
(137,402,l),
(117,306,l)
);
},
{
closed = 1;
nodes = (
(613,594,l),
(634,690,l),
(199,690,l),
(178,594,l)
);
},
{
closed = 1;
nodes = (
(570,753,l),
(588,837,l),
(272,837,l),
(254,753,l)
);
}
);
};
layerId = m001;
shapes = (
{
ref = E;
},
{
pos = (76,0);
ref = macroncomb.case;
}
);
width = 611;
},
{
background = {
shapes = (
{
closed = 1;
nodes = (
(144,0,l),
(291,690,l),
(136,690,l),
(-11,0,l)
);
},
{
closed = 1;
nodes = (
(509,0,l),
(540,145,l),
(88,145,l),
(57,0,l)
);
},
{
closed = 1;
nodes = (
(522,282,l),
(551,419,l),
(146,419,l),
(117,282,l)
);
},
{
closed = 1;
nodes = (
(621,545,l),
(652,690,l),
(204,690,l),
(173,545,l)
);
},
{
closed = 1;
nodes = (
(575,735,l),
(600,850,l),
(270,850,l),
(245,735,l)
);
}
);
};
layerId = "935096DB-18C6-4F5A-A149-9E36F9702B37";
shapes = (
{
ref = E;
},
{
pos = (78,0);
ref = macroncomb.case;
}
);
width = 617;
}
);
unicode = 274;
},
{
color = 10;
glyphname = Eogonek;
kernLeft = H;
kernRight = E;
lastChange = "2024-03-21 14:03:12 +0000";
layers = (
{
background = {
shapes = (
{
closed = 1;
nodes = (
(107,0,l),
(254,690,l),
(149,690,l),
(2,0,l)
);
},
{
closed = 1;
nodes = (
(398,-185,o),
(435,-176,o),
(457,-165,c),
(465,-84,l),
(440,-96,o),
(409,-106,o),
(383,-106,c),
(372,-106,o),
(366,-101,o),
(366,-93,cs),
(366,-72,o),
(403,-38,o),
(492,0,c),
(392,0,l),
(307,-35,o),
(278,-74,o),
(278,-118,c),
(278,-155,o),
(304,-185,o),
(366,-185,c)
);
},
{
closed = 1;
nodes = (
(492,0,l),
(512,96,l),
(72,96,l),
(52,0,l)
);
},
{
closed = 1;
nodes = (
(492,306,l),
(512,402,l),
(137,402,l),
(117,306,l)
);
},
{
closed = 1;
nodes = (
(613,594,l),
(634,690,l),
(199,690,l),
(178,594,l)
);
}
);
};
layerId = m001;
shapes = (
{
ref = E;
},
{
pos = (262,0);
ref = ogonekcomb;
}
);
width = 611;
},
{
background = {
shapes = (
{
closed = 1;
nodes = (
(144,0,l),
(291,690,l),
(136,690,l),
(-11,0,l)
);
},
{
closed = 1;
nodes = (
(407,-190,o),
(442,-183,o),
(473,-170,c),
(484,-75,l),
(462,-87,o),
(434,-96,o),
(415,-96,c),
(402,-96,o),
(395,-90,o),
(395,-82,cs),
(395,-65,o),
(420,-36,o),
(509,0,c),
(404,0,l),
(311,-36,o),
(280,-82,o),
(280,-121,c),
(280,-158,o),
(310,-190,o),
(379,-190,c)
);
},
{
closed = 1;
nodes = (
(509,0,l),
(540,145,l),
(88,145,l),
(57,0,l)
);
},
{
closed = 1;
nodes = (
(522,282,l),
(551,419,l),
(146,419,l),
(117,282,l)
);
},
{
closed = 1;
nodes = (
(621,545,l),
(652,690,l),
(204,690,l),
(173,545,l)
);
}
);
};
layerId = "935096DB-18C6-4F5A-A149-9E36F9702B37";
shapes = (
{
ref = E;
},
{
pos = (243,0);
ref = ogonekcomb;
}
);
width = 617;
}
);
unicode = 280;
},
{
color = 10;
glyphname = Etilde;
kernLeft = H;
kernRight = E;
lastChange = "2024-03-21 14:00:11 +0000";
layers = (
{
background = {
shapes = (
{
closed = 1;
nodes = (
(107,0,l),
(254,690,l),
(149,690,l),
(2,0,l)
);
},
{
closed = 1;
nodes = (
(492,0,l),
(512,96,l),
(72,96,l),
(52,0,l)
);
},
{
closed = 1;
nodes = (
(492,306,l),
(512,402,l),
(137,402,l),
(117,306,l)
);
},
{
closed = 1;
nodes = (
(613,594,l),
(634,690,l),
(199,690,l),
(178,594,l)
);
},
{
closed = 1;
nodes = (
(318,735,l),
(320,757,o),
(333,773,o),
(356,773,c),
(392,773,o),
(419,735,o),
(476,735,c),
(539,735,o),
(578,777,o),
(590,845,c),
(522,845,l),
(520,823,o),
(507,807,o),
(484,807,c),
(449,807,o),
(421,845,o),
(364,845,c),
(301,845,o),
(262,803,o),
(250,735,c)
);
}
);
};
layerId = m001;
shapes = (
{
ref = E;
},
{
pos = (76,0);
ref = tildecomb.case;
}
);
width = 611;
},
{
background = {
shapes = (
{
closed = 1;
nodes = (
(144,0,l),
(291,690,l),
(136,690,l),
(-11,0,l)
);
},
{
closed = 1;
nodes = (
(509,0,l),
(540,145,l),
(88,145,l),
(57,0,l)
);
},
{
closed = 1;
nodes = (
(522,282,l),
(551,419,l),
(146,419,l),
(117,282,l)
);
},
{
closed = 1;
nodes = (
(621,545,l),
(652,690,l),
(204,690,l),
(173,545,l)
);
},
{
closed = 1;
nodes = (
(327,735,l),
(328,761,o),
(344,772,o),
(361,772,c),
(394,772,o),
(416,735,o),
(481,735,c),
(544,735,o),
(591,781,o),
(603,854,c),
(519,854,l),
(518,828,o),
(502,817,o),
(485,817,c),
(454,817,o),
(430,854,o),
(365,854,c),
(301,854,o),
(254,808,o),
(243,735,c)
);
}
);
};
layerId = "935096DB-18C6-4F5A-A149-9E36F9702B37";
shapes = (
{
ref = E;
},
{
pos = (77,0);
ref = tildecomb.case;
}
);
width = 617;
}
);
unicode = 7868;
},
{
color = 6;
glyphname = Schwa;
kernLeft = O;
kernRight = O;
lastChange = "2024-03-21 14:00:11 +0000";
layers = (
{
background = {
shapes = (
{
closed = 1;
nodes = (
(500,-10,o),
(662,190,o),
(662,441,cs),
(662,594,o),
(565,700,o),
(410,700,c),
(286,700,o),
(179,631,o),
(112,523,c),
(202,476,l),
(247,553,o),
(316,602,o),
(394,602,c),
(499,602,o),
(554,543,o),
(554,434,cs),
(554,244,o),
(445,88,o),
(305,88,c),
(199,88,o),
(145,146,o),
(145,254,cs),
(145,287,o),
(148,318,o),
(154,348,c),
(115,283,l),
(567,283,l),
(588,379,l),
(54,379,l),
(42,338,o),
(37,294,o),
(37,248,cs),
(37,94,o),
(133,-10,o),
(288,-10,c)
);
}
);
};
layerId = m001;
shapes = (
{
closed = 1;
nodes = (
(500,-10,o),
(662,190,o),
(662,441,cs),
(662,594,o),
(565,700,o),
(410,700,c),
(286,700,o),
(179,631,o),
(112,523,c),
(202,476,l),
(247,553,o),
(316,602,o),
(394,602,c),
(499,602,o),
(554,543,o),
(554,434,cs),
(554,244,o),
(445,88,o),
(305,88,c),
(199,88,o),
(145,146,o),
(145,254,cs),
(145,287,o),
(148,318,o),
(154,348,c),
(115,283,l),
(567,283,l),
(588,379,l),
(54,379,l),
(42,338,o),
(37,294,o),
(37,248,cs),
(37,94,o),
(133,-10,o),
(288,-10,c)
);
}
);
width = 698;
},
{
background = {
shapes = (
{
closed = 1;
nodes = (
(536,-14,o),
(696,185,o),
(696,424,c),
(696,584,o),
(595,704,o),
(422,704,c),
(290,704,o),
(180,638,o),
(111,537,c),
(245,466,l),
(282,522,o),
(336,558,o),
(400,558,c),
(496,558,o),
(533,497,o),
(533,412,c),
(533,258,o),
(447,131,o),
(327,131,c),
(231,131,o),
(190,188,o),
(190,278,c),
(190,301,o),
(192,324,o),
(196,345,c),
(128,275,l),
(565,275,l),
(594,409,l),
(53,409,l),
(39,364,o),
(31,317,o),
(31,267,c),
(31,107,o),
(133,-14,o),
(305,-14,c)
);
}
);
};
layerId = "935096DB-18C6-4F5A-A149-9E36F9702B37";
shapes = (
{
closed = 1;
nodes = (
(536,-14,o),
(696,185,o),
(696,424,c),
(696,584,o),
(595,704,o),
(422,704,c),
(290,704,o),
(180,638,o),
(111,537,c),
(245,466,l),
(282,522,o),
(336,558,o),
(400,558,c),
(496,558,o),
(533,497,o),
(533,412,c),
(533,258,o),
(447,131,o),
(327,131,c),
(231,131,o),
(190,188,o),
(190,278,c),
(190,301,o),
(192,324,o),
(196,345,c),
(128,275,l),
(565,275,l),
(594,409,l),
(53,409,l),
(39,364,o),
(31,317,o),
(31,267,c),
(31,107,o),
(133,-14,o),
(305,-14,c)
);
}
);
width = 727;
}
);
unicode = 399;
},
{
color = 6;
glyphname = F;
kernLeft = H;
kernRight = F;
lastChange = "2024-03-21 14:00:11 +0000";
layers = (
{
background = {
shapes = (
{
closed = 1;
nodes = (
(107,0,l),
(254,690,l),
(149,690,l),
(2,0,l)
);
},
{
closed = 1;
nodes = (
(488,286,l),
(508,382,l),
(133,382,l),
(113,286,l)
);
},
{
closed = 1;
nodes = (
(593,594,l),
(614,690,l),
(199,690,l),
(178,594,l)
);
}
);
};
layerId = m001;
shapes = (
{
closed = 1;
nodes = (
(107,0,l),
(254,690,l),
(149,690,l),
(2,0,l)
);
},
{
closed = 1;
nodes = (
(488,286,l),
(508,382,l),
(133,382,l),
(113,286,l)
);
},
{
closed = 1;
nodes = (
(593,594,l),
(614,690,l),
(199,690,l),
(178,594,l)
);
}
);
width = 575;
},
{
background = {
shapes = (
{
closed = 1;
nodes = (
(144,0,l),
(291,690,l),
(136,690,l),
(-11,0,l)
);
},
{
closed = 1;
nodes = (
(500,262,l),
(529,399,l),
(142,399,l),
(113,262,l)
);
},
{
closed = 1;
nodes = (
(601,545,l),
(632,690,l),
(204,690,l),
(173,545,l)
);
}
);
};
layerId = "935096DB-18C6-4F5A-A149-9E36F9702B37";
shapes = (
{
closed = 1;
nodes = (
(144,0,l),
(291,690,l),
(136,690,l),
(-11,0,l)
);
},
{
closed = 1;
nodes = (
(500,262,l),
(529,399,l),
(142,399,l),
(113,262,l)
);
},
{
closed = 1;
nodes = (
(601,545,l),
(632,690,l),
(204,690,l),
(173,545,l)
);
}
);
width = 582;
}
);
unicode = 70;
},
{
color = 6;
glyphname = G;
kernLeft = O;
kernRight = G;
lastChange = "2024-03-21 14:00:11 +0000";
layers = (
{
anchors = (
{
name = bottom;
pos = (278,0);
},
{
name = top;
pos = (437.664,690);
}
);
background = {
anchors = (
{
name = bottom;
pos = (278,0);
},
{
name = top;
pos = (437.664,690);
}
);
shapes = (
{
closed = 1;
nodes = (
(401,-10,o),
(505,83,o),
(547,216,c),
(514,214,l),
(478,0,l),
(570,0,l),
(644,350,l),
(543,350,l),
(524,260,ls),
(503.074,164,o),
(395.57,88,o),
(298,88,c),
(197.745,88,o),
(144,146,o),
(144,254,cs),
(144,444,o),
(257.578,602,o),
(403,602,c),
(501.105,602,o),
(555.837,551,o),
(561,456,c),
(668,486,l),
(654.734,612,o),
(560.848,700,o),
(419,700,c),
(202.522,700,o),
(36,499,o),
(36,248,cs),
(36,94,o),
(125,-10,o),
(268,-10,c)
);
},
{
closed = 1;
nodes = (
(576,264,l),
(594,350,l),
(349,350,l),
(331,264,l)
);
}
);
};
layerId = m001;
shapes = (
{
closed = 1;
nodes = (
(401,-10,o),
(505,83,o),
(547,216,c),
(514,214,l),
(478,0,l),
(570,0,l),
(644,350,l),
(543,350,l),
(524,260,ls),
(503.074,164,o),
(395.57,88,o),
(298,88,c),
(197.745,88,o),
(144,146,o),
(144,254,cs),
(144,444,o),
(257.578,602,o),
(403,602,c),
(501.105,602,o),
(555.837,551,o),
(561,456,c),
(668,486,l),
(654.734,612,o),
(560.848,700,o),
(419,700,c),
(202.522,700,o),
(36,499,o),
(36,248,cs),
(36,94,o),
(125,-10,o),
(268,-10,c)
);
},
{
closed = 1;
nodes = (
(576,264,l),
(594,350,l),
(349,350,l),
(331,264,l)
);
}
);
width = 703;
},
{
anchors = (
{
name = bottom;
pos = (285,0);
},
{
name = top;
pos = (432.664,690);
}
);
background = {
anchors = (
{
name = bottom;
pos = (285,0);
},
{
name = top;
pos = (432.664,690);
}
);
shapes = (
{
closed = 1;
nodes = (
(413,-14,o),
(498,74,o),
(538,216,c),
(488,214,l),
(471,0,l),
(594,0,l),
(674,377,l),
(523,377,l),
(499,262,ls),
(482,182,o),
(407.097,132,o),
(320,132,c),
(230,132,o),
(194,193,o),
(194,278,c),
(194,432,o),
(280.184,558,o),
(400,558,c),
(487.864,558,o),
(521,507,o),
(526,439,c),
(687,473,l),
(672,608,o),
(577.837,704,o),
(422,704,c),
(192.121,704,o),
(31,506,o),
(31,267,c),
(31,107,o),
(123,-14,o),
(283,-14,c)
);
},
{
closed = 1;
nodes = (
(584,250,l),
(611,377,l),
(357,377,l),
(330,250,l)
);
}
);
};
layerId = "935096DB-18C6-4F5A-A149-9E36F9702B37";
shapes = (
{
closed = 1;
nodes = (
(413,-14,o),
(498,74,o),
(538,216,c),
(488,214,l),
(471,0,l),
(594,0,l),
(674,377,l),
(523,377,l),
(499,262,ls),
(482,182,o),
(407.097,132,o),
(320,132,c),
(230,132,o),
(194,193,o),
(194,278,c),
(194,432,o),
(280.184,558,o),
(400,558,c),
(487.864,558,o),
(521,507,o),
(526,439,c),
(687,473,l),
(672,608,o),
(577.837,704,o),
(422,704,c),
(192.121,704,o),
(31,506,o),
(31,267,c),
(31,107,o),
(123,-14,o),
(283,-14,c)
);
},
{
closed = 1;
nodes = (
(584,250,l),
(611,377,l),
(357,377,l),
(330,250,l)
);
}
);
width = 722;
}
);
unicode = 71;
},
{
color = 10;
glyphname = Gbreve;
kernLeft = O;
kernRight = G;
lastChange = "2024-03-21 14:00:11 +0000";
layers = (
{
background = {
shapes = (
{
closed = 1;
nodes = (
(401,-10,o),
(505,83,o),
(547,216,c),
(514,214,l),
(478,0,l),
(570,0,l),
(644,350,l),
(543,350,l),
(524,260,ls),
(503,164,o),
(396,88,o),
(298,88,c),
(198,88,o),
(144,146,o),
(144,254,cs),
(144,444,o),
(258,602,o),
(403,602,c),
(501,602,o),
(556,551,o),
(561,456,c),
(668,486,l),
(655,612,o),
(561,700,o),
(419,700,c),
(203,700,o),
(36,499,o),
(36,248,cs),
(36,94,o),
(125,-10,o),
(268,-10,c)
);
},
{
closed = 1;
nodes = (
(576,264,l),
(594,350,l),
(349,350,l),
(331,264,l)
);
},
{
closed = 1;
nodes = (
(556,735,o),
(603,777,o),
(621,845,c),
(551,845,l),
(543,820,o),
(516,805,o),
(459,805,c),
(407,805,o),
(391,818,o),
(391,841,cs),
(391,845,l),
(321,845,l),
(320,838,o),
(320,833,o),
(320,828,cs),
(320,773,o),
(368,735,o),
(456,735,c)
);
}
);
};
layerId = m001;
shapes = (
{
ref = G;
},
{
pos = (114,0);
ref = brevecomb.case;
}
);
width = 703;
},
{
background = {
shapes = (
{
closed = 1;
nodes = (
(413,-14,o),
(498,74,o),
(538,216,c),
(488,214,l),
(471,0,l),
(594,0,l),
(674,377,l),
(523,377,l),
(499,262,ls),
(482,182,o),
(407,132,o),
(320,132,c),
(230,132,o),
(194,193,o),
(194,278,c),
(194,432,o),
(280,558,o),
(400,558,c),
(488,558,o),
(521,507,o),
(526,439,c),
(687,473,l),
(672,608,o),
(578,704,o),
(422,704,c),
(192,704,o),
(31,506,o),
(31,267,c),
(31,107,o),
(123,-14,o),
(283,-14,c)
);
},
{
closed = 1;
nodes = (
(584,250,l),
(611,377,l),
(357,377,l),
(330,250,l)
);
},
{
closed = 1;
nodes = (
(557,730,o),
(610,779,o),
(626,850,c),
(529,850,l),
(521,827,o),
(499,814,o),
(458,814,c),
(417,814,o),
(405,827,o),
(405,850,c),
(308,850,l),
(307,843,o),
(306,837,o),
(306,831,cs),
(306,770,o),
(359,730,o),
(453,730,c)
);
}
);
};
layerId = "935096DB-18C6-4F5A-A149-9E36F9702B37";
shapes = (
{
ref = G;
},
{
pos = (109,0);
ref = brevecomb.case;
}
);
width = 722;
}
);
unicode = 286;
},
{
color = 10;
glyphname = Gcaron;
kernLeft = O;
kernRight = G;
lastChange = "2024-03-21 14:00:11 +0000";
layers = (
{
background = {
shapes = (
{
closed = 1;
nodes = (
(401,-10,o),
(505,83,o),
(547,216,c),
(514,214,l),
(478,0,l),
(570,0,l),
(644,350,l),
(543,350,l),
(524,260,ls),
(503,164,o),
(396,88,o),
(298,88,c),
(198,88,o),
(144,146,o),
(144,254,cs),
(144,444,o),
(258,602,o),
(403,602,c),
(501,602,o),
(556,551,o),
(561,456,c),
(668,486,l),
(655,612,o),
(561,700,o),
(419,700,c),
(203,700,o),
(36,499,o),
(36,248,cs),
(36,94,o),
(125,-10,o),
(268,-10,c)
);
},
{
closed = 1;
nodes = (
(576,264,l),
(594,350,l),
(349,350,l),
(331,264,l)
);
},
{
closed = 1;
nodes = (
(483,735,l),
(469,766,l),
(381,845,l),
(288,845,l),
(378,735,l)
);
},
{
closed = 1;
nodes = (
(516,735,l),
(654,845,l),
(547,845,l),
(426,766,l),
(411,735,l)
);
}
);
};
layerId = m001;
shapes = (
{
ref = G;
},
{
pos = (113,0);
ref = caroncomb.case;
}
);
width = 703;
},
{
background = {
shapes = (
{
closed = 1;
nodes = (
(413,-14,o),
(498,74,o),
(538,216,c),
(488,214,l),
(471,0,l),
(594,0,l),
(674,377,l),
(523,377,l),
(499,262,ls),
(482,182,o),
(407,132,o),
(320,132,c),
(230,132,o),
(194,193,o),
(194,278,c),
(194,432,o),
(280,558,o),
(400,558,c),
(488,558,o),
(521,507,o),
(526,439,c),
(687,473,l),
(672,608,o),
(578,704,o),
(422,704,c),
(192,704,o),
(31,506,o),
(31,267,c),
(31,107,o),
(123,-14,o),
(283,-14,c)
);
},
{
closed = 1;
nodes = (
(584,250,l),
(611,377,l),
(357,377,l),
(330,250,l)
);
},
{
closed = 1;
nodes = (
(487,735,l),
(471,773,l),
(390,850,l),
(273,850,l),
(358,735,l)
);
},
{
closed = 1;
nodes = (
(526,735,l),
(661,850,l),
(534,850,l),
(419,773,l),
(397,735,l)
);
}
);
};
layerId = "935096DB-18C6-4F5A-A149-9E36F9702B37";
shapes = (
{
ref = G;
},
{
pos = (108,0);
ref = caroncomb.case;
}
);
width = 722;
}
);
unicode = 486;
},
{
color = 10;
glyphname = Gcircumflex;
kernLeft = O;
kernRight = G;
lastChange = "2024-03-21 14:00:11 +0000";
layers = (
{
background = {
shapes = (
{
closed = 1;
nodes = (
(401,-10,o),
(505,83,o),
(547,216,c),
(514,214,l),
(478,0,l),
(570,0,l),
(644,350,l),
(543,350,l),
(524,260,ls),
(503,164,o),
(396,88,o),
(298,88,c),
(198,88,o),
(144,146,o),
(144,254,cs),
(144,444,o),
(258,602,o),
(403,602,c),
(501,602,o),
(556,551,o),
(561,456,c),
(668,486,l),
(655,612,o),
(561,700,o),
(419,700,c),
(203,700,o),
(36,499,o),
(36,248,cs),
(36,94,o),
(125,-10,o),
(268,-10,c)
);
},
{
closed = 1;
nodes = (
(576,264,l),
(594,350,l),
(349,350,l),
(331,264,l)
);
},
{
closed = 1;
nodes = (
(371,735,l),
(492,814,l),
(507,845,l),
(402,845,l),
(264,735,l)
);
},
{
closed = 1;
nodes = (
(630,735,l),
(540,845,l),
(435,845,l),
(449,814,l),
(537,735,l)
);
}
);
};
layerId = m001;
shapes = (
{
ref = G;
},
{
pos = (114,0);
ref = circumflexcomb.case;
}
);
width = 703;
},
{
background = {
shapes = (
{
closed = 1;
nodes = (
(413,-14,o),
(498,74,o),
(538,216,c),
(488,214,l),
(471,0,l),
(594,0,l),
(674,377,l),
(523,377,l),
(499,262,ls),
(482,182,o),
(407,132,o),
(320,132,c),
(230,132,o),
(194,193,o),
(194,278,c),
(194,432,o),
(280,558,o),
(400,558,c),
(488,558,o),
(521,507,o),
(526,439,c),
(687,473,l),
(672,608,o),
(578,704,o),
(422,704,c),
(192,704,o),
(31,506,o),
(31,267,c),
(31,107,o),
(123,-14,o),
(283,-14,c)
);
},
{
closed = 1;
nodes = (
(584,250,l),
(611,377,l),
(357,377,l),
(330,250,l)
);
},
{
closed = 1;
nodes = (
(375,735,l),
(490,812,l),
(512,850,l),
(383,850,l),
(248,735,l)
);
},
{
closed = 1;
nodes = (
(636,735,l),
(551,850,l),
(422,850,l),
(438,812,l),
(519,735,l)
);
}
);
};
layerId = "935096DB-18C6-4F5A-A149-9E36F9702B37";
shapes = (
{
ref = G;
},
{
pos = (109,0);
ref = circumflexcomb.case;
}
);
width = 722;
}
);
unicode = 284;
},
{
color = 10;
glyphname = Gcommaaccent;
kernLeft = O;
kernRight = G;
lastChange = "2024-03-21 14:00:11 +0000";
layers = (
{
background = {
shapes = (
{
closed = 1;
nodes = (
(401,-10,o),
(505,83,o),
(547,216,c),
(514,214,l),
(478,0,l),
(570,0,l),
(644,350,l),
(543,350,l),
(524,260,ls),
(503,164,o),
(396,88,o),
(298,88,c),
(198,88,o),
(144,146,o),
(144,254,cs),
(144,444,o),
(258,602,o),
(403,602,c),
(501,602,o),
(556,551,o),
(561,456,c),
(668,486,l),
(655,612,o),
(561,700,o),
(419,700,c),
(203,700,o),
(36,499,o),
(36,248,cs),
(36,94,o),
(125,-10,o),
(268,-10,c)
);
},
{
closed = 1;
nodes = (
(236,-275,l),
(320,-72,l),
(216,-72,l),
(173,-275,l)
);
},
{
closed = 1;
nodes = (
(576,264,l),
(594,350,l),
(349,350,l),
(331,264,l)
);
}
);
};
layerId = m001;
shapes = (
{
ref = G;
},
{
pos = (101,0);
ref = commaaccentcomb;
}
);
width = 703;
},
{
background = {
shapes = (
{
closed = 1;
nodes = (
(413,-14,o),
(498,74,o),
(538,216,c),
(488,214,l),
(471,0,l),
(594,0,l),
(674,377,l),
(523,377,l),
(499,262,ls),
(482,182,o),
(407,132,o),
(320,132,c),
(230,132,o),
(194,193,o),
(194,278,c),
(194,432,o),
(280,558,o),
(400,558,c),
(488,558,o),
(521,507,o),
(526,439,c),
(687,473,l),
(672,608,o),
(578,704,o),
(422,704,c),
(192,704,o),
(31,506,o),
(31,267,c),
(31,107,o),
(123,-14,o),
(283,-14,c)
);
},
{
closed = 1;
nodes = (
(256,-270,l),
(344,-54,l),
(212,-54,l),
(166,-270,l)
);
},
{
closed = 1;
nodes = (
(584,250,l),
(611,377,l),
(357,377,l),
(330,250,l)
);
}
);
};
layerId = "935096DB-18C6-4F5A-A149-9E36F9702B37";
shapes = (
{
ref = G;
},
{
pos = (108,0);
ref = commaaccentcomb;
}
);
width = 722;
}
);
unicode = 290;
},
{
color = 10;
glyphname = Gdotaccent;
kernLeft = O;
kernRight = G;
lastChange = "2024-03-21 14:00:11 +0000";
layers = (
{
background = {
shapes = (
{
closed = 1;
nodes = (
(401,-10,o),
(505,83,o),
(547,216,c),
(514,214,l),
(478,0,l),
(570,0,l),
(644,350,l),
(543,350,l),
(524,260,ls),
(503,164,o),
(396,88,o),
(298,88,c),
(198,88,o),
(144,146,o),
(144,254,cs),
(144,444,o),
(258,602,o),
(403,602,c),
(501,602,o),
(556,551,o),
(561,456,c),
(668,486,l),
(655,612,o),
(561,700,o),
(419,700,c),
(203,700,o),
(36,499,o),
(36,248,cs),
(36,94,o),
(125,-10,o),
(268,-10,c)
);
},
{
closed = 1;
nodes = (
(576,264,l),
(594,350,l),
(349,350,l),
(331,264,l)
);
},
{
closed = 1;
nodes = (
(493,735,o),
(521,760,o),
(521,795,c),
(521,827,o),
(498,848,o),
(464,848,c),
(426,848,o),
(399,823,o),
(399,785,c),
(399,756,o),
(422,735,o),
(455,735,c)
);
}
);
};
layerId = m001;
shapes = (
{
ref = G;
},
{
pos = (114,0);
ref = dotaccentcomb.case;
}
);
width = 703;
},
{
background = {
shapes = (
{
closed = 1;
nodes = (
(413,-14,o),
(498,74,o),
(538,216,c),
(488,214,l),
(471,0,l),
(594,0,l),
(674,377,l),
(523,377,l),
(499,262,ls),
(482,182,o),
(407,132,o),
(320,132,c),
(230,132,o),
(194,193,o),
(194,278,c),
(194,432,o),
(280,558,o),
(400,558,c),
(488,558,o),
(521,507,o),
(526,439,c),
(687,473,l),
(672,608,o),
(578,704,o),
(422,704,c),
(192,704,o),
(31,506,o),
(31,267,c),
(31,107,o),
(123,-14,o),
(283,-14,c)
);
},
{
closed = 1;
nodes = (
(584,250,l),
(611,377,l),
(357,377,l),
(330,250,l)
);
},
{
closed = 1;
nodes = (
(499,741,o),
(535,771,o),
(535,817,c),
(535,856,o),
(508,881,o),
(464,881,c),
(419,881,o),
(383,851,o),
(383,804,c),
(383,766,o),
(410,741,o),
(454,741,c)
);
}
);
};
layerId = "935096DB-18C6-4F5A-A149-9E36F9702B37";
shapes = (
{
ref = G;
},
{
pos = (109,0);
ref = dotaccentcomb.case;
}
);
width = 722;
}
);
unicode = 288;
},
{
color = 6;
glyphname = H;
kernLeft = H;
kernRight = H;
lastChange = "2024-03-22 13:33:31 +0000";
layers = (
{
anchors = (
{
name = bottom;
pos = (296,0);
},
{
name = center;
pos = (406,518);
},
{
name = top;
pos = (442,690);
},
{
name = topleft;
pos = (110,690);
}
);
background = {
anchors = (
{
name = bottom;
pos = (296,0);
},
{
name = center;
pos = (406,518);
},
{
name = top;
pos = (442,690);
},
{
name = topleft;
pos = (110,690);
}
);
shapes = (
{
closed = 1;
nodes = (
(557,0,l),
(704,690,l),
(599,690,l),
(452,0,l)
);
},
{
closed = 1;
nodes = (
(107,0,l),
(254,690,l),
(149,690,l),
(2,0,l)
);
},
{
closed = 1;
nodes = (
(572,306,l),
(592,402,l),
(137,402,l),
(117,306,l)
);
}
);
};
layerId = m001;
shapes = (
{
closed = 1;
nodes = (
(107,0,l),
(172,306,l),
(517,306,l),
(452,0,l),
(557,0,l),
(704,690,l),
(599,690,l),
(538,402,l),
(193,402,l),
(254,690,l),
(149,690,l),
(2,0,l)
);
}
);
width = 704;
},
{
anchors = (
{
name = bottom;
pos = (301,0);
},
{
name = center;
pos = (411,518);
},
{
name = top;
pos = (447,690);
},
{
name = topleft;
pos = (110,690);
}
);
background = {
anchors = (
{
name = bottom;
pos = (301,0);
},
{
name = center;
pos = (411,518);
},
{
name = top;
pos = (447,690);
},
{
name = topleft;
pos = (110,690);
}
);
shapes = (
{
closed = 1;
nodes = (
(144,0,l),
(291,690,l),
(136,690,l),
(-11,0,l)
);
},
{
closed = 1;
nodes = (
(571,278,l),
(602,423,l),
(147,423,l),
(116,278,l)
);
},
{
closed = 1;
nodes = (
(580,0,l),
(727,690,l),
(573,690,l),
(426,0,l)
);
}
);
};
layerId = "935096DB-18C6-4F5A-A149-9E36F9702B37";
shapes = (
{
closed = 1;
nodes = (
(144,0,l),
(203,278,l),
(485,278,l),
(426,0,l),
(580,0,l),
(727,690,l),
(573,690,l),
(516,423,l),
(234,423,l),
(291,690,l),
(136,690,l),
(-11,0,l)
);
}
);
width = 714;
}
);
unicode = 72;
},
{
color = 6;
glyphname = Hbar;
lastChange = "2024-03-21 14:00:11 +0000";
layers = (
{
background = {
shapes = (
{
closed = 1;
nodes = (
(572,0,l),
(719,690,l),
(614,690,l),
(467,0,l)
);
},
{
closed = 1;
nodes = (
(122,0,l),
(269,690,l),
(164,690,l),
(17,0,l)
);
},
{
closed = 1;
nodes = (
(583,286,l),
(603,382,l),
(148,382,l),
(128,286,l)
);
},
{
closed = 1;
nodes = (
(744,482,l),
(764,573,l),
(69,573,l),
(49,482,l)
);
}
);
};
layerId = m001;
shapes = (
{
closed = 1;
nodes = (
(122,0,l),
(183,286,l),
(528,286,l),
(467,0,l),
(572,0,l),
(719,690,l),
(614,690,l),
(548,382,l),
(203,382,l),
(269,690,l),
(164,690,l),
(17,0,l)
);
},
{
closed = 1;
nodes = (
(744,482,l),
(764,573,l),
(69,573,l),
(49,482,l)
);
}
);
width = 734;
},
{
background = {
shapes = (
{
closed = 1;
nodes = (
(149,0,l),
(296,690,l),
(141,690,l),
(-6,0,l)
);
},
{
closed = 1;
nodes = (
(566,228,l),
(597,373,l),
(142,373,l),
(111,228,l)
);
},
{
closed = 1;
nodes = (
(744,478,l),
(769,599,l),
(64,599,l),
(39,478,l)
);
},
{
closed = 1;
nodes = (
(585,0,l),
(732,690,l),
(578,690,l),
(431,0,l)
);
}
);
};
layerId = "935096DB-18C6-4F5A-A149-9E36F9702B37";
shapes = (
{
closed = 1;
nodes = (
(149,0,l),
(198,228,l),
(480,228,l),
(431,0,l),
(585,0,l),
(732,690,l),
(578,690,l),
(510,373,l),
(228,373,l),
(296,690,l),
(141,690,l),
(-6,0,l)
);
},
{
closed = 1;
nodes = (
(744,478,l),
(769,599,l),
(64,599,l),
(39,478,l)
);
}
);
width = 724;
}
);
unicode = 294;
},
{
color = 10;
glyphname = Hcircumflex;
kernLeft = H;
kernRight = H;
lastChange = "2024-03-21 14:00:11 +0000";
layers = (
{
background = {
shapes = (
{
closed = 1;
nodes = (
(557,0,l),
(704,690,l),
(599,690,l),
(452,0,l)
);
},
{
closed = 1;
nodes = (
(107,0,l),
(254,690,l),
(149,690,l),
(2,0,l)
);
},
{
closed = 1;
nodes = (
(572,306,l),
(592,402,l),
(137,402,l),
(117,306,l)
);
},
{
closed = 1;
nodes = (
(360,735,l),
(481,814,l),
(496,845,l),
(391,845,l),
(253,735,l)
);
},
{
closed = 1;
nodes = (
(619,735,l),
(529,845,l),
(424,845,l),
(438,814,l),
(526,735,l)
);
}
);
};
layerId = m001;
shapes = (
{
ref = H;
},
{
pos = (118,0);
ref = circumflexcomb.case;
}
);
width = 704;
},
{
background = {
shapes = (
{
closed = 1;
nodes = (
(144,0,l),
(291,690,l),
(136,690,l),
(-11,0,l)
);
},
{
closed = 1;
nodes = (
(571,278,l),
(602,423,l),
(147,423,l),
(116,278,l)
);
},
{
closed = 1;
nodes = (
(580,0,l),
(727,690,l),
(573,690,l),
(426,0,l)
);
},
{
closed = 1;
nodes = (
(374,735,l),
(489,812,l),
(511,850,l),
(382,850,l),
(247,735,l)
);
},
{
closed = 1;
nodes = (
(635,735,l),
(550,850,l),
(421,850,l),
(437,812,l),
(518,735,l)
);
}
);
};
layerId = "935096DB-18C6-4F5A-A149-9E36F9702B37";
shapes = (
{
ref = H;
},
{
pos = (123,0);
ref = circumflexcomb.case;
}
);
width = 714;
}
);
unicode = 292;
},
{
color = 6;
glyphname = I;
kernLeft = H;
kernRight = H;
lastChange = "2024-03-21 14:03:14 +0000";
layers = (
{
anchors = (
{
name = bottom;
pos = (55,0);
},
{
name = ogonek;
pos = (107,0);
},
{
name = top;
pos = (201.664,690);
}
);
background = {
anchors = (
{
name = bottom;
pos = (55,0);
},
{
name = top;
pos = (201.664,690);
}
);
shapes = (
{
closed = 1;
nodes = (
(107,0,l),
(254,690,l),
(149,690,l),
(2,0,l)
);
}
);
};
layerId = m001;
shapes = (
{
closed = 1;
nodes = (
(107,0,l),
(254,690,l),
(149,690,l),
(2,0,l)
);
}
);
width = 254;
},
{
anchors = (
{
name = bottom;
pos = (66,0);
},
{
name = ogonek;
pos = (144,0);
},
{
name = top;
pos = (212.664,690);
}
);
background = {
anchors = (
{
name = bottom;
pos = (66,0);
},
{
name = top;
pos = (212.664,690);
}
);
shapes = (
{
closed = 1;
nodes = (
(144,0,l),
(291,690,l),
(136,690,l),
(-11,0,l)
);
}
);
};
layerId = "935096DB-18C6-4F5A-A149-9E36F9702B37";
shapes = (
{
closed = 1;
nodes = (
(144,0,l),
(291,690,l),
(136,690,l),
(-11,0,l)
);
}
);
width = 278;
}
);
unicode = 73;
},
{
color = 10;
glyphname = IJ;
kernLeft = H;
kernRight = U;
lastChange = "2024-03-21 14:00:11 +0000";
layers = (
{
background = {
shapes = (
{
closed = 1;
nodes = (
(586,-10,o),
(679,74,o),
(714,237,cs),
(811,690,l),
(706,690,l),
(611,244,ls),
(588,138,o),
(538,87,o),
(456,87,c),
(378,87,o),
(340,136,o),
(347,226,c),
(248,214,l),
(244,67,o),
(327,-10,o),
(448,-10,c)
);
},
{
closed = 1;
nodes = (
(107,0,l),
(254,690,l),
(149,690,l),
(2,0,l)
);
}
);
};
layerId = m001;
shapes = (
{
ref = I;
},
{
pos = (254,0);
ref = J;
}
);
width = 805;
},
{
background = {
shapes = (
{
closed = 1;
nodes = (
(657,-14,o),
(751,76,o),
(789,253,cs),
(882,690,l),
(727,690,l),
(635,261,ls),
(618,180,o),
(570,132,o),
(503,132,c),
(443,132,o),
(411,173,o),
(406,241,c),
(261,202,l),
(270,66,o),
(362,-14,o),
(493,-14,c)
);
},
{
closed = 1;
nodes = (
(144,0,l),
(291,690,l),
(136,690,l),
(-11,0,l)
);
}
);
};
layerId = "935096DB-18C6-4F5A-A149-9E36F9702B37";
shapes = (
{
ref = I;
},
{
pos = (278,0);
ref = J;
}
);
width = 862;
}
);
unicode = 306;
},
{
color = 10;
glyphname = Iacute;
kernLeft = H;
kernRight = H;
lastChange = "2024-03-21 14:21:18 +0000";
layers = (
{
background = {
shapes = (
{
closed = 1;
nodes = (
(107,0,l),
(254,690,l),
(149,690,l),
(2,0,l)
);
},
{
closed = 1;
nodes = (
(247,735,l),
(405,845,l),
(270,845,l),
(146,735,l)
);
}
);
};
layerId = m001;
shapes = (
{
ref = I;
},
{
pos = (-121,0);
ref = acutecomb.case;
}
);
width = 254;
},
{
background = {
shapes = (
{
closed = 1;
nodes = (
(144,0,l),
(291,690,l),
(136,690,l),
(-11,0,l)
);
},
{
closed = 1;
nodes = (
(274,735,l),
(450,850,l),
(277,850,l),
(149,735,l)
);
}
);
};
layerId = "935096DB-18C6-4F5A-A149-9E36F9702B37";
shapes = (
{
ref = I;
},
{
pos = (-109,0);
ref = acutecomb.case;
}
);
width = 278;
}
);
unicode = 205;
},
{
color = 10;
glyphname = Ibreve;
kernLeft = H;
kernRight = H;
lastChange = "2024-03-21 14:00:11 +0000";
layers = (
{
background = {
shapes = (
{
closed = 1;
nodes = (
(108,0,l),
(255,690,l),
(150,690,l),
(3,0,l)
);
},
{
closed = 1;
nodes = (
(321,735,o),
(368,777,o),
(386,845,c),
(316,845,l),
(308,820,o),
(281,805,o),
(224,805,c),
(172,805,o),
(156,818,o),
(156,841,cs),
(156,845,l),
(86,845,l),
(85,838,o),
(85,833,o),
(85,828,cs),
(85,773,o),
(133,735,o),
(221,735,c)
);
}
);
};
layerId = m001;
shapes = (
{
ref = I;
},
{
pos = (-122,0);
ref = brevecomb.case;
}
);
width = 254;
},
{
background = {
shapes = (
{
closed = 1;
nodes = (
(145,0,l),
(292,690,l),
(137,690,l),
(-10,0,l)
);
},
{
closed = 1;
nodes = (
(338,730,o),
(391,779,o),
(407,850,c),
(310,850,l),
(302,827,o),
(280,814,o),
(239,814,c),
(198,814,o),
(186,827,o),
(186,850,c),
(89,850,l),
(88,843,o),
(87,837,o),
(87,831,cs),
(87,770,o),
(140,730,o),
(234,730,c)
);
}
);
};
layerId = "935096DB-18C6-4F5A-A149-9E36F9702B37";
shapes = (
{
ref = I;
},
{
pos = (-111,0);
ref = brevecomb.case;
}
);
width = 278;
}
);
unicode = 300;
},
{
color = 10;
glyphname = Icircumflex;
kernLeft = H;
kernRight = H;
lastChange = "2024-03-21 14:00:11 +0000";
layers = (
{
background = {
shapes = (
{
closed = 1;
nodes = (
(107,0,l),
(254,690,l),
(149,690,l),
(2,0,l)
);
},
{
closed = 1;
nodes = (
(135,735,l),
(256,814,l),
(271,845,l),
(166,845,l),
(28,735,l)
);
},
{
closed = 1;
nodes = (
(394,735,l),
(304,845,l),
(199,845,l),
(213,814,l),
(301,735,l)
);
}
);
};
layerId = m001;
shapes = (
{
ref = I;
},
{
pos = (-122,0);
ref = circumflexcomb.case;
}
);
width = 254;
},
{
background = {
shapes = (
{
closed = 1;
nodes = (
(144,0,l),
(291,690,l),
(136,690,l),
(-11,0,l)
);
},
{
closed = 1;
nodes = (
(155,735,l),
(270,812,l),
(292,850,l),
(163,850,l),
(28,735,l)
);
},
{
closed = 1;
nodes = (
(416,735,l),
(331,850,l),
(202,850,l),
(218,812,l),
(299,735,l)
);
}
);
};
layerId = "935096DB-18C6-4F5A-A149-9E36F9702B37";
shapes = (
{
ref = I;
},
{
pos = (-111,0);
ref = circumflexcomb.case;
}
);
width = 278;
}
);
unicode = 206;
},
{
color = 10;
glyphname = Idieresis;
kernLeft = H;
kernRight = H;
lastChange = "2024-03-21 14:00:11 +0000";
layers = (
{
background = {
shapes = (
{
closed = 1;
nodes = (
(107,0,l),
(254,690,l),
(149,690,l),
(2,0,l)
);
},
{
closed = 1;
nodes = (
(153,742,o),
(179,767,o),
(179,802,c),
(179,834,o),
(158,855,o),
(127,855,c),
(92,855,o),
(67,830,o),
(67,793,c),
(67,763,o),
(88,742,o),
(118,742,c)
);
},
{
closed = 1;
nodes = (
(356,742,o),
(382,767,o),
(382,802,c),
(382,834,o),
(361,855,o),
(330,855,c),
(295,855,o),
(270,830,o),
(270,793,c),
(270,763,o),
(291,742,o),
(321,742,c)
);
}
);
};
layerId = m001;
shapes = (
{
ref = I;
},
{
pos = (-121,0);
ref = dieresiscomb.case;
}
);
width = 254;
},
{
background = {
shapes = (
{
closed = 1;
nodes = (
(144,0,l),
(291,690,l),
(136,690,l),
(-11,0,l)
);
},
{
closed = 1;
nodes = (
(165,742,o),
(197,770,o),
(197,813,c),
(197,850,o),
(173,873,o),
(132,873,c),
(90,873,o),
(58,845,o),
(58,802,c),
(58,765,o),
(81,742,o),
(123,742,c)
);
},
{
closed = 1;
nodes = (
(385,742,o),
(417,770,o),
(417,813,c),
(417,850,o),
(393,873,o),
(352,873,c),
(310,873,o),
(278,845,o),
(278,802,c),
(278,765,o),
(301,742,o),
(343,742,c)
);
}
);
};
layerId = "935096DB-18C6-4F5A-A149-9E36F9702B37";
shapes = (
{
ref = I;
},
{
pos = (-111,0);
ref = dieresiscomb.case;
}
);
width = 278;
}
);
unicode = 207;
},
{
color = 10;
glyphname = Idotaccent;
kernLeft = H;
kernRight = H;
lastChange = "2024-03-21 14:00:11 +0000";
layers = (
{
background = {
shapes = (
{
closed = 1;
nodes = (
(108,0,l),
(255,690,l),
(150,690,l),
(3,0,l)
);
},
{
closed = 1;
nodes = (
(258,735,o),
(286,760,o),
(286,795,c),
(286,827,o),
(263,848,o),
(229,848,c),
(191,848,o),
(164,823,o),
(164,785,c),
(164,756,o),
(187,735,o),
(220,735,c)
);
}
);
};
layerId = m001;
shapes = (
{
ref = I;
},
{
pos = (-122,0);
ref = dotaccentcomb.case;
}
);
width = 254;
},
{
background = {
shapes = (
{
closed = 1;
nodes = (
(144,0,l),
(291,690,l),
(136,690,l),
(-11,0,l)
);
},
{
closed = 1;
nodes = (
(279,741,o),
(315,771,o),
(315,817,c),
(315,856,o),
(288,881,o),
(244,881,c),
(199,881,o),
(163,851,o),
(163,804,c),
(163,766,o),
(190,741,o),
(234,741,c)
);
}
);
};
layerId = "935096DB-18C6-4F5A-A149-9E36F9702B37";
shapes = (
{
ref = I;
},
{
pos = (-111,0);
ref = dotaccentcomb.case;
}
);
width = 278;
}
);
unicode = 304;
},
{
color = 10;
glyphname = Idotbelow;
kernLeft = H;
kernRight = H;
lastChange = "2024-03-21 14:00:11 +0000";
layers = (
{
background = {
shapes = (
{
closed = 1;
nodes = (
(107,0,l),
(254,690,l),
(149,690,l),
(2,0,l)
);
},
{
closed = 1;
nodes = (
(59,-195,o),
(87,-168,o),
(87,-130,c),
(87,-95,o),
(64,-72,o),
(30,-72,c),
(-8,-72,o),
(-35,-99,o),
(-35,-140,c),
(-35,-172,o),
(-12,-195,o),
(21,-195,c)
);
}
);
};
layerId = m001;
shapes = (
{
ref = I;
},
{
pos = (-121,0);
ref = dotbelow;
}
);
width = 254;
},
{
background = {
shapes = (
{
closed = 1;
nodes = (
(144,0,l),
(291,690,l),
(136,690,l),
(-11,0,l)
);
},
{
closed = 1;
nodes = (
(80,-198,o),
(116,-166,o),
(116,-117,c),
(116,-75,o),
(89,-48,o),
(45,-48,c),
(0,-48,o),
(-36,-80,o),
(-36,-130,c),
(-36,-171,o),
(-9,-198,o),
(35,-198,c)
);
}
);
};
layerId = "935096DB-18C6-4F5A-A149-9E36F9702B37";
shapes = (
{
ref = I;
},
{
pos = (-111,0);
ref = dotbelow;
}
);
width = 278;
}
);
unicode = 7882;
},
{
color = 10;
glyphname = Igrave;
kernLeft = H;
kernRight = H;
lastChange = "2024-03-21 14:00:11 +0000";
layers = (
{
background = {
shapes = (
{
closed = 1;
nodes = (
(108,0,l),
(255,690,l),
(150,690,l),
(3,0,l)
);
},
{
closed = 1;
nodes = (
(271,735,l),
(195,845,l),
(70,845,l),
(183,735,l)
);
}
);
};
layerId = m001;
shapes = (
{
ref = I;
},
{
pos = (-122,0);
ref = gravecomb.case;
}
);
width = 254;
},
{
background = {
shapes = (
{
closed = 1;
nodes = (
(145,0,l),
(292,690,l),
(137,690,l),
(-10,0,l)
);
},
{
closed = 1;
nodes = (
(289,735,l),
(211,850,l),
(50,850,l),
(179,735,l)
);
}
);
};
layerId = "935096DB-18C6-4F5A-A149-9E36F9702B37";
shapes = (
{
ref = I;
},
{
pos = (-112,0);
ref = gravecomb.case;
}
);
width = 278;
}
);
unicode = 204;
},
{
color = 10;
glyphname = Imacron;
kernLeft = H;
kernRight = H;
lastChange = "2024-03-21 14:00:11 +0000";
layers = (
{
background = {
shapes = (
{
closed = 1;
nodes = (
(107,0,l),
(254,690,l),
(149,690,l),
(2,0,l)
);
},
{
closed = 1;
nodes = (
(373,753,l),
(391,837,l),
(75,837,l),
(57,753,l)
);
}
);
};
layerId = m001;
shapes = (
{
ref = I;
},
{
pos = (-121,0);
ref = macroncomb.case;
}
);
width = 254;
},
{
background = {
shapes = (
{
closed = 1;
nodes = (
(144,0,l),
(291,690,l),
(136,690,l),
(-11,0,l)
);
},
{
closed = 1;
nodes = (
(387,735,l),
(412,850,l),
(82,850,l),
(57,735,l)
);
}
);
};
layerId = "935096DB-18C6-4F5A-A149-9E36F9702B37";
shapes = (
{
ref = I;
},
{
pos = (-110,0);
ref = macroncomb.case;
}
);
width = 278;
}
);
unicode = 298;
},
{
color = 10;
glyphname = Iogonek;
kernLeft = H;
kernRight = H;
lastChange = "2024-03-21 14:03:14 +0000";
layers = (
{
background = {
shapes = (
{
closed = 1;
nodes = (
(107,0,l),
(254,690,l),
(149,690,l),
(2,0,l)
);
},
{
closed = 1;
nodes = (
(13,-185,o),
(50,-176,o),
(72,-165,c),
(80,-84,l),
(55,-96,o),
(24,-106,o),
(-2,-106,c),
(-13,-106,o),
(-19,-101,o),
(-19,-93,cs),
(-19,-72,o),
(18,-38,o),
(107,0,c),
(2,0,l),
(-78,-35,o),
(-107,-74,o),
(-107,-118,c),
(-107,-155,o),
(-81,-185,o),
(-19,-185,c)
);
}
);
};
layerId = m001;
shapes = (
{
ref = I;
},
{
pos = (-123,0);
ref = ogonekcomb;
}
);
width = 254;
},
{
background = {
shapes = (
{
closed = 1;
nodes = (
(145,0,l),
(292,690,l),
(137,690,l),
(-10,0,l)
);
},
{
closed = 1;
nodes = (
(43,-190,o),
(78,-183,o),
(109,-170,c),
(120,-75,l),
(98,-87,o),
(70,-96,o),
(51,-96,c),
(38,-96,o),
(31,-90,o),
(31,-82,cs),
(31,-65,o),
(56,-36,o),
(145,0,c),
(40,0,l),
(-53,-36,o),
(-84,-82,o),
(-84,-121,c),
(-84,-158,o),
(-54,-190,o),
(15,-190,c)
);
}
);
};
layerId = "935096DB-18C6-4F5A-A149-9E36F9702B37";
shapes = (
{
ref = I;
},
{
pos = (-122,0);
ref = ogonekcomb;
}
);
width = 278;
}
);
unicode = 302;
},
{
color = 10;
glyphname = Itilde;
kernLeft = H;
kernRight = H;
lastChange = "2024-03-21 14:00:11 +0000";
layers = (
{
background = {
shapes = (
{
closed = 1;
nodes = (
(107,0,l),
(254,690,l),
(149,690,l),
(2,0,l)
);
},
{
closed = 1;
nodes = (
(121,735,l),
(123,757,o),
(136,773,o),
(159,773,c),
(195,773,o),
(222,735,o),
(279,735,c),
(342,735,o),
(381,777,o),
(393,845,c),
(325,845,l),
(323,823,o),
(310,807,o),
(287,807,c),
(252,807,o),
(224,845,o),
(167,845,c),
(104,845,o),
(65,803,o),
(53,735,c)
);
}
);
};
layerId = m001;
shapes = (
{
ref = I;
},
{
pos = (-121,0);
ref = tildecomb.case;
}
);
width = 254;
},
{
background = {
shapes = (
{
closed = 1;
nodes = (
(145,0,l),
(292,690,l),
(137,690,l),
(-10,0,l)
);
},
{
closed = 1;
nodes = (
(140,735,l),
(141,761,o),
(157,772,o),
(174,772,c),
(207,772,o),
(229,735,o),
(294,735,c),
(357,735,o),
(404,781,o),
(416,854,c),
(332,854,l),
(331,828,o),
(315,817,o),
(298,817,c),
(267,817,o),
(243,854,o),
(178,854,c),
(114,854,o),
(67,808,o),
(56,735,c)
);
}
);
};
layerId = "935096DB-18C6-4F5A-A149-9E36F9702B37";
shapes = (
{
ref = I;
},
{
pos = (-111,0);
ref = tildecomb.case;
}
);
width = 278;
}
);
unicode = 296;
},
{
color = 6;
glyphname = J;
kernLeft = J;
kernRight = U;
lastChange = "2024-03-21 14:00:11 +0000";
layers = (
{
anchors = (
{
name = top;
pos = (501.803,690);
}
);
background = {
anchors = (
{
name = top;
pos = (501.803,690);
}
);
shapes = (
{
closed = 1;
nodes = (
(331.139,-10,o),
(424.139,74,o),
(459.139,237,cs),
(556.139,690,l),
(451.139,690,l),
(356.139,244,ls),
(333.139,138,o),
(283.139,87,o),
(201.139,87,c),
(123.139,87,o),
(85.139,136,o),
(92.139,226,c),
(-6.861,214,l),
(-10.861,67,o),
(72.139,-10,o),
(193.139,-10,c)
);
}
);
};
layerId = m001;
shapes = (
{
closed = 1;
nodes = (
(331.139,-10,o),
(424.139,74,o),
(459.139,237,cs),
(556.139,690,l),
(451.139,690,l),
(356.139,244,ls),
(333.139,138,o),
(283.139,87,o),
(201.139,87,c),
(123.139,87,o),
(85.139,136,o),
(92.139,226,c),
(-6.861,214,l),
(-10.861,67,o),
(72.139,-10,o),
(193.139,-10,c)
);
}
);
width = 551;
},
{
anchors = (
{
name = top;
pos = (525.664,690);
}
);
background = {
anchors = (
{
name = top;
pos = (525.664,690);
}
);
shapes = (
{
closed = 1;
nodes = (
(379,-14,o),
(473,76,o),
(511,253,cs),
(604,690,l),
(449,690,l),
(357,261,ls),
(340,180,o),
(292,132,o),
(225,132,c),
(165,132,o),
(133,173,o),
(128,241,c),
(-17,202,l),
(-8,66,o),
(84,-14,o),
(215,-14,c)
);
}
);
};
layerId = "935096DB-18C6-4F5A-A149-9E36F9702B37";
shapes = (
{
closed = 1;
nodes = (
(379,-14,o),
(473,76,o),
(511,253,cs),
(604,690,l),
(449,690,l),
(357,261,ls),
(340,180,o),
(292,132,o),
(225,132,c),
(165,132,o),
(133,173,o),
(128,241,c),
(-17,202,l),
(-8,66,o),
(84,-14,o),
(215,-14,c)
);
}
);
width = 584;
}
);
unicode = 74;
},
{
color = 10;
glyphname = Jcircumflex;
kernLeft = J;
kernRight = U;
lastChange = "2024-03-21 14:00:11 +0000";
layers = (
{
background = {
shapes = (
{
closed = 1;
nodes = (
(331.139,-10,o),
(424.139,74,o),
(459.139,237,cs),
(556.139,690,l),
(451.139,690,l),
(356.139,244,ls),
(333.139,138,o),
(283.139,87,o),
(201.139,87,c),
(123.139,87,o),
(85.139,136,o),
(92.139,226,c),
(-6.861,214,l),
(-10.861,67,o),
(72.139,-10,o),
(193.139,-10,c)
);
},
{
closed = 1;
nodes = (
(435.139,735,l),
(556.139,814,l),
(571.139,845,l),
(466.139,845,l),
(328.139,735,l)
);
},
{
closed = 1;
nodes = (
(694.139,735,l),
(604.139,845,l),
(499.139,845,l),
(513.139,814,l),
(601.139,735,l)
);
}
);
};
layerId = m001;
shapes = (
{
ref = J;
},
{
pos = (178,0);
ref = circumflexcomb.case;
}
);
width = 551;
},
{
background = {
shapes = (
{
closed = 1;
nodes = (
(379,-14,o),
(473,76,o),
(511,253,cs),
(604,690,l),
(449,690,l),
(357,261,ls),
(340,180,o),
(292,132,o),
(225,132,c),
(165,132,o),
(133,173,o),
(128,241,c),
(-17,202,l),
(-8,66,o),
(84,-14,o),
(215,-14,c)
);
},
{
closed = 1;
nodes = (
(468,735,l),
(583,812,l),
(605,850,l),
(476,850,l),
(341,735,l)
);
},
{
closed = 1;
nodes = (
(729,735,l),
(644,850,l),
(515,850,l),
(531,812,l),
(612,735,l)
);
}
);
};
layerId = "935096DB-18C6-4F5A-A149-9E36F9702B37";
shapes = (
{
ref = J;
},
{
pos = (202,0);
ref = circumflexcomb.case;
}
);
width = 584;
}
);
unicode = 308;
},
{
color = 6;
glyphname = K;
kernLeft = H;
kernRight = X;
lastChange = "2024-03-21 14:00:11 +0000";
layers = (
{
anchors = (
{
name = bottom;
pos = (264,0);
},
{
name = top;
pos = (410.664,690);
}
);
background = {
anchors = (
{
name = bottom;
pos = (264,0);
},
{
name = top;
pos = (410.664,690);
}
);
shapes = (
{
closed = 1;
nodes = (
(683,690,l),
(546,690,l),
(148,320,l),
(116,171,l)
);
},
{
closed = 1;
nodes = (
(107,0,l),
(254,690,l),
(149,690,l),
(2,0,l)
);
},
{
closed = 1;
nodes = (
(555,0,l),
(351,403,l),
(277,334,l),
(439,0,l)
);
}
);
};
layerId = m001;
shapes = (
{
closed = 1;
nodes = (
(683,690,l),
(546,690,l),
(148,320,l),
(116,171,l)
);
},
{
closed = 1;
nodes = (
(107,0,l),
(254,690,l),
(149,690,l),
(2,0,l)
);
},
{
closed = 1;
nodes = (
(555,0,l),
(351,403,l),
(277,334,l),
(439,0,l)
);
}
);
width = 641;
},
{
anchors = (
{
name = bottom;
pos = (258,0);
},
{
name = top;
pos = (404.664,690);
}
);
background = {
anchors = (
{
name = bottom;
pos = (258,0);
},
{
name = top;
pos = (404.664,690);
}
);
shapes = (
{
closed = 1;
nodes = (
(713,690,l),
(511,690,l),
(183,367,l),
(138,148,l)
);
},
{
closed = 1;
nodes = (
(144,0,l),
(291,690,l),
(136,690,l),
(-11,0,l)
);
},
{
closed = 1;
nodes = (
(584,0,l),
(375,415,l),
(267,309,l),
(411,0,l)
);
}
);
};
layerId = "935096DB-18C6-4F5A-A149-9E36F9702B37";
shapes = (
{
closed = 1;
nodes = (
(713,690,l),
(511,690,l),
(183,367,l),
(138,148,l)
);
},
{
closed = 1;
nodes = (
(144,0,l),
(291,690,l),
(136,690,l),
(-11,0,l)
);
},
{
closed = 1;
nodes = (
(584,0,l),
(375,415,l),
(267,309,l),
(411,0,l)
);
}
);
width = 657;
}
);
unicode = 75;
},
{
color = 10;
glyphname = Kcommaaccent;
kernLeft = H;
kernRight = X;
lastChange = "2024-03-21 14:00:11 +0000";
layers = (
{
background = {
shapes = (
{
closed = 1;
nodes = (
(683,690,l),
(546,690,l),
(148,320,l),
(116,171,l)
);
},
{
closed = 1;
nodes = (
(222,-275,l),
(306,-72,l),
(202,-72,l),
(159,-275,l)
);
},
{
closed = 1;
nodes = (
(107,0,l),
(254,690,l),
(149,690,l),
(2,0,l)
);
},
{
closed = 1;
nodes = (
(555,0,l),
(351,403,l),
(277,334,l),
(439,0,l)
);
}
);
};
layerId = m001;
shapes = (
{
ref = K;
},
{
pos = (87,0);
ref = commaaccentcomb;
}
);
width = 641;
},
{
background = {
shapes = (
{
closed = 1;
nodes = (
(713,690,l),
(511,690,l),
(183,367,l),
(138,148,l)
);
},
{
closed = 1;
nodes = (
(229,-270,l),
(317,-54,l),
(185,-54,l),
(139,-270,l)
);
},
{
closed = 1;
nodes = (
(144,0,l),
(291,690,l),
(136,690,l),
(-11,0,l)
);
},
{
closed = 1;
nodes = (
(584,0,l),
(375,415,l),
(267,309,l),
(411,0,l)
);
}
);
};
layerId = "935096DB-18C6-4F5A-A149-9E36F9702B37";
shapes = (
{
ref = K;
},
{
pos = (81,0);
ref = commaaccentcomb;
}
);
width = 657;
}
);
unicode = 310;
},
{
color = 6;
glyphname = L;
kernLeft = H;
kernRight = L;
lastChange = "2024-03-21 14:00:11 +0000";
layers = (
{
anchors = (
{
name = bottom;
pos = (214,0);
},
{
name = center;
pos = (123,345);
},
{
name = top;
pos = (196,690);
},
{
name = topright;
pos = (392,690);
}
);
background = {
anchors = (
{
name = bottom;
pos = (229,0);
},
{
name = top;
pos = (201.664,690);
}
);
shapes = (
{
closed = 1;
nodes = (
(107,0,l),
(254,690,l),
(149,690,l),
(2,0,l)
);
},
{
closed = 1;
nodes = (
(437,0,l),
(457,96,l),
(72,96,l),
(52,0,l)
);
}
);
};
layerId = m001;
shapes = (
{
closed = 1;
nodes = (
(107,0,l),
(254,690,l),
(149,690,l),
(2,0,l)
);
},
{
closed = 1;
nodes = (
(437,0,l),
(457,96,l),
(72,96,l),
(52,0,l)
);
}
);
width = 539;
},
{
anchors = (
{
name = bottom;
pos = (216,0);
},
{
name = center;
pos = (139,345);
},
{
name = top;
pos = (212,690);
},
{
name = topright;
pos = (402,690);
}
);
background = {
anchors = (
{
name = bottom;
pos = (209,0);
},
{
name = top;
pos = (212.664,690);
}
);
shapes = (
{
closed = 1;
nodes = (
(144,0,l),
(291,690,l),
(136,690,l),
(-11,0,l)
);
},
{
closed = 1;
nodes = (
(442,0,l),
(473,145,l),
(88,145,l),
(57,0,l)
);
}
);
};
layerId = "935096DB-18C6-4F5A-A149-9E36F9702B37";
shapes = (
{
closed = 1;
nodes = (
(144,0,l),
(291,690,l),
(136,690,l),
(-11,0,l)
);
},
{
closed = 1;
nodes = (
(442,0,l),
(473,145,l),
(88,145,l),
(57,0,l)
);
}
);
width = 544;
}
);
unicode = 76;
},
{
color = 10;
glyphname = Lacute;
kernLeft = H;
kernRight = L;
lastChange = "2024-03-21 14:21:18 +0000";
layers = (
{
background = {
shapes = (
{
closed = 1;
nodes = (
(107,0,l),
(254,690,l),
(149,690,l),
(2,0,l)
);
},
{
closed = 1;
nodes = (
(437,0,l),
(457,96,l),
(72,96,l),
(52,0,l)
);
},
{
closed = 1;
nodes = (
(247,735,l),
(405,845,l),
(270,845,l),
(146,735,l)
);
}
);
};
layerId = m001;
shapes = (
{
ref = L;
},
{
pos = (-127,0);
ref = acutecomb.case;
}
);
width = 539;
},
{
background = {
shapes = (
{
closed = 1;
nodes = (
(144,0,l),
(291,690,l),
(136,690,l),
(-11,0,l)
);
},
{
closed = 1;
nodes = (
(442,0,l),
(473,145,l),
(88,145,l),
(57,0,l)
);
},
{
closed = 1;
nodes = (
(274,735,l),
(450,850,l),
(277,850,l),
(149,735,l)
);
}
);
};
layerId = "935096DB-18C6-4F5A-A149-9E36F9702B37";
shapes = (
{
ref = L;
},
{
pos = (-110,0);
ref = acutecomb.case;
}
);
width = 544;
}
);
unicode = 313;
},
{
color = 10;
glyphname = Lcaron;
kernLeft = H;
kernRight = L;
lastChange = "2024-03-21 14:00:11 +0000";
layers = (
{
background = {
shapes = (
{
closed = 1;
nodes = (
(107,0,l),
(254,690,l),
(149,690,l),
(2,0,l)
);
},
{
closed = 1;
nodes = (
(437,0,l),
(457,96,l),
(72,96,l),
(52,0,l)
);
},
{
closed = 1;
nodes = (
(414,417,l),
(516,690,l),
(412,690,l),
(354,417,l)
);
}
);
};
layerId = m001;
shapes = (
{
ref = L;
},
{
pos = (130,-25);
ref = caroncomb.alt;
}
);
width = 539;
},
{
background = {
shapes = (
{
closed = 1;
nodes = (
(144,0,l),
(291,690,l),
(136,690,l),
(-11,0,l)
);
},
{
closed = 1;
nodes = (
(442,0,l),
(473,145,l),
(88,145,l),
(57,0,l)
);
},
{
closed = 1;
nodes = (
(444,383,l),
(572,690,l),
(422,690,l),
(356,383,l)
);
}
);
};
layerId = "935096DB-18C6-4F5A-A149-9E36F9702B37";
shapes = (
{
ref = L;
},
{
pos = (154,-25);
ref = caroncomb.alt;
}
);
width = 544;
}
);
unicode = 317;
},
{
color = 10;
glyphname = Lcommaaccent;
kernLeft = H;
kernRight = L;
lastChange = "2024-03-21 14:00:11 +0000";
layers = (
{
background = {
shapes = (
{
closed = 1;
nodes = (
(107,0,l),
(254,690,l),
(149,690,l),
(2,0,l)
);
},
{
closed = 1;
nodes = (
(187,-275,l),
(271,-72,l),
(167,-72,l),
(124,-275,l)
);
},
{
closed = 1;
nodes = (
(437,0,l),
(457,96,l),
(72,96,l),
(52,0,l)
);
}
);
};
layerId = m001;
shapes = (
{
ref = L;
},
{
pos = (37,0);
ref = commaaccentcomb;
}
);
width = 539;
},
{
background = {
shapes = (
{
closed = 1;
nodes = (
(144,0,l),
(291,690,l),
(136,690,l),
(-11,0,l)
);
},
{
closed = 1;
nodes = (
(180,-270,l),
(268,-54,l),
(136,-54,l),
(90,-270,l)
);
},
{
closed = 1;
nodes = (
(442,0,l),
(473,145,l),
(88,145,l),
(57,0,l)
);
}
);
};
layerId = "935096DB-18C6-4F5A-A149-9E36F9702B37";
shapes = (
{
ref = L;
},
{
pos = (39,0);
ref = commaaccentcomb;
}
);
width = 544;
}
);
unicode = 315;
},
{
color = 10;
glyphname = Ldot;
kernLeft = H;
lastChange = "2024-03-21 14:00:11 +0000";
layers = (
{
background = {
shapes = (
{
closed = 1;
nodes = (
(107,0,l),
(254,690,l),
(149,690,l),
(2,0,l)
);
},
{
closed = 1;
nodes = (
(437,0,l),
(457,96,l),
(72,96,l),
(52,0,l)
);
},
{
closed = 1;
nodes = (
(428,271,o),
(458,300,o),
(458,342,c),
(458,379,o),
(433,404,o),
(396,404,c),
(355,404,o),
(326,375,o),
(326,331,c),
(326,296,o),
(351,271,o),
(387,271,c)
);
}
);
};
layerId = m001;
shapes = (
{
ref = L;
},
{
ref = periodcentered.loclCAT.case;
}
);
width = 539;
},
{
background = {
shapes = (
{
closed = 1;
nodes = (
(144,0,l),
(291,690,l),
(136,690,l),
(-11,0,l)
);
},
{
closed = 1;
nodes = (
(442,0,l),
(473,145,l),
(88,145,l),
(57,0,l)
);
},
{
closed = 1;
nodes = (
(453,249,o),
(495,286,o),
(495,344,c),
(495,392,o),
(464,424,o),
(412,424,c),
(360,424,o),
(318,386,o),
(318,328,c),
(318,280,o),
(349,249,o),
(400,249,c)
);
}
);
};
layerId = "935096DB-18C6-4F5A-A149-9E36F9702B37";
shapes = (
{
ref = L;
},
{
ref = periodcentered.loclCAT.case;
}
);
width = 544;
}
);
unicode = 319;
},
{
color = 6;
glyphname = Lslash;
kernLeft = H;
kernRight = L;
lastChange = "2024-03-21 14:00:11 +0000";
layers = (
{
background = {
shapes = (
{
closed = 1;
nodes = (
(384,388,l),
(407,493,l),
(14,317,l),
(-8,212,l)
);
},
{
closed = 1;
nodes = (
(452,0,l),
(472,96,l),
(87,96,l),
(67,0,l)
);
},
{
closed = 1;
nodes = (
(122,0,l),
(269,690,l),
(164,690,l),
(17,0,l)
);
}
);
};
layerId = m001;
shapes = (
{
closed = 1;
nodes = (
(384,388,l),
(407,493,l),
(14,317,l),
(-8,212,l)
);
},
{
closed = 1;
nodes = (
(452,0,l),
(472,96,l),
(87,96,l),
(67,0,l)
);
},
{
closed = 1;
nodes = (
(122,0,l),
(269,690,l),
(164,690,l),
(17,0,l)
);
}
);
width = 553;
},
{
background = {
shapes = (
{
closed = 1;
nodes = (
(417,378,l),
(447,517,l),
(5,319,l),
(-25,180,l)
);
},
{
closed = 1;
nodes = (
(452,0,l),
(483,145,l),
(98,145,l),
(67,0,l)
);
},
{
closed = 1;
nodes = (
(154,0,l),
(301,690,l),
(146,690,l),
(-1,0,l)
);
}
);
};
layerId = "935096DB-18C6-4F5A-A149-9E36F9702B37";
shapes = (
{
closed = 1;
nodes = (
(417,378,l),
(447,517,l),
(5,319,l),
(-25,180,l)
);
},
{
closed = 1;
nodes = (
(452,0,l),
(483,145,l),
(98,145,l),
(67,0,l)
);
},
{
closed = 1;
nodes = (
(154,0,l),
(301,690,l),
(146,690,l),
(-1,0,l)
);
}
);
width = 554;
}
);
unicode = 321;
},
{
color = 6;
glyphname = M;
kernLeft = H;
kernRight = H;
lastChange = "2024-03-21 14:00:11 +0000";
layers = (
{
background = {
shapes = (
{
closed = 1;
nodes = (
(393,0,l),
(311,690,l),
(213,690,l),
(294,0,l)
);
},
{
closed = 1;
nodes = (
(102,0,l),
(249,690,l),
(149,690,l),
(2,0,l)
);
},
{
closed = 1;
nodes = (
(429,0,l),
(788,690,l),
(684,690,l),
(331,0,l)
);
},
{
closed = 1;
nodes = (
(714,0,l),
(861,690,l),
(756,690,l),
(609,0,l)
);
}
);
};
layerId = m001;
shapes = (
{
closed = 1;
nodes = (
(102,0,l),
(226,581,l),
(294,0,l),
(429,0,l),
(734,586,l),
(609,0,l),
(714,0,l),
(861,690,l),
(684,690,l),
(381,98,l),
(311,690,l),
(149,690,l),
(2,0,l)
);
}
);
width = 861;
},
{
background = {
shapes = (
{
closed = 1;
nodes = (
(484,0,l),
(781,690,l),
(627,690,l),
(341,0,l)
);
},
{
closed = 1;
nodes = (
(136,0,l),
(283,690,l),
(136,690,l),
(-11,0,l)
);
},
{
closed = 1;
nodes = (
(398,0,l),
(404,690,l),
(253,690,l),
(259,0,l)
);
},
{
closed = 1;
nodes = (
(759,0,l),
(906,690,l),
(751,690,l),
(604,0,l)
);
}
);
};
layerId = "935096DB-18C6-4F5A-A149-9E36F9702B37";
shapes = (
{
closed = 1;
nodes = (
(136,0,l),
(254,555,l),
(259,0,l),
(484,0,l),
(722,552,l),
(604,0,l),
(759,0,l),
(906,690,l),
(627,690,l),
(399,140,l),
(404,690,l),
(136,690,l),
(-11,0,l)
);
}
);
width = 893;
}
);
unicode = 77;
},
{
color = 6;
glyphname = N;
kernLeft = H;
kernRight = H;
lastChange = "2024-03-21 14:00:11 +0000";
layers = (
{
anchors = (
{
name = bottom;
pos = (282,0);
},
{
name = top;
pos = (428.664,690);
}
);
background = {
anchors = (
{
name = bottom;
pos = (282,0);
},
{
name = top;
pos = (428.664,690);
}
);
shapes = (
{
closed = 1;
nodes = (
(523,0,l),
(284,690,l),
(180,690,l),
(419,0,l)
);
},
{
closed = 1;
nodes = (
(102,0,l),
(249,690,l),
(149,690,l),
(2,0,l)
);
},
{
closed = 1;
nodes = (
(554,0,l),
(701,690,l),
(601,690,l),
(454,0,l)
);
}
);
};
layerId = m001;
shapes = (
{
closed = 1;
nodes = (
(523,0,l),
(284,690,l),
(180,690,l),
(419,0,l)
);
},
{
closed = 1;
nodes = (
(102,0,l),
(249,690,l),
(149,690,l),
(2,0,l)
);
},
{
closed = 1;
nodes = (
(554,0,l),
(701,690,l),
(601,690,l),
(454,0,l)
);
}
);
width = 701;
},
{
anchors = (
{
name = bottom;
pos = (284,0);
},
{
name = top;
pos = (431,690);
}
);
background = {
anchors = (
{
name = bottom;
pos = (284,0);
},
{
name = top;
pos = (431,690);
}
);
shapes = (
{
closed = 1;
nodes = (
(483,0,l),
(386,690,l),
(235,690,l),
(332,0,l)
);
},
{
closed = 1;
nodes = (
(136,0,l),
(283,690,l),
(136,690,l),
(-11,0,l)
);
},
{
closed = 1;
nodes = (
(582,0,l),
(729,690,l),
(582,690,l),
(435,0,l)
);
}
);
};
layerId = "935096DB-18C6-4F5A-A149-9E36F9702B37";
shapes = (
{
closed = 1;
nodes = (
(483,0,l),
(386,690,l),
(235,690,l),
(332,0,l)
);
},
{
closed = 1;
nodes = (
(136,0,l),
(283,690,l),
(136,690,l),
(-11,0,l)
);
},
{
closed = 1;
nodes = (
(582,0,l),
(729,690,l),
(582,690,l),
(435,0,l)
);
}
);
width = 716;
}
);
unicode = 78;
},
{
color = 10;
glyphname = Nacute;
kernLeft = H;
kernRight = H;
lastChange = "2024-03-21 14:21:18 +0000";
layers = (
{
background = {
shapes = (
{
closed = 1;
nodes = (
(523,0,l),
(284,690,l),
(180,690,l),
(419,0,l)
);
},
{
closed = 1;
nodes = (
(102,0,l),
(249,690,l),
(149,690,l),
(2,0,l)
);
},
{
closed = 1;
nodes = (
(554,0,l),
(701,690,l),
(601,690,l),
(454,0,l)
);
},
{
closed = 1;
nodes = (
(474,735,l),
(632,845,l),
(497,845,l),
(373,735,l)
);
}
);
};
layerId = m001;
shapes = (
{
ref = N;
},
{
pos = (106,0);
ref = acutecomb.case;
}
);
width = 701;
},
{
background = {
shapes = (
{
closed = 1;
nodes = (
(483,0,l),
(386,690,l),
(235,690,l),
(332,0,l)
);
},
{
closed = 1;
nodes = (
(136,0,l),
(283,690,l),
(136,690,l),
(-11,0,l)
);
},
{
closed = 1;
nodes = (
(582,0,l),
(729,690,l),
(582,690,l),
(435,0,l)
);
},
{
closed = 1;
nodes = (
(492,735,l),
(668,850,l),
(495,850,l),
(367,735,l)
);
}
);
};
layerId = "935096DB-18C6-4F5A-A149-9E36F9702B37";
shapes = (
{
ref = N;
},
{
pos = (109,0);
ref = acutecomb.case;
}
);
width = 716;
}
);
unicode = 323;
},
{
color = 10;
glyphname = Ncaron;
kernLeft = H;
kernRight = H;
lastChange = "2024-03-21 14:00:11 +0000";
layers = (
{
background = {
shapes = (
{
closed = 1;
nodes = (
(523,0,l),
(284,690,l),
(180,690,l),
(419,0,l)
);
},
{
closed = 1;
nodes = (
(102,0,l),
(249,690,l),
(149,690,l),
(2,0,l)
);
},
{
closed = 1;
nodes = (
(554,0,l),
(701,690,l),
(601,690,l),
(454,0,l)
);
},
{
closed = 1;
nodes = (
(474,735,l),
(460,766,l),
(372,845,l),
(279,845,l),
(369,735,l)
);
},
{
closed = 1;
nodes = (
(507,735,l),
(645,845,l),
(538,845,l),
(417,766,l),
(402,735,l)
);
}
);
};
layerId = m001;
shapes = (
{
ref = N;
},
{
pos = (104,0);
ref = caroncomb.case;
}
);
width = 701;
},
{
background = {
shapes = (
{
closed = 1;
nodes = (
(483,0,l),
(386,690,l),
(235,690,l),
(332,0,l)
);
},
{
closed = 1;
nodes = (
(136,0,l),
(283,690,l),
(136,690,l),
(-11,0,l)
);
},
{
closed = 1;
nodes = (
(582,0,l),
(729,690,l),
(582,690,l),
(435,0,l)
);
},
{
closed = 1;
nodes = (
(485,735,l),
(469,773,l),
(388,850,l),
(271,850,l),
(356,735,l)
);
},
{
closed = 1;
nodes = (
(524,735,l),
(659,850,l),
(532,850,l),
(417,773,l),
(395,735,l)
);
}
);
};
layerId = "935096DB-18C6-4F5A-A149-9E36F9702B37";
shapes = (
{
ref = N;
},
{
pos = (106,0);
ref = caroncomb.case;
}
);
width = 716;
}
);
unicode = 327;
},
{
color = 10;
glyphname = Ncommaaccent;
kernLeft = H;
kernRight = H;
lastChange = "2024-03-21 14:00:11 +0000";
layers = (
{
background = {
shapes = (
{
closed = 1;
nodes = (
(523,0,l),
(284,690,l),
(180,690,l),
(419,0,l)
);
},
{
closed = 1;
nodes = (
(240,-275,l),
(324,-72,l),
(220,-72,l),
(177,-275,l)
);
},
{
closed = 1;
nodes = (
(102,0,l),
(249,690,l),
(149,690,l),
(2,0,l)
);
},
{
closed = 1;
nodes = (
(554,0,l),
(701,690,l),
(601,690,l),
(454,0,l)
);
}
);
};
layerId = m001;
shapes = (
{
ref = N;
},
{
pos = (105,0);
ref = commaaccentcomb;
}
);
width = 701;
},
{
background = {
shapes = (
{
closed = 1;
nodes = (
(483,0,l),
(386,690,l),
(235,690,l),
(332,0,l)
);
},
{
closed = 1;
nodes = (
(255,-270,l),
(343,-54,l),
(211,-54,l),
(165,-270,l)
);
},
{
closed = 1;
nodes = (
(136,0,l),
(283,690,l),
(136,690,l),
(-11,0,l)
);
},
{
closed = 1;
nodes = (
(582,0,l),
(729,690,l),
(582,690,l),
(435,0,l)
);
}
);
};
layerId = "935096DB-18C6-4F5A-A149-9E36F9702B37";
shapes = (
{
ref = N;
},
{
pos = (107,0);
ref = commaaccentcomb;
}
);
width = 716;
}
);
unicode = 325;
},
{
color = 6;
glyphname = Nhookleft;
kernLeft = H;
kernRight = H;
lastChange = "2024-03-21 14:00:11 +0000";
layers = (
{
background = {
shapes = (
{
closed = 1;
nodes = (
(523,0,l),
(284,690,l),
(180,690,l),
(419,0,l)
);
},
{
closed = 1;
nodes = (
(7,-185,o),
(73,-138,o),
(98,-21,cs),
(249,690,l),
(149,690,l),
(-2,-17,ls),
(-13,-70,o),
(-46,-94,o),
(-91,-94,c),
(-114,-94,o),
(-134,-88,o),
(-154,-79,c),
(-173,-168,l),
(-147,-178,o),
(-119,-185,o),
(-87,-185,c)
);
},
{
closed = 1;
nodes = (
(554,0,l),
(701,690,l),
(601,690,l),
(454,0,l)
);
}
);
};
layerId = m001;
shapes = (
{
closed = 1;
nodes = (
(523,0,l),
(284,690,l),
(180,690,l),
(419,0,l)
);
},
{
closed = 1;
nodes = (
(7,-185,o),
(73,-138,o),
(98,-21,cs),
(249,690,l),
(149,690,l),
(-2,-17,ls),
(-13,-70,o),
(-46,-94,o),
(-91,-94,c),
(-114,-94,o),
(-134,-88,o),
(-154,-79,c),
(-173,-168,l),
(-147,-178,o),
(-119,-185,o),
(-87,-185,c)
);
},
{
closed = 1;
nodes = (
(554,0,l),
(701,690,l),
(601,690,l),
(454,0,l)
);
}
);
width = 701;
},
{
background = {
shapes = (
{
closed = 1;
nodes = (
(483,0,l),
(386,690,l),
(235,690,l),
(332,0,l)
);
},
{
closed = 1;
nodes = (
(27,-189,o),
(106,-143,o),
(133,-14,cs),
(283,690,l),
(136,690,l),
(-9,9,ls),
(-18,-32,o),
(-44,-54,o),
(-85,-54,c),
(-110,-54,o),
(-132,-49,o),
(-152,-41,c),
(-180,-172,l),
(-155,-183,o),
(-116,-189,o),
(-76,-189,c)
);
},
{
closed = 1;
nodes = (
(582,0,l),
(729,690,l),
(582,690,l),
(435,0,l)
);
}
);
};
layerId = "935096DB-18C6-4F5A-A149-9E36F9702B37";
shapes = (
{
closed = 1;
nodes = (
(483,0,l),
(386,690,l),
(235,690,l),
(332,0,l)
);
},
{
closed = 1;
nodes = (
(27,-189,o),
(106,-143,o),
(133,-14,cs),
(283,690,l),
(136,690,l),
(-9,9,ls),
(-18,-32,o),
(-44,-54,o),
(-85,-54,c),
(-110,-54,o),
(-132,-49,o),
(-152,-41,c),
(-180,-172,l),
(-155,-183,o),
(-116,-189,o),
(-76,-189,c)
);
},
{
closed = 1;
nodes = (
(582,0,l),
(729,690,l),
(582,690,l),
(435,0,l)
);
}
);
width = 716;
}
);
unicode = 413;
},
{
color = 10;
glyphname = Ntilde;
kernLeft = H;
kernRight = H;
lastChange = "2024-03-21 14:00:11 +0000";
layers = (
{
background = {
shapes = (
{
closed = 1;
nodes = (
(523,0,l),
(284,690,l),
(180,690,l),
(419,0,l)
);
},
{
closed = 1;
nodes = (
(102,0,l),
(249,690,l),
(149,690,l),
(2,0,l)
);
},
{
closed = 1;
nodes = (
(554,0,l),
(701,690,l),
(601,690,l),
(454,0,l)
);
},
{
closed = 1;
nodes = (
(348,735,l),
(350,757,o),
(363,773,o),
(386,773,c),
(422,773,o),
(449,735,o),
(506,735,c),
(569,735,o),
(608,777,o),
(620,845,c),
(552,845,l),
(550,823,o),
(537,807,o),
(514,807,c),
(479,807,o),
(451,845,o),
(394,845,c),
(331,845,o),
(292,803,o),
(280,735,c)
);
}
);
};
layerId = m001;
shapes = (
{
ref = N;
},
{
pos = (106,0);
ref = tildecomb.case;
}
);
width = 701;
},
{
background = {
shapes = (
{
closed = 1;
nodes = (
(483,0,l),
(386,690,l),
(235,690,l),
(332,0,l)
);
},
{
closed = 1;
nodes = (
(136,0,l),
(283,690,l),
(136,690,l),
(-11,0,l)
);
},
{
closed = 1;
nodes = (
(582,0,l),
(729,690,l),
(582,690,l),
(435,0,l)
);
},
{
closed = 1;
nodes = (
(357,735,l),
(358,761,o),
(374,772,o),
(391,772,c),
(424,772,o),
(446,735,o),
(511,735,c),
(574,735,o),
(621,781,o),
(633,854,c),
(549,854,l),
(548,828,o),
(532,817,o),
(515,817,c),
(484,817,o),
(460,854,o),
(395,854,c),
(331,854,o),
(284,808,o),
(273,735,c)
);
}
);
};
layerId = "935096DB-18C6-4F5A-A149-9E36F9702B37";
shapes = (
{
ref = N;
},
{
pos = (107,0);
ref = tildecomb.case;
}
);
width = 716;
}
);
unicode = 209;
},
{
color = 6;
glyphname = Eng;
kernLeft = H;
kernRight = H;
lastChange = "2024-03-21 14:00:11 +0000";
layers = (
{
background = {
shapes = (
{
closed = 1;
nodes = (
(523,0,l),
(284,690,l),
(180,690,l),
(419,0,l)
);
},
{
closed = 1;
nodes = (
(102,0,l),
(249,690,l),
(149,690,l),
(2,0,l)
);
},
{
closed = 1;
nodes = (
(459,-185,o),
(525,-138,o),
(550,-21,cs),
(701,690,l),
(601,690,l),
(450,-17,ls),
(439,-70,o),
(406,-94,o),
(361,-94,c),
(338,-94,o),
(318,-88,o),
(298,-79,c),
(279,-168,l),
(305,-178,o),
(333,-185,o),
(365,-185,c)
);
}
);
};
layerId = m001;
shapes = (
{
closed = 1;
nodes = (
(523,0,l),
(284,690,l),
(180,690,l),
(419,0,l)
);
},
{
closed = 1;
nodes = (
(102,0,l),
(249,690,l),
(149,690,l),
(2,0,l)
);
},
{
closed = 1;
nodes = (
(459,-185,o),
(525,-138,o),
(550,-21,cs),
(701,690,l),
(601,690,l),
(450,-17,ls),
(439,-70,o),
(406,-94,o),
(361,-94,c),
(338,-94,o),
(318,-88,o),
(298,-79,c),
(279,-168,l),
(305,-178,o),
(333,-185,o),
(365,-185,c)
);
}
);
width = 701;
},
{
background = {
shapes = (
{
closed = 1;
nodes = (
(483,0,l),
(386,690,l),
(235,690,l),
(332,0,l)
);
},
{
closed = 1;
nodes = (
(136,0,l),
(283,690,l),
(136,690,l),
(-11,0,l)
);
},
{
closed = 1;
nodes = (
(473,-189,o),
(552,-143,o),
(579,-14,cs),
(729,690,l),
(582,690,l),
(437,9,ls),
(428,-32,o),
(402,-54,o),
(361,-54,c),
(336,-54,o),
(314,-49,o),
(294,-41,c),
(266,-172,l),
(291,-183,o),
(330,-189,o),
(370,-189,c)
);
}
);
};
layerId = "935096DB-18C6-4F5A-A149-9E36F9702B37";
shapes = (
{
closed = 1;
nodes = (
(483,0,l),
(386,690,l),
(235,690,l),
(332,0,l)
);
},
{
closed = 1;
nodes = (
(136,0,l),
(283,690,l),
(136,690,l),
(-11,0,l)
);
},
{
closed = 1;
nodes = (
(473,-189,o),
(552,-143,o),
(579,-14,cs),
(729,690,l),
(582,690,l),
(437,9,ls),
(428,-32,o),
(402,-54,o),
(361,-54,c),
(336,-54,o),
(314,-49,o),
(294,-41,c),
(266,-172,l),
(291,-183,o),
(330,-189,o),
(370,-189,c)
);
}
);
width = 716;
}
);
unicode = 330;
},
{
color = 6;
glyphname = O;
kernLeft = O;
kernRight = O;
lastChange = "2024-03-21 14:03:31 +0000";
layers = (
{
anchors = (
{
name = bottom;
pos = (275,0);
},
{
name = ogonek;
pos = (367,0);
},
{
name = top;
pos = (421.664,690);
}
);
background = {
anchors = (
{
name = bottom;
pos = (275,0);
},
{
name = top;
pos = (421.664,690);
}
);
shapes = (
{
closed = 1;
nodes = (
(499.323,-10,o),
(661,190,o),
(661,441,cs),
(661,594,o),
(563.855,700,o),
(409,700,c),
(197.666,700,o),
(36,499,o),
(36,248,cs),
(36,94,o),
(132.169,-10,o),
(287,-10,c)
);
},
{
closed = 1;
nodes = (
(198,88,o),
(144,146.162,o),
(144,254,cs),
(144,443.848,o),
(253,602,o),
(393,602,c),
(498,602,o),
(553,542.8,o),
(553,434,cs),
(553,244.085,o),
(444,88,o),
(304,88,c)
);
}
);
};
layerId = m001;
shapes = (
{
closed = 1;
nodes = (
(499.323,-10,o),
(661,190,o),
(661,441,cs),
(661,594,o),
(563.855,700,o),
(409,700,c),
(197.666,700,o),
(36,499,o),
(36,248,cs),
(36,94,o),
(132.169,-10,o),
(287,-10,c)
);
},
{
closed = 1;
nodes = (
(198,88,o),
(144,146.162,o),
(144,254,cs),
(144,443.848,o),
(253,602,o),
(393,602,c),
(498,602,o),
(553,542.8,o),
(553,434,cs),
(553,244.085,o),
(444,88,o),
(304,88,c)
);
}
);
width = 697;
},
{
anchors = (
{
name = bottom;
pos = (291,0);
},
{
name = ogonek;
pos = (408,0);
},
{
name = top;
pos = (438,690);
}
);
background = {
anchors = (
{
name = bottom;
pos = (291,0);
},
{
name = top;
pos = (438,690);
}
);
shapes = (
{
closed = 1;
nodes = (
(536,-14,o),
(696,185,o),
(696,424,c),
(696,584,o),
(595,704,o),
(422,704,c),
(192,704,o),
(31,506,o),
(31,267,c),
(31,107,o),
(133,-14,o),
(305,-14,c)
);
},
{
closed = 1;
nodes = (
(231,132,o),
(194,193,o),
(194,278,c),
(194,432,o),
(280,558,o),
(400,558,c),
(496,558,o),
(533,497,o),
(533,412,c),
(533,258,o),
(447,132,o),
(327,132,c)
);
}
);
};
layerId = "935096DB-18C6-4F5A-A149-9E36F9702B37";
shapes = (
{
closed = 1;
nodes = (
(536,-14,o),
(696,185,o),
(696,424,c),
(696,584,o),
(595,704,o),
(422,704,c),
(192,704,o),
(31,506,o),
(31,267,c),
(31,107,o),
(133,-14,o),
(305,-14,c)
);
},
{
closed = 1;
nodes = (
(231,132,o),
(194,193,o),
(194,278,c),
(194,432,o),
(280,558,o),
(400,558,c),
(496,558,o),
(533,497,o),
(533,412,c),
(533,258,o),
(447,132,o),
(327,132,c)
);
}
);
width = 727;
}
);
unicode = 79;
},
{
color = 10;
glyphname = Oacute;
kernLeft = O;
kernRight = O;
lastChange = "2024-03-21 14:21:18 +0000";
layers = (
{
background = {
shapes = (
{
closed = 1;
nodes = (
(499,-10,o),
(661,190,o),
(661,441,cs),
(661,594,o),
(564,700,o),
(409,700,c),
(198,700,o),
(36,499,o),
(36,248,cs),
(36,94,o),
(132,-10,o),
(287,-10,c)
);
},
{
closed = 1;
nodes = (
(198,88,o),
(144,146,o),
(144,254,cs),
(144,444,o),
(253,602,o),
(393,602,c),
(498,602,o),
(553,543,o),
(553,434,cs),
(553,244,o),
(444,88,o),
(304,88,c)
);
},
{
closed = 1;
nodes = (
(467,735,l),
(625,845,l),
(490,845,l),
(366,735,l)
);
}
);
};
layerId = m001;
shapes = (
{
ref = O;
},
{
pos = (99,0);
ref = acutecomb.case;
}
);
width = 697;
},
{
background = {
shapes = (
{
closed = 1;
nodes = (
(536,-14,o),
(696,185,o),
(696,424,c),
(696,584,o),
(595,704,o),
(422,704,c),
(192,704,o),
(31,506,o),
(31,267,c),
(31,107,o),
(133,-14,o),
(305,-14,c)
);
},
{
closed = 1;
nodes = (
(231,132,o),
(194,193,o),
(194,278,c),
(194,432,o),
(280,558,o),
(400,558,c),
(496,558,o),
(533,497,o),
(533,412,c),
(533,258,o),
(447,132,o),
(327,132,c)
);
},
{
closed = 1;
nodes = (
(499,735,l),
(675,850,l),
(502,850,l),
(374,735,l)
);
}
);
};
layerId = "935096DB-18C6-4F5A-A149-9E36F9702B37";
shapes = (
{
ref = O;
},
{
pos = (116,0);
ref = acutecomb.case;
}
);
width = 727;
}
);
unicode = 211;
},
{
color = 10;
glyphname = Obreve;
kernLeft = O;
kernRight = O;
lastChange = "2024-03-21 14:00:11 +0000";
layers = (
{
background = {
shapes = (
{
closed = 1;
nodes = (
(499,-10,o),
(661,190,o),
(661,441,cs),
(661,594,o),
(564,700,o),
(409,700,c),
(198,700,o),
(36,499,o),
(36,248,cs),
(36,94,o),
(132,-10,o),
(287,-10,c)
);
},
{
closed = 1;
nodes = (
(198,88,o),
(144,146,o),
(144,254,cs),
(144,444,o),
(253,602,o),
(393,602,c),
(498,602,o),
(553,543,o),
(553,434,cs),
(553,244,o),
(444,88,o),
(304,88,c)
);
},
{
closed = 1;
nodes = (
(540,735,o),
(587,777,o),
(605,845,c),
(535,845,l),
(527,820,o),
(500,805,o),
(443,805,c),
(391,805,o),
(375,818,o),
(375,841,cs),
(375,845,l),
(305,845,l),
(304,838,o),
(304,833,o),
(304,828,cs),
(304,773,o),
(352,735,o),
(440,735,c)
);
}
);
};
layerId = m001;
shapes = (
{
ref = O;
},
{
pos = (98,0);
ref = brevecomb.case;
}
);
width = 697;
},
{
background = {
shapes = (
{
closed = 1;
nodes = (
(536,-14,o),
(696,185,o),
(696,424,c),
(696,584,o),
(595,704,o),
(422,704,c),
(192,704,o),
(31,506,o),
(31,267,c),
(31,107,o),
(133,-14,o),
(305,-14,c)
);
},
{
closed = 1;
nodes = (
(231,132,o),
(194,193,o),
(194,278,c),
(194,432,o),
(280,558,o),
(400,558,c),
(496,558,o),
(533,497,o),
(533,412,c),
(533,258,o),
(447,132,o),
(327,132,c)
);
},
{
closed = 1;
nodes = (
(562,730,o),
(615,779,o),
(631,850,c),
(534,850,l),
(526,827,o),
(504,814,o),
(463,814,c),
(422,814,o),
(410,827,o),
(410,850,c),
(313,850,l),
(312,843,o),
(311,837,o),
(311,831,cs),
(311,770,o),
(364,730,o),
(458,730,c)
);
}
);
};
layerId = "935096DB-18C6-4F5A-A149-9E36F9702B37";
shapes = (
{
ref = O;
},
{
pos = (114,0);
ref = brevecomb.case;
}
);
width = 727;
}
);
unicode = 334;
},
{
color = 10;
glyphname = Ocircumflex;
kernLeft = O;
kernRight = O;
lastChange = "2024-03-21 14:00:11 +0000";
layers = (
{
background = {
shapes = (
{
closed = 1;
nodes = (
(499,-10,o),
(661,190,o),
(661,441,cs),
(661,594,o),
(564,700,o),
(409,700,c),
(198,700,o),
(36,499,o),
(36,248,cs),
(36,94,o),
(132,-10,o),
(287,-10,c)
);
},
{
closed = 1;
nodes = (
(198,88,o),
(144,146,o),
(144,254,cs),
(144,444,o),
(253,602,o),
(393,602,c),
(498,602,o),
(553,543,o),
(553,434,cs),
(553,244,o),
(444,88,o),
(304,88,c)
);
},
{
closed = 1;
nodes = (
(355,735,l),
(476,814,l),
(491,845,l),
(386,845,l),
(248,735,l)
);
},
{
closed = 1;
nodes = (
(614,735,l),
(524,845,l),
(419,845,l),
(433,814,l),
(521,735,l)
);
}
);
};
layerId = m001;
shapes = (
{
ref = O;
},
{
pos = (98,0);
ref = circumflexcomb.case;
}
);
width = 697;
},
{
background = {
shapes = (
{
closed = 1;
nodes = (
(536,-14,o),
(696,185,o),
(696,424,c),
(696,584,o),
(595,704,o),
(422,704,c),
(192,704,o),
(31,506,o),
(31,267,c),
(31,107,o),
(133,-14,o),
(305,-14,c)
);
},
{
closed = 1;
nodes = (
(231,132,o),
(194,193,o),
(194,278,c),
(194,432,o),
(280,558,o),
(400,558,c),
(496,558,o),
(533,497,o),
(533,412,c),
(533,258,o),
(447,132,o),
(327,132,c)
);
},
{
closed = 1;
nodes = (
(380,735,l),
(495,812,l),
(517,850,l),
(388,850,l),
(253,735,l)
);
},
{
closed = 1;
nodes = (
(641,735,l),
(556,850,l),
(427,850,l),
(443,812,l),
(524,735,l)
);
}
);
};
layerId = "935096DB-18C6-4F5A-A149-9E36F9702B37";
shapes = (
{
ref = O;
},
{
pos = (114,0);
ref = circumflexcomb.case;
}
);
width = 727;
}
);
unicode = 212;
},
{
color = 10;
glyphname = Odieresis;
kernLeft = O;
kernRight = O;
lastChange = "2024-03-21 14:00:11 +0000";
layers = (
{
background = {
shapes = (
{
closed = 1;
nodes = (
(499,-10,o),
(661,190,o),
(661,441,cs),
(661,594,o),
(564,700,o),
(409,700,c),
(198,700,o),
(36,499,o),
(36,248,cs),
(36,94,o),
(132,-10,o),
(287,-10,c)
);
},
{
closed = 1;
nodes = (
(198,88,o),
(144,146,o),
(144,254,cs),
(144,444,o),
(253,602,o),
(393,602,c),
(498,602,o),
(553,543,o),
(553,434,cs),
(553,244,o),
(444,88,o),
(304,88,c)
);
},
{
closed = 1;
nodes = (
(373,742,o),
(399,767,o),
(399,802,c),
(399,834,o),
(378,855,o),
(347,855,c),
(312,855,o),
(287,830,o),
(287,793,c),
(287,763,o),
(308,742,o),
(338,742,c)
);
},
{
closed = 1;
nodes = (
(576,742,o),
(602,767,o),
(602,802,c),
(602,834,o),
(581,855,o),
(550,855,c),
(515,855,o),
(490,830,o),
(490,793,c),
(490,763,o),
(511,742,o),
(541,742,c)
);
}
);
};
layerId = m001;
shapes = (
{
ref = O;
},
{
pos = (99,0);
ref = dieresiscomb.case;
}
);
width = 697;
},
{
background = {
shapes = (
{
closed = 1;
nodes = (
(536,-14,o),
(696,185,o),
(696,424,c),
(696,584,o),
(595,704,o),
(422,704,c),
(192,704,o),
(31,506,o),
(31,267,c),
(31,107,o),
(133,-14,o),
(305,-14,c)
);
},
{
closed = 1;
nodes = (
(231,132,o),
(194,193,o),
(194,278,c),
(194,432,o),
(280,558,o),
(400,558,c),
(496,558,o),
(533,497,o),
(533,412,c),
(533,258,o),
(447,132,o),
(327,132,c)
);
},
{
closed = 1;
nodes = (
(390,742,o),
(422,770,o),
(422,813,c),
(422,850,o),
(398,873,o),
(357,873,c),
(315,873,o),
(283,845,o),
(283,802,c),
(283,765,o),
(306,742,o),
(348,742,c)
);
},
{
closed = 1;
nodes = (
(610,742,o),
(642,770,o),
(642,813,c),
(642,850,o),
(618,873,o),
(577,873,c),
(535,873,o),
(503,845,o),
(503,802,c),
(503,765,o),
(526,742,o),
(568,742,c)
);
}
);
};
layerId = "935096DB-18C6-4F5A-A149-9E36F9702B37";
shapes = (
{
ref = O;
},
{
pos = (114,0);
ref = dieresiscomb.case;
}
);
width = 727;
}
);
unicode = 214;
},
{
color = 10;
glyphname = Odotbelow;
kernLeft = O;
kernRight = O;
lastChange = "2024-03-21 14:00:11 +0000";
layers = (
{
background = {
shapes = (
{
closed = 1;
nodes = (
(499,-10,o),
(661,190,o),
(661,441,cs),
(661,594,o),
(564,700,o),
(409,700,c),
(198,700,o),
(36,499,o),
(36,248,cs),
(36,94,o),
(132,-10,o),
(287,-10,c)
);
},
{
closed = 1;
nodes = (
(279,-195,o),
(307,-168,o),
(307,-130,c),
(307,-95,o),
(284,-72,o),
(250,-72,c),
(212,-72,o),
(185,-99,o),
(185,-140,c),
(185,-172,o),
(208,-195,o),
(241,-195,c)
);
},
{
closed = 1;
nodes = (
(198,88,o),
(144,146,o),
(144,254,cs),
(144,444,o),
(253,602,o),
(393,602,c),
(498,602,o),
(553,543,o),
(553,434,cs),
(553,244,o),
(444,88,o),
(304,88,c)
);
}
);
};
layerId = m001;
shapes = (
{
ref = O;
},
{
pos = (99,0);
ref = dotbelow;
}
);
width = 697;
},
{
background = {
shapes = (
{
closed = 1;
nodes = (
(536,-14,o),
(696,185,o),
(696,424,c),
(696,584,o),
(595,704,o),
(422,704,c),
(192,704,o),
(31,506,o),
(31,267,c),
(31,107,o),
(133,-14,o),
(305,-14,c)
);
},
{
closed = 1;
nodes = (
(305,-198,o),
(341,-166,o),
(341,-117,c),
(341,-75,o),
(314,-48,o),
(270,-48,c),
(225,-48,o),
(189,-80,o),
(189,-130,c),
(189,-171,o),
(216,-198,o),
(260,-198,c)
);
},
{
closed = 1;
nodes = (
(231,132,o),
(194,193,o),
(194,278,c),
(194,432,o),
(280,558,o),
(400,558,c),
(496,558,o),
(533,497,o),
(533,412,c),
(533,258,o),
(447,132,o),
(327,132,c)
);
}
);
};
layerId = "935096DB-18C6-4F5A-A149-9E36F9702B37";
shapes = (
{
ref = O;
},
{
pos = (114,0);
ref = dotbelow;
}
);
width = 727;
}
);
unicode = 7884;
},
{
color = 10;
glyphname = Ograve;
kernLeft = O;
kernRight = O;
lastChange = "2024-03-21 14:00:11 +0000";
layers = (
{
background = {
shapes = (
{
closed = 1;
nodes = (
(499,-10,o),
(661,190,o),
(661,441,cs),
(661,594,o),
(564,700,o),
(409,700,c),
(198,700,o),
(36,499,o),
(36,248,cs),
(36,94,o),
(132,-10,o),
(287,-10,c)
);
},
{
closed = 1;
nodes = (
(198,88,o),
(144,146,o),
(144,254,cs),
(144,444,o),
(253,602,o),
(393,602,c),
(498,602,o),
(553,543,o),
(553,434,cs),
(553,244,o),
(444,88,o),
(304,88,c)
);
},
{
closed = 1;
nodes = (
(490,735,l),
(414,845,l),
(289,845,l),
(402,735,l)
);
}
);
};
layerId = m001;
shapes = (
{
ref = O;
},
{
pos = (98,0);
ref = gravecomb.case;
}
);
width = 697;
},
{
background = {
shapes = (
{
closed = 1;
nodes = (
(536,-14,o),
(696,185,o),
(696,424,c),
(696,584,o),
(595,704,o),
(422,704,c),
(192,704,o),
(31,506,o),
(31,267,c),
(31,107,o),
(133,-14,o),
(305,-14,c)
);
},
{
closed = 1;
nodes = (
(231,132,o),
(194,193,o),
(194,278,c),
(194,432,o),
(280,558,o),
(400,558,c),
(496,558,o),
(533,497,o),
(533,412,c),
(533,258,o),
(447,132,o),
(327,132,c)
);
},
{
closed = 1;
nodes = (
(513,735,l),
(435,850,l),
(274,850,l),
(403,735,l)
);
}
);
};
layerId = "935096DB-18C6-4F5A-A149-9E36F9702B37";
shapes = (
{
ref = O;
},
{
pos = (113,0);
ref = gravecomb.case;
}
);
width = 727;
}
);
unicode = 210;
},
{
color = 10;
glyphname = Ohungarumlaut;
kernLeft = O;
kernRight = O;
lastChange = "2024-03-21 14:00:11 +0000";
layers = (
{
background = {
shapes = (
{
closed = 1;
nodes = (
(499,-10,o),
(661,190,o),
(661,441,cs),
(661,594,o),
(564,700,o),
(409,700,c),
(198,700,o),
(36,499,o),
(36,248,cs),
(36,94,o),
(132,-10,o),
(287,-10,c)
);
},
{
closed = 1;
nodes = (
(198,88,o),
(144,146,o),
(144,254,cs),
(144,444,o),
(253,602,o),
(393,602,c),
(498,602,o),
(553,543,o),
(553,434,cs),
(553,244,o),
(444,88,o),
(304,88,c)
);
},
{
closed = 1;
nodes = (
(406,735,l),
(527,845,l),
(411,845,l),
(318,735,l)
);
},
{
closed = 1;
nodes = (
(553,735,l),
(712,845,l),
(588,845,l),
(464,735,l)
);
}
);
};
layerId = m001;
shapes = (
{
ref = O;
},
{
pos = (99,0);
ref = hungarumlautcomb.case;
}
);
width = 697;
},
{
background = {
shapes = (
{
closed = 1;
nodes = (
(536,-14,o),
(696,185,o),
(696,424,c),
(696,584,o),
(595,704,o),
(422,704,c),
(192,704,o),
(31,506,o),
(31,267,c),
(31,107,o),
(133,-14,o),
(305,-14,c)
);
},
{
closed = 1;
nodes = (
(231,132,o),
(194,193,o),
(194,278,c),
(194,432,o),
(280,558,o),
(400,558,c),
(496,558,o),
(533,497,o),
(533,412,c),
(533,258,o),
(447,132,o),
(327,132,c)
);
},
{
closed = 1;
nodes = (
(432,735,l),
(565,850,l),
(420,850,l),
(324,735,l)
);
},
{
closed = 1;
nodes = (
(585,735,l),
(761,850,l),
(606,850,l),
(472,735,l)
);
}
);
};
layerId = "935096DB-18C6-4F5A-A149-9E36F9702B37";
shapes = (
{
ref = O;
},
{
pos = (115,0);
ref = hungarumlautcomb.case;
}
);
width = 727;
}
);
unicode = 336;
},
{
color = 10;
glyphname = Omacron;
kernLeft = O;
kernRight = O;
lastChange = "2024-03-21 14:00:11 +0000";
layers = (
{
background = {
shapes = (
{
closed = 1;
nodes = (
(499,-10,o),
(661,190,o),
(661,441,cs),
(661,594,o),
(564,700,o),
(409,700,c),
(198,700,o),
(36,499,o),
(36,248,cs),
(36,94,o),
(132,-10,o),
(287,-10,c)
);
},
{
closed = 1;
nodes = (
(198,88,o),
(144,146,o),
(144,254,cs),
(144,444,o),
(253,602,o),
(393,602,c),
(498,602,o),
(553,543,o),
(553,434,cs),
(553,244,o),
(444,88,o),
(304,88,c)
);
},
{
closed = 1;
nodes = (
(593,753,l),
(611,837,l),
(295,837,l),
(277,753,l)
);
}
);
};
layerId = m001;
shapes = (
{
ref = O;
},
{
pos = (99,0);
ref = macroncomb.case;
}
);
width = 697;
},
{
background = {
shapes = (
{
closed = 1;
nodes = (
(536,-14,o),
(696,185,o),
(696,424,c),
(696,584,o),
(595,704,o),
(422,704,c),
(192,704,o),
(31,506,o),
(31,267,c),
(31,107,o),
(133,-14,o),
(305,-14,c)
);
},
{
closed = 1;
nodes = (
(231,132,o),
(194,193,o),
(194,278,c),
(194,432,o),
(280,558,o),
(400,558,c),
(496,558,o),
(533,497,o),
(533,412,c),
(533,258,o),
(447,132,o),
(327,132,c)
);
},
{
closed = 1;
nodes = (
(612,735,l),
(637,850,l),
(307,850,l),
(282,735,l)
);
}
);
};
layerId = "935096DB-18C6-4F5A-A149-9E36F9702B37";
shapes = (
{
ref = O;
},
{
pos = (115,0);
ref = macroncomb.case;
}
);
width = 727;
}
);
unicode = 332;
},
{
color = 10;
glyphname = Oogonek;
kernLeft = O;
kernRight = O;
lastChange = "2024-03-21 14:03:31 +0000";
layers = (
{
background = {
shapes = (
{
closed = 1;
nodes = (
(275,-185,o),
(312,-176,o),
(334,-165,c),
(342,-84,l),
(317,-96,o),
(286,-106,o),
(260,-106,c),
(249,-106,o),
(243,-101,o),
(243,-93,cs),
(243,-72,o),
(286,-27,o),
(386,5,cs),
(548,57,o),
(661,231,o),
(661,441,cs),
(661,594,o),
(564,700,o),
(409,700,c),
(198,700,o),
(36,499,o),
(36,248,cs),
(36,94,o),
(132,-10,o),
(287,-10,c),
(275,0,l),
(184,-35,o),
(155,-74,o),
(155,-118,c),
(155,-155,o),
(181,-185,o),
(243,-185,c)
);
},
{
closed = 1;
nodes = (
(198,88,o),
(144,146,o),
(144,254,cs),
(144,444,o),
(253,602,o),
(393,602,c),
(498,602,o),
(553,543,o),
(553,434,cs),
(553,244,o),
(444,88,o),
(304,88,c)
);
}
);
};
layerId = m001;
shapes = (
{
ref = O;
},
{
pos = (137,0);
ref = ogonekcomb;
}
);
width = 697;
},
{
background = {
shapes = (
{
closed = 1;
nodes = (
(291,-190,o),
(326,-183,o),
(357,-170,c),
(368,-75,l),
(346,-87,o),
(318,-96,o),
(299,-96,c),
(286,-96,o),
(279,-90,o),
(279,-82,cs),
(279,-65,o),
(302,-29,o),
(398,-3,cs),
(577,45,o),
(696,218,o),
(696,424,c),
(696,584,o),
(595,704,o),
(422,704,c),
(192,704,o),
(31,506,o),
(31,267,c),
(31,107,o),
(133,-14,o),
(305,-14,c),
(292,-2,l),
(195,-36,o),
(164,-82,o),
(164,-121,c),
(164,-158,o),
(194,-190,o),
(263,-190,c)
);
},
{
closed = 1;
nodes = (
(231,132,o),
(194,193,o),
(194,278,c),
(194,432,o),
(280,558,o),
(400,558,c),
(496,558,o),
(533,497,o),
(533,412,c),
(533,258,o),
(447,132,o),
(327,132,c)
);
}
);
};
layerId = "935096DB-18C6-4F5A-A149-9E36F9702B37";
shapes = (
{
ref = O;
},
{
pos = (142,0);
ref = ogonekcomb;
}
);
width = 727;
}
);
unicode = 490;
},
{
color = 6;
glyphname = Oslash;
kernLeft = C;
kernRight = D;
lastChange = "2024-03-21 14:00:11 +0000";
layers = (
{
anchors = (
{
name = top;
pos = (422,690);
}
);
background = {
anchors = (
{
name = top;
pos = (422,690);
}
);
shapes = (
{
closed = 1;
nodes = (
(499,-10,o),
(661,190,o),
(661,441,cs),
(661,594,o),
(564,700,o),
(409,700,c),
(198,700,o),
(36,499,o),
(36,248,cs),
(36,94,o),
(132,-10,o),
(287,-10,c)
);
},
{
closed = 1;
nodes = (
(50,0,l),
(767,690,l),
(648,690,l),
(-69,0,l)
);
},
{
closed = 1;
nodes = (
(198,88,o),
(144,146,o),
(144,254,cs),
(144,444,o),
(253,602,o),
(393,602,c),
(498,602,o),
(553,543,o),
(553,434,cs),
(553,244,o),
(444,88,o),
(304,88,c)
);
}
);
};
layerId = m001;
shapes = (
{
closed = 1;
nodes = (
(499,-10,o),
(661,190,o),
(661,441,cs),
(661,594,o),
(564,700,o),
(409,700,c),
(198,700,o),
(36,499,o),
(36,248,cs),
(36,94,o),
(132,-10,o),
(287,-10,c)
);
},
{
closed = 1;
nodes = (
(50,0,l),
(767,690,l),
(648,690,l),
(-69,0,l)
);
},
{
closed = 1;
nodes = (
(198,88,o),
(144,146,o),
(144,254,cs),
(144,444,o),
(253,602,o),
(393,602,c),
(498,602,o),
(553,543,o),
(553,434,cs),
(553,244,o),
(444,88,o),
(304,88,c)
);
}
);
width = 696;
},
{
anchors = (
{
name = top;
pos = (437,690);
}
);
background = {
anchors = (
{
name = top;
pos = (437,690);
}
);
shapes = (
{
closed = 1;
nodes = (
(536,-14,o),
(696,185,o),
(696,424,c),
(696,584,o),
(595,704,o),
(422,704,c),
(192,704,o),
(31,506,o),
(31,267,c),
(31,107,o),
(133,-14,o),
(305,-14,c)
);
},
{
closed = 1;
nodes = (
(102,0,l),
(800,690,l),
(625,690,l),
(-73,0,l)
);
},
{
closed = 1;
nodes = (
(231,132,o),
(194,193,o),
(194,278,c),
(194,432,o),
(280,558,o),
(400,558,c),
(496,558,o),
(533,497,o),
(533,412,c),
(533,258,o),
(447,132,o),
(327,132,c)
);
}
);
};
layerId = "935096DB-18C6-4F5A-A149-9E36F9702B37";
shapes = (
{
closed = 1;
nodes = (
(536,-14,o),
(696,185,o),
(696,424,c),
(696,584,o),
(595,704,o),
(422,704,c),
(192,704,o),
(31,506,o),
(31,267,c),
(31,107,o),
(133,-14,o),
(305,-14,c)
);
},
{
closed = 1;
nodes = (
(102,0,l),
(800,690,l),
(625,690,l),
(-73,0,l)
);
},
{
closed = 1;
nodes = (
(231,132,o),
(194,193,o),
(194,278,c),
(194,432,o),
(280,558,o),
(400,558,c),
(496,558,o),
(533,497,o),
(533,412,c),
(533,258,o),
(447,132,o),
(327,132,c)
);
}
);
width = 725;
}
);
unicode = 216;
},
{
color = 10;
glyphname = Oslashacute;
kernLeft = C;
kernRight = D;
lastChange = "2024-03-21 14:21:18 +0000";
layers = (
{
background = {
shapes = (
{
closed = 1;
nodes = (
(499,-10,o),
(661,190,o),
(661,441,cs),
(661,594,o),
(564,700,o),
(409,700,c),
(198,700,o),
(36,499,o),
(36,248,cs),
(36,94,o),
(132,-10,o),
(287,-10,c)
);
},
{
closed = 1;
nodes = (
(50,0,l),
(767,690,l),
(648,690,l),
(-69,0,l)
);
},
{
closed = 1;
nodes = (
(198,88,o),
(144,146,o),
(144,254,cs),
(144,444,o),
(253,602,o),
(393,602,c),
(498,602,o),
(553,543,o),
(553,434,cs),
(553,244,o),
(444,88,o),
(304,88,c)
);
},
{
closed = 1;
nodes = (
(467,735,l),
(625,845,l),
(490,845,l),
(366,735,l)
);
}
);
};
layerId = m001;
shapes = (
{
ref = Oslash;
},
{
pos = (99,0);
ref = acutecomb.case;
}
);
width = 696;
},
{
background = {
shapes = (
{
closed = 1;
nodes = (
(536,-14,o),
(696,185,o),
(696,424,c),
(696,584,o),
(595,704,o),
(422,704,c),
(192,704,o),
(31,506,o),
(31,267,c),
(31,107,o),
(133,-14,o),
(305,-14,c)
);
},
{
closed = 1;
nodes = (
(102,0,l),
(800,690,l),
(625,690,l),
(-73,0,l)
);
},
{
closed = 1;
nodes = (
(231,132,o),
(194,193,o),
(194,278,c),
(194,432,o),
(280,558,o),
(400,558,c),
(496,558,o),
(533,497,o),
(533,412,c),
(533,258,o),
(447,132,o),
(327,132,c)
);
},
{
closed = 1;
nodes = (
(498,735,l),
(674,850,l),
(501,850,l),
(373,735,l)
);
}
);
};
layerId = "935096DB-18C6-4F5A-A149-9E36F9702B37";
shapes = (
{
ref = Oslash;
},
{
pos = (115,0);
ref = acutecomb.case;
}
);
width = 725;
}
);
unicode = 510;
},
{
color = 10;
glyphname = Otilde;
kernLeft = O;
kernRight = O;
lastChange = "2024-03-21 14:00:11 +0000";
layers = (
{
background = {
shapes = (
{
closed = 1;
nodes = (
(499,-10,o),
(661,190,o),
(661,441,cs),
(661,594,o),
(564,700,o),
(409,700,c),
(198,700,o),
(36,499,o),
(36,248,cs),
(36,94,o),
(132,-10,o),
(287,-10,c)
);
},
{
closed = 1;
nodes = (
(198,88,o),
(144,146,o),
(144,254,cs),
(144,444,o),
(253,602,o),
(393,602,c),
(498,602,o),
(553,543,o),
(553,434,cs),
(553,244,o),
(444,88,o),
(304,88,c)
);
},
{
closed = 1;
nodes = (
(341,735,l),
(343,757,o),
(356,773,o),
(379,773,c),
(415,773,o),
(442,735,o),
(499,735,c),
(562,735,o),
(601,777,o),
(613,845,c),
(545,845,l),
(543,823,o),
(530,807,o),
(507,807,c),
(472,807,o),
(444,845,o),
(387,845,c),
(324,845,o),
(285,803,o),
(273,735,c)
);
}
);
};
layerId = m001;
shapes = (
{
ref = O;
},
{
pos = (99,0);
ref = tildecomb.case;
}
);
width = 697;
},
{
background = {
shapes = (
{
closed = 1;
nodes = (
(536,-14,o),
(696,185,o),
(696,424,c),
(696,584,o),
(595,704,o),
(422,704,c),
(192,704,o),
(31,506,o),
(31,267,c),
(31,107,o),
(133,-14,o),
(305,-14,c)
);
},
{
closed = 1;
nodes = (
(231,132,o),
(194,193,o),
(194,278,c),
(194,432,o),
(280,558,o),
(400,558,c),
(496,558,o),
(533,497,o),
(533,412,c),
(533,258,o),
(447,132,o),
(327,132,c)
);
},
{
closed = 1;
nodes = (
(364,735,l),
(365,761,o),
(381,772,o),
(398,772,c),
(431,772,o),
(453,735,o),
(518,735,c),
(581,735,o),
(628,781,o),
(640,854,c),
(556,854,l),
(555,828,o),
(539,817,o),
(522,817,c),
(491,817,o),
(467,854,o),
(402,854,c),
(338,854,o),
(291,808,o),
(280,735,c)
);
}
);
};
layerId = "935096DB-18C6-4F5A-A149-9E36F9702B37";
shapes = (
{
ref = O;
},
{
pos = (114,0);
ref = tildecomb.case;
}
);
width = 727;
}
);
unicode = 213;
},
{
color = 6;
glyphname = OE;
kernLeft = O;
kernRight = E;
lastChange = "2024-03-21 14:00:11 +0000";
layers = (
{
background = {
shapes = (
{
closed = 1;
nodes = (
(464,0,l),
(485,96,l),
(326,96,ls),
(191,96,o),
(144,153,o),
(144,256,cs),
(144,441,o),
(252,594,o),
(432,594,cs),
(591,594,l),
(611,690,l),
(442,690,ls),
(190,690,o),
(36,494,o),
(36,249,cs),
(36,102,o),
(139,0,o),
(303,0,cs)
);
},
{
closed = 1;
nodes = (
(879,0,l),
(899,96,l),
(479,96,l),
(459,0,l)
);
},
{
closed = 1;
nodes = (
(514,0,l),
(661,690,l),
(556,690,l),
(409,0,l)
);
},
{
closed = 1;
nodes = (
(879,306,l),
(899,402,l),
(544,402,l),
(524,306,l)
);
},
{
closed = 1;
nodes = (
(1000,594,l),
(1021,690,l),
(606,690,l),
(585,594,l)
);
}
);
};
layerId = m001;
shapes = (
{
closed = 1;
nodes = (
(464,0,l),
(485,96,l),
(326,96,ls),
(191,96,o),
(144,153,o),
(144,256,cs),
(144,441,o),
(252,594,o),
(432,594,cs),
(591,594,l),
(611,690,l),
(442,690,ls),
(190,690,o),
(36,494,o),
(36,249,cs),
(36,102,o),
(139,0,o),
(303,0,cs)
);
},
{
closed = 1;
nodes = (
(879,0,l),
(899,96,l),
(479,96,l),
(459,0,l)
);
},
{
closed = 1;
nodes = (
(514,0,l),
(661,690,l),
(556,690,l),
(409,0,l)
);
},
{
closed = 1;
nodes = (
(879,306,l),
(899,402,l),
(544,402,l),
(524,306,l)
);
},
{
closed = 1;
nodes = (
(1000,594,l),
(1021,690,l),
(606,690,l),
(585,594,l)
);
}
);
width = 998;
},
{
background = {
shapes = (
{
closed = 1;
nodes = (
(488,0,l),
(519,145,l),
(324,145,l),
(228,145,o),
(193,202,o),
(193,278,c),
(193,424,o),
(277,545,o),
(412,545,c),
(604,545,l),
(635,690,l),
(433,690,l),
(187,690,o),
(32,497,o),
(32,266,c),
(32,115,o),
(131,0,o),
(304,0,c)
);
},
{
closed = 1;
nodes = (
(896,0,l),
(927,145,l),
(500,145,l),
(469,0,l)
);
},
{
closed = 1;
nodes = (
(556,0,l),
(703,690,l),
(548,690,l),
(401,0,l)
);
},
{
closed = 1;
nodes = (
(909,282,l),
(938,419,l),
(558,419,l),
(529,282,l)
);
},
{
closed = 1;
nodes = (
(1008,545,l),
(1039,690,l),
(616,690,l),
(585,545,l)
);
}
);
};
layerId = "935096DB-18C6-4F5A-A149-9E36F9702B37";
shapes = (
{
closed = 1;
nodes = (
(488,0,l),
(519,145,l),
(324,145,l),
(228,145,o),
(193,202,o),
(193,278,c),
(193,424,o),
(277,545,o),
(412,545,c),
(604,545,l),
(635,690,l),
(433,690,l),
(187,690,o),
(32,497,o),
(32,266,c),
(32,115,o),
(131,0,o),
(304,0,c)
);
},
{
closed = 1;
nodes = (
(896,0,l),
(927,145,l),
(500,145,l),
(469,0,l)
);
},
{
closed = 1;
nodes = (
(556,0,l),
(703,690,l),
(548,690,l),
(401,0,l)
);
},
{
closed = 1;
nodes = (
(909,282,l),
(938,419,l),
(558,419,l),
(529,282,l)
);
},
{
closed = 1;
nodes = (
(1008,545,l),
(1039,690,l),
(616,690,l),
(585,545,l)
);
}
);
width = 1004;
}
);
unicode = 338;
},
{
color = 6;
glyphname = P;
kernLeft = H;
kernRight = P;
lastChange = "2024-03-21 14:00:11 +0000";
layers = (
{
background = {
shapes = (
{
closed = 1;
nodes = (
(300,240,l),
(496,240,o),
(611,348,o),
(611,500,c),
(611,617,o),
(519,690,o),
(395,690,c),
(199,690,l),
(178,594,l),
(371,594,l),
(460,594,o),
(504,559,o),
(504,493,c),
(504,410,o),
(446,336,o),
(312,336,c),
(123,336,l),
(103,240,l)
);
},
{
closed = 1;
nodes = (
(107,0,l),
(254,690,l),
(149,690,l),
(2,0,l)
);
}
);
};
layerId = m001;
shapes = (
{
closed = 1;
nodes = (
(300,240,l),
(496,240,o),
(611,348,o),
(611,500,c),
(611,617,o),
(519,690,o),
(395,690,c),
(199,690,l),
(178,594,l),
(371,594,l),
(460,594,o),
(504,559,o),
(504,493,c),
(504,410,o),
(446,336,o),
(312,336,c),
(123,336,l),
(103,240,l)
);
},
{
closed = 1;
nodes = (
(107,0,l),
(254,690,l),
(149,690,l),
(2,0,l)
);
}
);
width = 612;
},
{
background = {
shapes = (
{
closed = 1;
nodes = (
(306,213,l),
(517,213,o),
(637,337,o),
(637,491,c),
(637,611,o),
(551,690,o),
(400,690,c),
(204,690,l),
(173,545,l),
(372,545,l),
(446,545,o),
(477,515,o),
(477,469,c),
(477,403,o),
(432,358,o),
(327,358,c),
(133,358,l),
(102,213,l)
);
},
{
closed = 1;
nodes = (
(144,0,l),
(291,690,l),
(136,690,l),
(-11,0,l)
);
}
);
};
layerId = "935096DB-18C6-4F5A-A149-9E36F9702B37";
shapes = (
{
closed = 1;
nodes = (
(306,213,l),
(517,213,o),
(637,337,o),
(637,491,c),
(637,611,o),
(551,690,o),
(400,690,c),
(204,690,l),
(173,545,l),
(372,545,l),
(446,545,o),
(477,515,o),
(477,469,c),
(477,403,o),
(432,358,o),
(327,358,c),
(133,358,l),
(102,213,l)
);
},
{
closed = 1;
nodes = (
(144,0,l),
(291,690,l),
(136,690,l),
(-11,0,l)
);
}
);
width = 631;
}
);
unicode = 80;
},
{
color = 6;
glyphname = Thorn;
kernLeft = H;
lastChange = "2024-03-21 14:00:11 +0000";
layers = (
{
background = {
shapes = (
{
closed = 1;
nodes = (
(276,125,l),
(472,125,o),
(587,233,o),
(587,385,c),
(587,502,o),
(495,575,o),
(371,575,c),
(175,575,l),
(154,479,l),
(347,479,l),
(436,479,o),
(480,444,o),
(480,378,c),
(480,295,o),
(422,221,o),
(288,221,c),
(99,221,l),
(79,125,l)
);
},
{
closed = 1;
nodes = (
(107,0,l),
(254,690,l),
(149,690,l),
(2,0,l)
);
}
);
};
layerId = m001;
shapes = (
{
closed = 1;
nodes = (
(276,125,l),
(472,125,o),
(587,233,o),
(587,385,c),
(587,502,o),
(495,575,o),
(371,575,c),
(175,575,l),
(154,479,l),
(347,479,l),
(436,479,o),
(480,444,o),
(480,378,c),
(480,295,o),
(422,221,o),
(288,221,c),
(99,221,l),
(79,125,l)
);
},
{
closed = 1;
nodes = (
(107,0,l),
(254,690,l),
(149,690,l),
(2,0,l)
);
}
);
width = 614;
},
{
background = {
shapes = (
{
closed = 1;
nodes = (
(284,110,l),
(495,110,o),
(615,234,o),
(615,388,c),
(615,508,o),
(529,587,o),
(378,587,c),
(182,587,l),
(151,442,l),
(350,442,l),
(424,442,o),
(455,412,o),
(455,366,c),
(455,300,o),
(410,255,o),
(305,255,c),
(111,255,l),
(80,110,l)
);
},
{
closed = 1;
nodes = (
(144,0,l),
(291,690,l),
(136,690,l),
(-11,0,l)
);
}
);
};
layerId = "935096DB-18C6-4F5A-A149-9E36F9702B37";
shapes = (
{
closed = 1;
nodes = (
(284,110,l),
(495,110,o),
(615,234,o),
(615,388,c),
(615,508,o),
(529,587,o),
(378,587,c),
(182,587,l),
(151,442,l),
(350,442,l),
(424,442,o),
(455,412,o),
(455,366,c),
(455,300,o),
(410,255,o),
(305,255,c),
(111,255,l),
(80,110,l)
);
},
{
closed = 1;
nodes = (
(144,0,l),
(291,690,l),
(136,690,l),
(-11,0,l)
);
}
);
width = 632;
}
);
unicode = 222;
},
{
color = 6;
glyphname = Q;
kernLeft = O;
kernRight = O;
lastChange = "2024-03-21 14:00:11 +0000";
layers = (
{
anchors = (
{
name = bottom;
pos = (275,0);
},
{
name = top;
pos = (422,690);
}
);
background = {
anchors = (
{
name = bottom;
pos = (275,0);
},
{
name = top;
pos = (422,690);
}
);
shapes = (
{
closed = 1;
nodes = (
(499,-10,o),
(661,190,o),
(661,441,cs),
(661,594,o),
(564,700,o),
(409,700,c),
(198,700,o),
(36,499,o),
(36,248,cs),
(36,94,o),
(132,-10,o),
(287,-10,c)
);
},
{
closed = 1;
nodes = (
(535,-55,l),
(446,87,l),
(390,195,l),
(285,195,l),
(371,52,l),
(425,-55,l)
);
},
{
closed = 1;
nodes = (
(198,88,o),
(144,146,o),
(144,254,cs),
(144,444,o),
(253,602,o),
(393,602,c),
(498,602,o),
(553,543,o),
(553,434,cs),
(553,244,o),
(444,88,o),
(304,88,c)
);
}
);
};
layerId = m001;
shapes = (
{
closed = 1;
nodes = (
(499,-10,o),
(661,190,o),
(661,441,cs),
(661,594,o),
(564,700,o),
(409,700,c),
(198,700,o),
(36,499,o),
(36,248,cs),
(36,94,o),
(132,-10,o),
(287,-10,c)
);
},
{
closed = 1;
nodes = (
(535,-55,l),
(446,87,l),
(390,195,l),
(285,195,l),
(371,52,l),
(425,-55,l)
);
},
{
closed = 1;
nodes = (
(198,88,o),
(144,146,o),
(144,254,cs),
(144,444,o),
(253,602,o),
(393,602,c),
(498,602,o),
(553,543,o),
(553,434,cs),
(553,244,o),
(444,88,o),
(304,88,c)
);
}
);
width = 697;
},
{
anchors = (
{
name = bottom;
pos = (438,690);
},
{
name = top;
pos = (291,0);
}
);
background = {
anchors = (
{
name = bottom;
pos = (438,690);
},
{
name = top;
pos = (291,0);
}
);
shapes = (
{
closed = 1;
nodes = (
(536,-14,o),
(696,185,o),
(696,424,c),
(696,584,o),
(595,704,o),
(422,704,c),
(192,704,o),
(31,506,o),
(31,267,c),
(31,107,o),
(133,-14,o),
(305,-14,c)
);
},
{
closed = 1;
nodes = (
(557,-60,l),
(467,106,l),
(412,231,l),
(266,231,l),
(350,67,l),
(401,-60,l)
);
},
{
closed = 1;
nodes = (
(231,132,o),
(194,193,o),
(194,278,c),
(194,432,o),
(280,558,o),
(400,558,c),
(496,558,o),
(533,497,o),
(533,412,c),
(533,258,o),
(447,132,o),
(327,132,c)
);
}
);
};
layerId = "935096DB-18C6-4F5A-A149-9E36F9702B37";
shapes = (
{
closed = 1;
nodes = (
(536,-14,o),
(696,185,o),
(696,424,c),
(696,584,o),
(595,704,o),
(422,704,c),
(192,704,o),
(31,506,o),
(31,267,c),
(31,107,o),
(133,-14,o),
(305,-14,c)
);
},
{
closed = 1;
nodes = (
(557,-60,l),
(467,106,l),
(412,231,l),
(266,231,l),
(350,67,l),
(401,-60,l)
);
},
{
closed = 1;
nodes = (
(231,132,o),
(194,193,o),
(194,278,c),
(194,432,o),
(280,558,o),
(400,558,c),
(496,558,o),
(533,497,o),
(533,412,c),
(533,258,o),
(447,132,o),
(327,132,c)
);
}
);
width = 727;
}
);
unicode = 81;
},
{
color = 6;
glyphname = R;
kernLeft = H;
kernRight = R;
lastChange = "2024-03-21 14:00:11 +0000";
layers = (
{
anchors = (
{
name = bottom;
pos = (251,0);
},
{
name = top;
pos = (397.664,690);
}
);
background = {
anchors = (
{
name = bottom;
pos = (251,0);
},
{
name = top;
pos = (397.664,690);
}
);
shapes = (
{
closed = 1;
nodes = (
(294,260,l),
(487,260,o),
(600,364,o),
(600,510,c),
(600,621,o),
(510,690,o),
(389,690,c),
(199,690,l),
(178,594,l),
(365,594,l),
(451,594,o),
(493,562,o),
(493,503,c),
(493,425,o),
(437,356,o),
(306,356,c),
(128,356,l),
(107,260,l)
);
},
{
closed = 1;
nodes = (
(107,0,l),
(254,690,l),
(149,690,l),
(2,0,l)
);
},
{
closed = 1;
nodes = (
(516,0,l),
(378,299,l),
(270,299,l),
(401,0,l)
);
}
);
};
layerId = m001;
shapes = (
{
closed = 1;
nodes = (
(294,260,l),
(487,260,o),
(600,364,o),
(600,510,c),
(600,621,o),
(510,690,o),
(389,690,c),
(199,690,l),
(178,594,l),
(365,594,l),
(451,594,o),
(493,562,o),
(493,503,c),
(493,425,o),
(437,356,o),
(306,356,c),
(128,356,l),
(107,260,l)
);
},
{
closed = 1;
nodes = (
(107,0,l),
(254,690,l),
(149,690,l),
(2,0,l)
);
},
{
closed = 1;
nodes = (
(516,0,l),
(378,299,l),
(270,299,l),
(401,0,l)
);
}
);
width = 619;
},
{
anchors = (
{
name = bottom;
pos = (256,0);
},
{
name = top;
pos = (402.664,690);
}
);
background = {
anchors = (
{
name = bottom;
pos = (256,0);
},
{
name = top;
pos = (402.664,690);
}
);
shapes = (
{
closed = 1;
nodes = (
(301,233,l),
(509,233,o),
(627,347,o),
(627,495,c),
(627,609,o),
(543,690,o),
(395,690,c),
(204,690,l),
(173,545,l),
(367,545,l),
(437,545,o),
(467,519,o),
(467,479,c),
(467,419,o),
(424,378,o),
(322,378,c),
(137,378,l),
(107,233,l)
);
},
{
closed = 1;
nodes = (
(144,0,l),
(291,690,l),
(136,690,l),
(-11,0,l)
);
},
{
closed = 1;
nodes = (
(548,0,l),
(406,299,l),
(257,299,l),
(386,0,l)
);
}
);
};
layerId = "935096DB-18C6-4F5A-A149-9E36F9702B37";
shapes = (
{
closed = 1;
nodes = (
(301,233,l),
(509,233,o),
(627,347,o),
(627,495,c),
(627,609,o),
(543,690,o),
(395,690,c),
(204,690,l),
(173,545,l),
(367,545,l),
(437,545,o),
(467,519,o),
(467,479,c),
(467,419,o),
(424,378,o),
(322,378,c),
(137,378,l),
(107,233,l)
);
},
{
closed = 1;
nodes = (
(144,0,l),
(291,690,l),
(136,690,l),
(-11,0,l)
);
},
{
closed = 1;
nodes = (
(548,0,l),
(406,299,l),
(257,299,l),
(386,0,l)
);
}
);
width = 642;
}
);
unicode = 82;
},
{
color = 10;
glyphname = Racute;
kernLeft = H;
kernRight = R;
lastChange = "2024-03-21 14:21:18 +0000";
layers = (
{
background = {
shapes = (
{
closed = 1;
nodes = (
(294,260,l),
(487,260,o),
(600,364,o),
(600,510,c),
(600,621,o),
(510,690,o),
(389,690,c),
(199,690,l),
(178,594,l),
(365,594,l),
(451,594,o),
(493,562,o),
(493,503,c),
(493,425,o),
(437,356,o),
(306,356,c),
(128,356,l),
(107,260,l)
);
},
{
closed = 1;
nodes = (
(107,0,l),
(254,690,l),
(149,690,l),
(2,0,l)
);
},
{
closed = 1;
nodes = (
(516,0,l),
(378,299,l),
(270,299,l),
(401,0,l)
);
},
{
closed = 1;
nodes = (
(443,735,l),
(601,845,l),
(466,845,l),
(342,735,l)
);
}
);
};
layerId = m001;
shapes = (
{
ref = R;
},
{
pos = (75,0);
ref = acutecomb.case;
}
);
width = 619;
},
{
background = {
shapes = (
{
closed = 1;
nodes = (
(301,233,l),
(509,233,o),
(627,347,o),
(627,495,c),
(627,609,o),
(543,690,o),
(395,690,c),
(204,690,l),
(173,545,l),
(367,545,l),
(437,545,o),
(467,519,o),
(467,479,c),
(467,419,o),
(424,378,o),
(322,378,c),
(137,378,l),
(107,233,l)
);
},
{
closed = 1;
nodes = (
(144,0,l),
(291,690,l),
(136,690,l),
(-11,0,l)
);
},
{
closed = 1;
nodes = (
(548,0,l),
(406,299,l),
(257,299,l),
(386,0,l)
);
},
{
closed = 1;
nodes = (
(464,735,l),
(640,850,l),
(467,850,l),
(339,735,l)
);
}
);
};
layerId = "935096DB-18C6-4F5A-A149-9E36F9702B37";
shapes = (
{
ref = R;
},
{
pos = (81,0);
ref = acutecomb.case;
}
);
width = 642;
}
);
unicode = 340;
},
{
color = 10;
glyphname = Rcaron;
kernLeft = H;
kernRight = R;
lastChange = "2024-03-21 14:00:11 +0000";
layers = (
{
background = {
shapes = (
{
closed = 1;
nodes = (
(294,260,l),
(487,260,o),
(600,364,o),
(600,510,c),
(600,621,o),
(510,690,o),
(389,690,c),
(199,690,l),
(178,594,l),
(365,594,l),
(451,594,o),
(493,562,o),
(493,503,c),
(493,425,o),
(437,356,o),
(306,356,c),
(128,356,l),
(107,260,l)
);
},
{
closed = 1;
nodes = (
(107,0,l),
(254,690,l),
(149,690,l),
(2,0,l)
);
},
{
closed = 1;
nodes = (
(516,0,l),
(378,299,l),
(270,299,l),
(401,0,l)
);
},
{
closed = 1;
nodes = (
(443,735,l),
(429,766,l),
(341,845,l),
(248,845,l),
(338,735,l)
);
},
{
closed = 1;
nodes = (
(476,735,l),
(614,845,l),
(507,845,l),
(386,766,l),
(371,735,l)
);
}
);
};
layerId = m001;
shapes = (
{
ref = R;
},
{
pos = (73,0);
ref = caroncomb.case;
}
);
width = 619;
},
{
background = {
shapes = (
{
closed = 1;
nodes = (
(301,233,l),
(509,233,o),
(627,347,o),
(627,495,c),
(627,609,o),
(543,690,o),
(395,690,c),
(204,690,l),
(173,545,l),
(367,545,l),
(437,545,o),
(467,519,o),
(467,479,c),
(467,419,o),
(424,378,o),
(322,378,c),
(137,378,l),
(107,233,l)
);
},
{
closed = 1;
nodes = (
(144,0,l),
(291,690,l),
(136,690,l),
(-11,0,l)
);
},
{
closed = 1;
nodes = (
(548,0,l),
(406,299,l),
(257,299,l),
(386,0,l)
);
},
{
closed = 1;
nodes = (
(457,735,l),
(441,773,l),
(360,850,l),
(243,850,l),
(328,735,l)
);
},
{
closed = 1;
nodes = (
(496,735,l),
(631,850,l),
(504,850,l),
(389,773,l),
(367,735,l)
);
}
);
};
layerId = "935096DB-18C6-4F5A-A149-9E36F9702B37";
shapes = (
{
ref = R;
},
{
pos = (78,0);
ref = caroncomb.case;
}
);
width = 642;
}
);
unicode = 344;
},
{
color = 10;
glyphname = Rcommaaccent;
kernLeft = H;
kernRight = R;
lastChange = "2024-03-21 14:00:11 +0000";
layers = (
{
background = {
shapes = (
{
closed = 1;
nodes = (
(294,260,l),
(487,260,o),
(600,364,o),
(600,510,c),
(600,621,o),
(510,690,o),
(389,690,c),
(199,690,l),
(178,594,l),
(365,594,l),
(451,594,o),
(493,562,o),
(493,503,c),
(493,425,o),
(437,356,o),
(306,356,c),
(128,356,l),
(107,260,l)
);
},
{
closed = 1;
nodes = (
(209,-275,l),
(293,-72,l),
(189,-72,l),
(146,-275,l)
);
},
{
closed = 1;
nodes = (
(107,0,l),
(254,690,l),
(149,690,l),
(2,0,l)
);
},
{
closed = 1;
nodes = (
(516,0,l),
(378,299,l),
(270,299,l),
(401,0,l)
);
}
);
};
layerId = m001;
shapes = (
{
ref = R;
},
{
pos = (74,0);
ref = commaaccentcomb;
}
);
width = 619;
},
{
background = {
shapes = (
{
closed = 1;
nodes = (
(301,233,l),
(509,233,o),
(627,347,o),
(627,495,c),
(627,609,o),
(543,690,o),
(395,690,c),
(204,690,l),
(173,545,l),
(367,545,l),
(437,545,o),
(467,519,o),
(467,479,c),
(467,419,o),
(424,378,o),
(322,378,c),
(137,378,l),
(107,233,l)
);
},
{
closed = 1;
nodes = (
(227,-270,l),
(315,-54,l),
(183,-54,l),
(137,-270,l)
);
},
{
closed = 1;
nodes = (
(144,0,l),
(291,690,l),
(136,690,l),
(-11,0,l)
);
},
{
closed = 1;
nodes = (
(548,0,l),
(406,299,l),
(257,299,l),
(386,0,l)
);
}
);
};
layerId = "935096DB-18C6-4F5A-A149-9E36F9702B37";
shapes = (
{
ref = R;
},
{
pos = (79,0);
ref = commaaccentcomb;
}
);
width = 642;
}
);
unicode = 342;
},
{
color = 6;
glyphname = S;
kernLeft = S;
kernRight = S;
lastChange = "2024-03-21 14:00:11 +0000";
layers = (
{
anchors = (
{
name = bottom;
pos = (222,0);
},
{
name = top;
pos = (369,690);
}
);
background = {
anchors = (
{
name = bottom;
pos = (222,0);
},
{
name = top;
pos = (369,690);
}
);
shapes = (
{
closed = 1;
nodes = (
(431,-10,o),
(520,97,o),
(520,203,c),
(520,426,o),
(191,372,o),
(191,521,c),
(191,566,o),
(228,607,o),
(326,607,c),
(416,607,o),
(464,572,o),
(484,499,c),
(581,532,l),
(550,637,o),
(470,700,o),
(343,700,c),
(155,700,o),
(81,592,o),
(81,497,c),
(81,287,o),
(409,331,o),
(409,187,c),
(409,125,o),
(356,83,o),
(251,83,c),
(155,83,o),
(109,120,o),
(91,196,c),
(-9,163,l),
(18,55,o),
(100,-10,o),
(242,-10,c)
);
}
);
};
layerId = m001;
shapes = (
{
closed = 1;
nodes = (
(431,-10,o),
(520,97,o),
(520,203,c),
(520,426,o),
(191,372,o),
(191,521,c),
(191,566,o),
(228,607,o),
(326,607,c),
(416,607,o),
(464,572,o),
(484,499,c),
(581,532,l),
(550,637,o),
(470,700,o),
(343,700,c),
(155,700,o),
(81,592,o),
(81,497,c),
(81,287,o),
(409,331,o),
(409,187,c),
(409,125,o),
(356,83,o),
(251,83,c),
(155,83,o),
(109,120,o),
(91,196,c),
(-9,163,l),
(18,55,o),
(100,-10,o),
(242,-10,c)
);
}
);
width = 592;
},
{
anchors = (
{
name = bottom;
pos = (244,0);
},
{
name = top;
pos = (389,690);
}
);
background = {
anchors = (
{
name = bottom;
pos = (244,0);
},
{
name = top;
pos = (389,690);
}
);
shapes = (
{
closed = 1;
nodes = (
(450,-14,o),
(556,79,o),
(556,212,c),
(556,437,o),
(235,402,o),
(235,507,c),
(235,540,o),
(262,566,o),
(337,566,c),
(402,566,o),
(442,536,o),
(456,473,c),
(608,517,l),
(581,640,o),
(478,704,o),
(350,704,c),
(169,704,o),
(76,607,o),
(76,488,c),
(76,272,o),
(391,310,o),
(391,193,c),
(391,156,o),
(365,125,o),
(285,125,c),
(212,125,o),
(168,159,o),
(150,236,c),
(-6,190,l),
(22,53,o),
(127,-14,o),
(272,-14,c)
);
}
);
};
layerId = "935096DB-18C6-4F5A-A149-9E36F9702B37";
shapes = (
{
closed = 1;
nodes = (
(450,-14,o),
(556,79,o),
(556,212,c),
(556,437,o),
(235,402,o),
(235,507,c),
(235,540,o),
(262,566,o),
(337,566,c),
(402,566,o),
(442,536,o),
(456,473,c),
(608,517,l),
(581,640,o),
(478,704,o),
(350,704,c),
(169,704,o),
(76,607,o),
(76,488,c),
(76,272,o),
(391,310,o),
(391,193,c),
(391,156,o),
(365,125,o),
(285,125,c),
(212,125,o),
(168,159,o),
(150,236,c),
(-6,190,l),
(22,53,o),
(127,-14,o),
(272,-14,c)
);
}
);
width = 620;
}
);
unicode = 83;
},
{
color = 10;
glyphname = Sacute;
kernLeft = S;
kernRight = S;
lastChange = "2024-03-21 14:21:18 +0000";
layers = (
{
background = {
shapes = (
{
closed = 1;
nodes = (
(431,-10,o),
(520,97,o),
(520,203,c),
(520,426,o),
(191,372,o),
(191,521,c),
(191,566,o),
(228,607,o),
(326,607,c),
(416,607,o),
(464,572,o),
(484,499,c),
(581,532,l),
(550,637,o),
(470,700,o),
(343,700,c),
(155,700,o),
(81,592,o),
(81,497,c),
(81,287,o),
(409,331,o),
(409,187,c),
(409,125,o),
(356,83,o),
(251,83,c),
(155,83,o),
(109,120,o),
(91,196,c),
(-9,163,l),
(18,55,o),
(100,-10,o),
(242,-10,c)
);
},
{
closed = 1;
nodes = (
(414,735,l),
(572,845,l),
(437,845,l),
(313,735,l)
);
}
);
};
layerId = m001;
shapes = (
{
ref = S;
},
{
pos = (46,0);
ref = acutecomb.case;
}
);
width = 592;
},
{
background = {
shapes = (
{
closed = 1;
nodes = (
(450,-14,o),
(556,79,o),
(556,212,c),
(556,437,o),
(235,402,o),
(235,507,c),
(235,540,o),
(262,566,o),
(337,566,c),
(402,566,o),
(442,536,o),
(456,473,c),
(608,517,l),
(581,640,o),
(478,704,o),
(350,704,c),
(169,704,o),
(76,607,o),
(76,488,c),
(76,272,o),
(391,310,o),
(391,193,c),
(391,156,o),
(365,125,o),
(285,125,c),
(212,125,o),
(168,159,o),
(150,236,c),
(-6,190,l),
(22,53,o),
(127,-14,o),
(272,-14,c)
);
},
{
closed = 1;
nodes = (
(450,735,l),
(626,850,l),
(453,850,l),
(325,735,l)
);
}
);
};
layerId = "935096DB-18C6-4F5A-A149-9E36F9702B37";
shapes = (
{
ref = S;
},
{
pos = (67,0);
ref = acutecomb.case;
}
);
width = 620;
}
);
unicode = 346;
},
{
color = 10;
glyphname = Scaron;
kernLeft = S;
kernRight = S;
lastChange = "2024-03-21 14:00:11 +0000";
layers = (
{
background = {
shapes = (
{
closed = 1;
nodes = (
(431,-10,o),
(520,97,o),
(520,203,c),
(520,426,o),
(191,372,o),
(191,521,c),
(191,566,o),
(228,607,o),
(326,607,c),
(416,607,o),
(464,572,o),
(484,499,c),
(581,532,l),
(550,637,o),
(470,700,o),
(343,700,c),
(155,700,o),
(81,592,o),
(81,497,c),
(81,287,o),
(409,331,o),
(409,187,c),
(409,125,o),
(356,83,o),
(251,83,c),
(155,83,o),
(109,120,o),
(91,196,c),
(-9,163,l),
(18,55,o),
(100,-10,o),
(242,-10,c)
);
},
{
closed = 1;
nodes = (
(414,735,l),
(400,766,l),
(312,845,l),
(219,845,l),
(309,735,l)
);
},
{
closed = 1;
nodes = (
(447,735,l),
(585,845,l),
(478,845,l),
(357,766,l),
(342,735,l)
);
}
);
};
layerId = m001;
shapes = (
{
ref = S;
},
{
pos = (44,0);
ref = caroncomb.case;
}
);
width = 592;
},
{
background = {
shapes = (
{
closed = 1;
nodes = (
(450,-14,o),
(556,79,o),
(556,212,c),
(556,437,o),
(235,402,o),
(235,507,c),
(235,540,o),
(262,566,o),
(337,566,c),
(402,566,o),
(442,536,o),
(456,473,c),
(608,517,l),
(581,640,o),
(478,704,o),
(350,704,c),
(169,704,o),
(76,607,o),
(76,488,c),
(76,272,o),
(391,310,o),
(391,193,c),
(391,156,o),
(365,125,o),
(285,125,c),
(212,125,o),
(168,159,o),
(150,236,c),
(-6,190,l),
(22,53,o),
(127,-14,o),
(272,-14,c)
);
},
{
closed = 1;
nodes = (
(443,735,l),
(427,773,l),
(346,850,l),
(229,850,l),
(314,735,l)
);
},
{
closed = 1;
nodes = (
(482,735,l),
(617,850,l),
(490,850,l),
(375,773,l),
(353,735,l)
);
}
);
};
layerId = "935096DB-18C6-4F5A-A149-9E36F9702B37";
shapes = (
{
ref = S;
},
{
pos = (64,0);
ref = caroncomb.case;
}
);
width = 620;
}
);
unicode = 352;
},
{
color = 10;
glyphname = Scedilla;
kernLeft = S;
kernRight = S;
lastChange = "2024-03-21 14:00:11 +0000";
layers = (
{
background = {
shapes = (
{
closed = 1;
nodes = (
(431,-10,o),
(520,97,o),
(520,203,c),
(520,426,o),
(191,372,o),
(191,521,c),
(191,566,o),
(228,607,o),
(326,607,c),
(416,607,o),
(464,572,o),
(484,499,c),
(581,532,l),
(550,637,o),
(470,700,o),
(343,700,c),
(155,700,o),
(81,592,o),
(81,497,c),
(81,287,o),
(409,331,o),
(409,187,c),
(409,125,o),
(356,83,o),
(251,83,c),
(155,83,o),
(109,120,o),
(91,196,c),
(-9,163,l),
(18,55,o),
(100,-10,o),
(242,-10,c)
);
},
{
closed = 1;
nodes = (
(244,-185,o),
(288,-144,o),
(288,-96,c),
(288,-55,o),
(259,-29,o),
(218,-29,c),
(227,-43,l),
(244,9,l),
(188,11,l),
(157,-73,l),
(169,-71,o),
(176,-70,o),
(187,-70,c),
(209,-70,o),
(220,-79,o),
(220,-94,c),
(220,-108,o),
(206,-119,o),
(181,-119,c),
(161,-119,o),
(146,-114,o),
(130,-105,c),
(103,-169,l),
(126,-180,o),
(150,-185,o),
(176,-185,c)
);
}
);
};
layerId = m001;
shapes = (
{
ref = S;
},
{
pos = (43,0);
ref = cedillacomb;
}
);
width = 592;
},
{
background = {
shapes = (
{
closed = 1;
nodes = (
(450,-14,o),
(556,79,o),
(556,212,c),
(556,437,o),
(235,402,o),
(235,507,c),
(235,540,o),
(262,566,o),
(337,566,c),
(402,566,o),
(442,536,o),
(456,473,c),
(608,517,l),
(581,640,o),
(478,704,o),
(350,704,c),
(169,704,o),
(76,607,o),
(76,488,c),
(76,272,o),
(391,310,o),
(391,193,c),
(391,156,o),
(365,125,o),
(285,125,c),
(212,125,o),
(168,159,o),
(150,236,c),
(-6,190,l),
(22,53,o),
(127,-14,o),
(272,-14,c)
);
},
{
closed = 1;
nodes = (
(286,-190,o),
(325,-146,o),
(325,-97,c),
(325,-57,o),
(296,-29,o),
(246,-29,c),
(255,-43,l),
(272,9,l),
(204,11,l),
(171,-80,l),
(183,-76,o),
(193,-74,o),
(205,-74,c),
(225,-74,o),
(235,-80,o),
(235,-91,c),
(235,-103,o),
(224,-109,o),
(201,-109,c),
(181,-109,o),
(159,-105,o),
(140,-94,c),
(111,-174,l),
(136,-185,o),
(166,-190,o),
(194,-190,c)
);
}
);
};
layerId = "935096DB-18C6-4F5A-A149-9E36F9702B37";
shapes = (
{
ref = S;
},
{
pos = (64,0);
ref = cedillacomb;
}
);
width = 620;
}
);
unicode = 350;
},
{
color = 10;
glyphname = Scircumflex;
kernLeft = S;
kernRight = S;
lastChange = "2024-03-21 14:00:11 +0000";
layers = (
{
background = {
shapes = (
{
closed = 1;
nodes = (
(431,-10,o),
(520,97,o),
(520,203,c),
(520,426,o),
(191,372,o),
(191,521,c),
(191,566,o),
(228,607,o),
(326,607,c),
(416,607,o),
(464,572,o),
(484,499,c),
(581,532,l),
(550,637,o),
(470,700,o),
(343,700,c),
(155,700,o),
(81,592,o),
(81,497,c),
(81,287,o),
(409,331,o),
(409,187,c),
(409,125,o),
(356,83,o),
(251,83,c),
(155,83,o),
(109,120,o),
(91,196,c),
(-9,163,l),
(18,55,o),
(100,-10,o),
(242,-10,c)
);
},
{
closed = 1;
nodes = (
(302,735,l),
(423,814,l),
(438,845,l),
(333,845,l),
(195,735,l)
);
},
{
closed = 1;
nodes = (
(561,735,l),
(471,845,l),
(366,845,l),
(380,814,l),
(468,735,l)
);
}
);
};
layerId = m001;
shapes = (
{
ref = S;
},
{
pos = (45,0);
ref = circumflexcomb.case;
}
);
width = 592;
},
{
background = {
shapes = (
{
closed = 1;
nodes = (
(450,-14,o),
(556,79,o),
(556,212,c),
(556,437,o),
(235,402,o),
(235,507,c),
(235,540,o),
(262,566,o),
(337,566,c),
(402,566,o),
(442,536,o),
(456,473,c),
(608,517,l),
(581,640,o),
(478,704,o),
(350,704,c),
(169,704,o),
(76,607,o),
(76,488,c),
(76,272,o),
(391,310,o),
(391,193,c),
(391,156,o),
(365,125,o),
(285,125,c),
(212,125,o),
(168,159,o),
(150,236,c),
(-6,190,l),
(22,53,o),
(127,-14,o),
(272,-14,c)
);
},
{
closed = 1;
nodes = (
(331,735,l),
(446,812,l),
(468,850,l),
(339,850,l),
(204,735,l)
);
},
{
closed = 1;
nodes = (
(592,735,l),
(507,850,l),
(378,850,l),
(394,812,l),
(475,735,l)
);
}
);
};
layerId = "935096DB-18C6-4F5A-A149-9E36F9702B37";
shapes = (
{
ref = S;
},
{
pos = (65,0);
ref = circumflexcomb.case;
}
);
width = 620;
}
);
unicode = 348;
},
{
color = 10;
glyphname = Scommaaccent;
kernLeft = S;
kernRight = S;
lastChange = "2024-03-21 14:00:11 +0000";
layers = (
{
background = {
shapes = (
{
closed = 1;
nodes = (
(431,-10,o),
(520,97,o),
(520,203,c),
(520,426,o),
(191,372,o),
(191,521,c),
(191,566,o),
(228,607,o),
(326,607,c),
(416,607,o),
(464,572,o),
(484,499,c),
(581,532,l),
(550,637,o),
(470,700,o),
(343,700,c),
(155,700,o),
(81,592,o),
(81,497,c),
(81,287,o),
(409,331,o),
(409,187,c),
(409,125,o),
(356,83,o),
(251,83,c),
(155,83,o),
(109,120,o),
(91,196,c),
(-9,163,l),
(18,55,o),
(100,-10,o),
(242,-10,c)
);
},
{
closed = 1;
nodes = (
(180,-275,l),
(264,-72,l),
(160,-72,l),
(117,-275,l)
);
}
);
};
layerId = m001;
shapes = (
{
ref = S;
},
{
pos = (45,0);
ref = commaaccentcomb;
}
);
width = 592;
},
{
background = {
shapes = (
{
closed = 1;
nodes = (
(450,-14,o),
(556,79,o),
(556,212,c),
(556,437,o),
(235,402,o),
(235,507,c),
(235,540,o),
(262,566,o),
(337,566,c),
(402,566,o),
(442,536,o),
(456,473,c),
(608,517,l),
(581,640,o),
(478,704,o),
(350,704,c),
(169,704,o),
(76,607,o),
(76,488,c),
(76,272,o),
(391,310,o),
(391,193,c),
(391,156,o),
(365,125,o),
(285,125,c),
(212,125,o),
(168,159,o),
(150,236,c),
(-6,190,l),
(22,53,o),
(127,-14,o),
(272,-14,c)
);
},
{
closed = 1;
nodes = (
(215,-270,l),
(303,-54,l),
(171,-54,l),
(125,-270,l)
);
}
);
};
layerId = "935096DB-18C6-4F5A-A149-9E36F9702B37";
shapes = (
{
ref = S;
},
{
pos = (67,0);
ref = commaaccentcomb;
}
);
width = 620;
}
);
unicode = 536;
},
{
color = 6;
glyphname = Germandbls;
lastChange = "2024-03-21 14:00:11 +0000";
layers = (
{
background = {
shapes = (
{
closed = 1;
nodes = (
(519,-10,o),
(597,68,o),
(597,165,c),
(597,287,o),
(457,329,o),
(457,391,cs),
(457,422,o),
(481,456,o),
(614,489,c),
(602,643,o),
(509,700,o),
(392,700,c),
(229,700,o),
(128,614,o),
(88,426,cs),
(-3,0,l),
(102,0,l),
(190,416,ls),
(216,539,o),
(281,603,o),
(382,603,c),
(452,603,o),
(499,578,o),
(511,533,c),
(399,494,o),
(360,439,o),
(360,378,c),
(360,274,o),
(496,244,o),
(496,163,cs),
(496,114,o),
(451,80,o),
(393,80,c),
(342,80,o),
(310,91,o),
(272,120,c),
(220,35,l),
(256,8,o),
(313,-10,o),
(387,-10,c)
);
}
);
};
layerId = m001;
shapes = (
{
closed = 1;
nodes = (
(519,-10,o),
(597,68,o),
(597,165,c),
(597,287,o),
(457,329,o),
(457,391,cs),
(457,422,o),
(481,456,o),
(614,489,c),
(602,643,o),
(509,700,o),
(392,700,c),
(229,700,o),
(128,614,o),
(88,426,cs),
(-3,0,l),
(102,0,l),
(190,416,ls),
(216,539,o),
(281,603,o),
(382,603,c),
(452,603,o),
(499,578,o),
(511,533,c),
(399,494,o),
(360,439,o),
(360,378,c),
(360,274,o),
(496,244,o),
(496,163,cs),
(496,114,o),
(451,80,o),
(393,80,c),
(342,80,o),
(310,91,o),
(272,120,c),
(220,35,l),
(256,8,o),
(313,-10,o),
(387,-10,c)
);
}
);
width = 671;
},
{
background = {
shapes = (
{
closed = 1;
nodes = (
(541,-14,o),
(629,77,o),
(629,184,c),
(629,299,o),
(507,331,o),
(507,387,cs),
(507,408,o),
(520,433,o),
(639,471,c),
(634,622,o),
(537,704,o),
(387,704,c),
(208,704,o),
(110,606,o),
(72,425,cs),
(-18,0,l),
(137,0,l),
(226,417,ls),
(245,506,o),
(298,562,o),
(378,562,c),
(433,562,o),
(468,544,o),
(481,511,c),
(399,484,o),
(355,429,o),
(355,365,c),
(355,262,o),
(478,239,o),
(478,177,cs),
(478,135,o),
(442,106,o),
(396,106,c),
(358,106,o),
(327,120,o),
(292,145,c),
(225,33,l),
(264,4,o),
(323,-14,o),
(394,-14,c)
);
}
);
};
layerId = "935096DB-18C6-4F5A-A149-9E36F9702B37";
shapes = (
{
closed = 1;
nodes = (
(541,-14,o),
(629,77,o),
(629,184,c),
(629,299,o),
(507,331,o),
(507,387,cs),
(507,408,o),
(520,433,o),
(639,471,c),
(634,622,o),
(537,704,o),
(387,704,c),
(208,704,o),
(110,606,o),
(72,425,cs),
(-18,0,l),
(137,0,l),
(226,417,ls),
(245,506,o),
(298,562,o),
(378,562,c),
(433,562,o),
(468,544,o),
(481,511,c),
(399,484,o),
(355,429,o),
(355,365,c),
(355,262,o),
(478,239,o),
(478,177,cs),
(478,135,o),
(442,106,o),
(396,106,c),
(358,106,o),
(327,120,o),
(292,145,c),
(225,33,l),
(264,4,o),
(323,-14,o),
(394,-14,c)
);
}
);
width = 691;
}
);
unicode = 7838;
},
{
color = 6;
glyphname = T;
kernLeft = T;
kernRight = T;
lastChange = "2024-03-21 14:00:11 +0000";
layers = (
{
anchors = (
{
name = bottom;
pos = (218,0);
},
{
name = top;
pos = (364.664,690);
}
);
background = {
anchors = (
{
name = bottom;
pos = (218,0);
},
{
name = top;
pos = (364.664,690);
}
);
shapes = (
{
closed = 1;
nodes = (
(270,0,l),
(417,690,l),
(312,690,l),
(165,0,l)
);
},
{
closed = 1;
nodes = (
(616,594,l),
(637,690,l),
(92,690,l),
(71,594,l)
);
}
);
};
layerId = m001;
shapes = (
{
closed = 1;
nodes = (
(270,0,l),
(417,690,l),
(312,690,l),
(165,0,l)
);
},
{
closed = 1;
nodes = (
(616,594,l),
(637,690,l),
(92,690,l),
(71,594,l)
);
}
);
width = 580;
},
{
anchors = (
{
name = bottom;
pos = (225,0);
},
{
name = top;
pos = (371.664,690);
}
);
background = {
anchors = (
{
name = bottom;
pos = (225,0);
},
{
name = top;
pos = (371.664,690);
}
);
shapes = (
{
closed = 1;
nodes = (
(302,0,l),
(449,690,l),
(295,690,l),
(148,0,l)
);
},
{
closed = 1;
nodes = (
(618,545,l),
(649,690,l),
(95,690,l),
(64,545,l)
);
}
);
};
layerId = "935096DB-18C6-4F5A-A149-9E36F9702B37";
shapes = (
{
closed = 1;
nodes = (
(302,0,l),
(449,690,l),
(295,690,l),
(148,0,l)
);
},
{
closed = 1;
nodes = (
(618,545,l),
(649,690,l),
(95,690,l),
(64,545,l)
);
}
);
width = 594;
}
);
unicode = 84;
},
{
color = 6;
glyphname = Tbar;
kernLeft = T;
kernRight = T;
lastChange = "2024-03-21 14:00:11 +0000";
layers = (
{
background = {
shapes = (
{
closed = 1;
nodes = (
(270,0,l),
(417,690,l),
(312,690,l),
(165,0,l)
);
},
{
closed = 1;
nodes = (
(475,261,l),
(495,352,l),
(90,352,l),
(70,261,l)
);
},
{
closed = 1;
nodes = (
(616,594,l),
(637,690,l),
(92,690,l),
(71,594,l)
);
}
);
};
layerId = m001;
shapes = (
{
closed = 1;
nodes = (
(270,0,l),
(417,690,l),
(312,690,l),
(165,0,l)
);
},
{
closed = 1;
nodes = (
(475,261,l),
(495,352,l),
(90,352,l),
(70,261,l)
);
},
{
closed = 1;
nodes = (
(616,594,l),
(637,690,l),
(92,690,l),
(71,594,l)
);
}
);
width = 580;
},
{
background = {
shapes = (
{
closed = 1;
nodes = (
(302,0,l),
(449,690,l),
(295,690,l),
(148,0,l)
);
},
{
closed = 1;
nodes = (
(514,246,l),
(540,367,l),
(66,367,l),
(40,246,l)
);
},
{
closed = 1;
nodes = (
(618,545,l),
(649,690,l),
(95,690,l),
(64,545,l)
);
}
);
};
layerId = "935096DB-18C6-4F5A-A149-9E36F9702B37";
shapes = (
{
closed = 1;
nodes = (
(302,0,l),
(449,690,l),
(295,690,l),
(148,0,l)
);
},
{
closed = 1;
nodes = (
(514,246,l),
(540,367,l),
(66,367,l),
(40,246,l)
);
},
{
closed = 1;
nodes = (
(618,545,l),
(649,690,l),
(95,690,l),
(64,545,l)
);
}
);
width = 594;
}
);
unicode = 358;
},
{
color = 10;
glyphname = Tcaron;
kernLeft = T;
kernRight = T;
lastChange = "2024-03-21 14:00:11 +0000";
layers = (
{
background = {
shapes = (
{
closed = 1;
nodes = (
(270,0,l),
(417,690,l),
(312,690,l),
(165,0,l)
);
},
{
closed = 1;
nodes = (
(616,594,l),
(637,690,l),
(92,690,l),
(71,594,l)
);
},
{
closed = 1;
nodes = (
(410,735,l),
(396,766,l),
(308,845,l),
(215,845,l),
(305,735,l)
);
},
{
closed = 1;
nodes = (
(443,735,l),
(581,845,l),
(474,845,l),
(353,766,l),
(338,735,l)
);
}
);
};
layerId = m001;
shapes = (
{
ref = T;
},
{
pos = (40,0);
ref = caroncomb.case;
}
);
width = 580;
},
{
background = {
shapes = (
{
closed = 1;
nodes = (
(302,0,l),
(449,690,l),
(295,690,l),
(148,0,l)
);
},
{
closed = 1;
nodes = (
(618,545,l),
(649,690,l),
(95,690,l),
(64,545,l)
);
},
{
closed = 1;
nodes = (
(426,735,l),
(410,773,l),
(329,850,l),
(212,850,l),
(297,735,l)
);
},
{
closed = 1;
nodes = (
(465,735,l),
(600,850,l),
(473,850,l),
(358,773,l),
(336,735,l)
);
}
);
};
layerId = "935096DB-18C6-4F5A-A149-9E36F9702B37";
shapes = (
{
ref = T;
},
{
pos = (47,0);
ref = caroncomb.case;
}
);
width = 594;
}
);
unicode = 356;
},
{
color = 10;
glyphname = Tcedilla;
kernLeft = T;
kernRight = T;
lastChange = "2024-03-21 14:00:11 +0000";
layers = (
{
background = {
shapes = (
{
closed = 1;
nodes = (
(270,0,l),
(417,690,l),
(312,690,l),
(165,0,l)
);
},
{
closed = 1;
nodes = (
(240,-185,o),
(284,-144,o),
(284,-96,c),
(284,-55,o),
(255,-29,o),
(214,-29,c),
(223,-43,l),
(240,9,l),
(184,11,l),
(153,-73,l),
(165,-71,o),
(172,-70,o),
(183,-70,c),
(205,-70,o),
(216,-79,o),
(216,-94,c),
(216,-108,o),
(202,-119,o),
(177,-119,c),
(157,-119,o),
(142,-114,o),
(126,-105,c),
(99,-169,l),
(122,-180,o),
(146,-185,o),
(172,-185,c)
);
},
{
closed = 1;
nodes = (
(616,594,l),
(637,690,l),
(92,690,l),
(71,594,l)
);
}
);
};
layerId = m001;
shapes = (
{
ref = T;
},
{
pos = (39,0);
ref = cedillacomb;
}
);
width = 580;
},
{
background = {
shapes = (
{
closed = 1;
nodes = (
(302,0,l),
(449,690,l),
(295,690,l),
(148,0,l)
);
},
{
closed = 1;
nodes = (
(267,-190,o),
(306,-146,o),
(306,-97,c),
(306,-57,o),
(277,-29,o),
(227,-29,c),
(236,-43,l),
(253,9,l),
(185,11,l),
(152,-80,l),
(164,-76,o),
(174,-74,o),
(186,-74,c),
(206,-74,o),
(216,-80,o),
(216,-91,c),
(216,-103,o),
(205,-109,o),
(182,-109,c),
(162,-109,o),
(140,-105,o),
(121,-94,c),
(92,-174,l),
(117,-185,o),
(147,-190,o),
(175,-190,c)
);
},
{
closed = 1;
nodes = (
(618,545,l),
(649,690,l),
(95,690,l),
(64,545,l)
);
}
);
};
layerId = "935096DB-18C6-4F5A-A149-9E36F9702B37";
shapes = (
{
ref = T;
},
{
pos = (45,0);
ref = cedillacomb;
}
);
width = 594;
}
);
unicode = 354;
},
{
color = 10;
glyphname = Tcommaaccent;
kernLeft = T;
kernRight = T;
lastChange = "2024-03-21 14:00:11 +0000";
layers = (
{
background = {
shapes = (
{
closed = 1;
nodes = (
(270,0,l),
(417,690,l),
(312,690,l),
(165,0,l)
);
},
{
closed = 1;
nodes = (
(176,-275,l),
(260,-72,l),
(156,-72,l),
(113,-275,l)
);
},
{
closed = 1;
nodes = (
(616,594,l),
(637,690,l),
(92,690,l),
(71,594,l)
);
}
);
};
layerId = m001;
shapes = (
{
ref = T;
},
{
pos = (41,0);
ref = commaaccentcomb;
}
);
width = 580;
},
{
background = {
shapes = (
{
closed = 1;
nodes = (
(302,0,l),
(449,690,l),
(295,690,l),
(148,0,l)
);
},
{
closed = 1;
nodes = (
(196,-270,l),
(284,-54,l),
(152,-54,l),
(106,-270,l)
);
},
{
closed = 1;
nodes = (
(618,545,l),
(649,690,l),
(95,690,l),
(64,545,l)
);
}
);
};
layerId = "935096DB-18C6-4F5A-A149-9E36F9702B37";
shapes = (
{
ref = T;
},
{
pos = (48,0);
ref = commaaccentcomb;
}
);
width = 594;
}
);
unicode = 538;
},
{
color = 6;
glyphname = U;
kernLeft = U;
kernRight = U;
lastChange = "2024-03-21 14:03:46 +0000";
layers = (
{
anchors = (
{
name = bottom;
pos = (264,0);
},
{
name = ogonek;
pos = (356,0);
},
{
name = top;
pos = (411,690);
}
);
background = {
anchors = (
{
name = bottom;
pos = (264,0);
},
{
name = top;
pos = (411,690);
}
);
shapes = (
{
closed = 1;
nodes = (
(438,-10,o),
(551,90,o),
(588,264,cs),
(679,690,l),
(577,690,l),
(488,274,ls),
(462,151,o),
(389,87,o),
(281,87,cs),
(195,87,o),
(152,128,o),
(152,208,cs),
(152,228,o),
(155,250,o),
(160,274,cs),
(249,690,l),
(144,690,l),
(53,264,ls),
(48,241,o),
(46,219,o),
(46,198,cs),
(46,73,o),
(131,-10,o),
(276,-10,c)
);
}
);
};
layerId = m001;
shapes = (
{
closed = 1;
nodes = (
(438,-10,o),
(551,90,o),
(588,264,cs),
(679,690,l),
(577,690,l),
(488,274,ls),
(462,151,o),
(389,87,o),
(281,87,cs),
(195,87,o),
(152,128,o),
(152,208,cs),
(152,228,o),
(155,250,o),
(160,274,cs),
(249,690,l),
(144,690,l),
(53,264,ls),
(48,241,o),
(46,219,o),
(46,198,cs),
(46,73,o),
(131,-10,o),
(276,-10,c)
);
}
);
width = 674;
},
{
anchors = (
{
name = bottom;
pos = (273,0);
},
{
name = ogonek;
pos = (390,0);
},
{
name = top;
pos = (420,690);
}
);
background = {
anchors = (
{
name = bottom;
pos = (273,0);
},
{
name = top;
pos = (420,690);
}
);
shapes = (
{
closed = 1;
nodes = (
(466,-14,o),
(583,87,o),
(621,265,cs),
(712,690,l),
(560,690,l),
(471,273,ls),
(452,184,o),
(388,131,o),
(299,131,c),
(225,131,o),
(189,163,o),
(189,226,cs),
(189,240,o),
(190,256,o),
(194,273,cs),
(283,690,l),
(129,690,l),
(38,265,ls),
(33,243,o),
(31,221,o),
(31,201,cs),
(31,74,o),
(121,-14,o),
(286,-14,c)
);
}
);
};
layerId = "935096DB-18C6-4F5A-A149-9E36F9702B37";
shapes = (
{
closed = 1;
nodes = (
(466,-14,o),
(583,87,o),
(621,265,cs),
(712,690,l),
(560,690,l),
(471,273,ls),
(452,184,o),
(388,131,o),
(299,131,c),
(225,131,o),
(189,163,o),
(189,226,cs),
(189,240,o),
(190,256,o),
(194,273,cs),
(283,690,l),
(129,690,l),
(38,265,ls),
(33,243,o),
(31,221,o),
(31,201,cs),
(31,74,o),
(121,-14,o),
(286,-14,c)
);
}
);
width = 692;
}
);
unicode = 85;
},
{
color = 10;
glyphname = Uacute;
kernLeft = U;
kernRight = U;
lastChange = "2024-03-21 14:21:18 +0000";
layers = (
{
background = {
shapes = (
{
closed = 1;
nodes = (
(438,-10,o),
(551,90,o),
(588,264,cs),
(679,690,l),
(577,690,l),
(488,274,ls),
(462,151,o),
(389,87,o),
(281,87,cs),
(195,87,o),
(152,128,o),
(152,208,cs),
(152,228,o),
(155,250,o),
(160,274,cs),
(249,690,l),
(144,690,l),
(53,264,ls),
(48,241,o),
(46,219,o),
(46,198,cs),
(46,73,o),
(131,-10,o),
(276,-10,c)
);
},
{
closed = 1;
nodes = (
(456,735,l),
(614,845,l),
(479,845,l),
(355,735,l)
);
}
);
};
layerId = m001;
shapes = (
{
ref = U;
},
{
pos = (88,0);
ref = acutecomb.case;
}
);
width = 674;
},
{
background = {
shapes = (
{
closed = 1;
nodes = (
(466,-14,o),
(583,87,o),
(621,265,cs),
(712,690,l),
(560,690,l),
(471,273,ls),
(452,184,o),
(388,131,o),
(299,131,c),
(225,131,o),
(189,163,o),
(189,226,cs),
(189,240,o),
(190,256,o),
(194,273,cs),
(283,690,l),
(129,690,l),
(38,265,ls),
(33,243,o),
(31,221,o),
(31,201,cs),
(31,74,o),
(121,-14,o),
(286,-14,c)
);
},
{
closed = 1;
nodes = (
(481,735,l),
(657,850,l),
(484,850,l),
(356,735,l)
);
}
);
};
layerId = "935096DB-18C6-4F5A-A149-9E36F9702B37";
shapes = (
{
ref = U;
},
{
pos = (98,0);
ref = acutecomb.case;
}
);
width = 692;
}
);
unicode = 218;
},
{
color = 10;
glyphname = Ubreve;
kernLeft = U;
kernRight = U;
lastChange = "2024-03-21 14:00:11 +0000";
layers = (
{
background = {
shapes = (
{
closed = 1;
nodes = (
(438,-10,o),
(551,90,o),
(588,264,cs),
(679,690,l),
(577,690,l),
(488,274,ls),
(462,151,o),
(389,87,o),
(281,87,cs),
(195,87,o),
(152,128,o),
(152,208,cs),
(152,228,o),
(155,250,o),
(160,274,cs),
(249,690,l),
(144,690,l),
(53,264,ls),
(48,241,o),
(46,219,o),
(46,198,cs),
(46,73,o),
(131,-10,o),
(276,-10,c)
);
},
{
closed = 1;
nodes = (
(529,735,o),
(576,777,o),
(594,845,c),
(524,845,l),
(516,820,o),
(489,805,o),
(432,805,c),
(380,805,o),
(364,818,o),
(364,841,cs),
(364,845,l),
(294,845,l),
(293,838,o),
(293,833,o),
(293,828,cs),
(293,773,o),
(341,735,o),
(429,735,c)
);
}
);
};
layerId = m001;
shapes = (
{
ref = U;
},
{
pos = (87,0);
ref = brevecomb.case;
}
);
width = 674;
},
{
background = {
shapes = (
{
closed = 1;
nodes = (
(466,-14,o),
(583,87,o),
(621,265,cs),
(712,690,l),
(560,690,l),
(471,273,ls),
(452,184,o),
(388,131,o),
(299,131,c),
(225,131,o),
(189,163,o),
(189,226,cs),
(189,240,o),
(190,256,o),
(194,273,cs),
(283,690,l),
(129,690,l),
(38,265,ls),
(33,243,o),
(31,221,o),
(31,201,cs),
(31,74,o),
(121,-14,o),
(286,-14,c)
);
},
{
closed = 1;
nodes = (
(544,730,o),
(597,779,o),
(613,850,c),
(516,850,l),
(508,827,o),
(486,814,o),
(445,814,c),
(404,814,o),
(392,827,o),
(392,850,c),
(295,850,l),
(294,843,o),
(293,837,o),
(293,831,cs),
(293,770,o),
(346,730,o),
(440,730,c)
);
}
);
};
layerId = "935096DB-18C6-4F5A-A149-9E36F9702B37";
shapes = (
{
ref = U;
},
{
pos = (96,0);
ref = brevecomb.case;
}
);
width = 692;
}
);
unicode = 364;
},
{
color = 10;
glyphname = Ucircumflex;
kernLeft = U;
kernRight = U;
lastChange = "2024-03-21 14:00:11 +0000";
layers = (
{
background = {
shapes = (
{
closed = 1;
nodes = (
(438,-10,o),
(551,90,o),
(588,264,cs),
(679,690,l),
(577,690,l),
(488,274,ls),
(462,151,o),
(389,87,o),
(281,87,cs),
(195,87,o),
(152,128,o),
(152,208,cs),
(152,228,o),
(155,250,o),
(160,274,cs),
(249,690,l),
(144,690,l),
(53,264,ls),
(48,241,o),
(46,219,o),
(46,198,cs),
(46,73,o),
(131,-10,o),
(276,-10,c)
);
},
{
closed = 1;
nodes = (
(344,735,l),
(465,814,l),
(480,845,l),
(375,845,l),
(237,735,l)
);
},
{
closed = 1;
nodes = (
(603,735,l),
(513,845,l),
(408,845,l),
(422,814,l),
(510,735,l)
);
}
);
};
layerId = m001;
shapes = (
{
ref = U;
},
{
pos = (87,0);
ref = circumflexcomb.case;
}
);
width = 674;
},
{
background = {
shapes = (
{
closed = 1;
nodes = (
(466,-14,o),
(583,87,o),
(621,265,cs),
(712,690,l),
(560,690,l),
(471,273,ls),
(452,184,o),
(388,131,o),
(299,131,c),
(225,131,o),
(189,163,o),
(189,226,cs),
(189,240,o),
(190,256,o),
(194,273,cs),
(283,690,l),
(129,690,l),
(38,265,ls),
(33,243,o),
(31,221,o),
(31,201,cs),
(31,74,o),
(121,-14,o),
(286,-14,c)
);
},
{
closed = 1;
nodes = (
(362,735,l),
(477,812,l),
(499,850,l),
(370,850,l),
(235,735,l)
);
},
{
closed = 1;
nodes = (
(623,735,l),
(538,850,l),
(409,850,l),
(425,812,l),
(506,735,l)
);
}
);
};
layerId = "935096DB-18C6-4F5A-A149-9E36F9702B37";
shapes = (
{
ref = U;
},
{
pos = (96,0);
ref = circumflexcomb.case;
}
);
width = 692;
}
);
unicode = 219;
},
{
color = 10;
glyphname = Udieresis;
kernLeft = U;
kernRight = U;
lastChange = "2024-03-21 14:00:11 +0000";
layers = (
{
background = {
shapes = (
{
closed = 1;
nodes = (
(438,-10,o),
(551,90,o),
(588,264,cs),
(679,690,l),
(577,690,l),
(488,274,ls),
(462,151,o),
(389,87,o),
(281,87,cs),
(195,87,o),
(152,128,o),
(152,208,cs),
(152,228,o),
(155,250,o),
(160,274,cs),
(249,690,l),
(144,690,l),
(53,264,ls),
(48,241,o),
(46,219,o),
(46,198,cs),
(46,73,o),
(131,-10,o),
(276,-10,c)
);
},
{
closed = 1;
nodes = (
(362,742,o),
(388,767,o),
(388,802,c),
(388,834,o),
(367,855,o),
(336,855,c),
(301,855,o),
(276,830,o),
(276,793,c),
(276,763,o),
(297,742,o),
(327,742,c)
);
},
{
closed = 1;
nodes = (
(565,742,o),
(591,767,o),
(591,802,c),
(591,834,o),
(570,855,o),
(539,855,c),
(504,855,o),
(479,830,o),
(479,793,c),
(479,763,o),
(500,742,o),
(530,742,c)
);
}
);
};
layerId = m001;
shapes = (
{
ref = U;
},
{
pos = (88,0);
ref = dieresiscomb.case;
}
);
width = 674;
},
{
background = {
shapes = (
{
closed = 1;
nodes = (
(466,-14,o),
(583,87,o),
(621,265,cs),
(712,690,l),
(560,690,l),
(471,273,ls),
(452,184,o),
(388,131,o),
(299,131,c),
(225,131,o),
(189,163,o),
(189,226,cs),
(189,240,o),
(190,256,o),
(194,273,cs),
(283,690,l),
(129,690,l),
(38,265,ls),
(33,243,o),
(31,221,o),
(31,201,cs),
(31,74,o),
(121,-14,o),
(286,-14,c)
);
},
{
closed = 1;
nodes = (
(372,742,o),
(404,770,o),
(404,813,c),
(404,850,o),
(380,873,o),
(339,873,c),
(297,873,o),
(265,845,o),
(265,802,c),
(265,765,o),
(288,742,o),
(330,742,c)
);
},
{
closed = 1;
nodes = (
(592,742,o),
(624,770,o),
(624,813,c),
(624,850,o),
(600,873,o),
(559,873,c),
(517,873,o),
(485,845,o),
(485,802,c),
(485,765,o),
(508,742,o),
(550,742,c)
);
}
);
};
layerId = "935096DB-18C6-4F5A-A149-9E36F9702B37";
shapes = (
{
ref = U;
},
{
pos = (96,0);
ref = dieresiscomb.case;
}
);
width = 692;
}
);
unicode = 220;
},
{
color = 10;
glyphname = Udotbelow;
kernLeft = U;
kernRight = U;
lastChange = "2024-03-21 14:00:11 +0000";
layers = (
{
background = {
shapes = (
{
closed = 1;
nodes = (
(438,-10,o),
(551,90,o),
(588,264,cs),
(679,690,l),
(577,690,l),
(488,274,ls),
(462,151,o),
(389,87,o),
(281,87,cs),
(195,87,o),
(152,128,o),
(152,208,cs),
(152,228,o),
(155,250,o),
(160,274,cs),
(249,690,l),
(144,690,l),
(53,264,ls),
(48,241,o),
(46,219,o),
(46,198,cs),
(46,73,o),
(131,-10,o),
(276,-10,c)
);
},
{
closed = 1;
nodes = (
(268,-195,o),
(296,-168,o),
(296,-130,c),
(296,-95,o),
(273,-72,o),
(239,-72,c),
(201,-72,o),
(174,-99,o),
(174,-140,c),
(174,-172,o),
(197,-195,o),
(230,-195,c)
);
}
);
};
layerId = m001;
shapes = (
{
ref = U;
},
{
pos = (88,0);
ref = dotbelow;
}
);
width = 674;
},
{
background = {
shapes = (
{
closed = 1;
nodes = (
(466,-14,o),
(583,87,o),
(621,265,cs),
(712,690,l),
(560,690,l),
(471,273,ls),
(452,184,o),
(388,131,o),
(299,131,c),
(225,131,o),
(189,163,o),
(189,226,cs),
(189,240,o),
(190,256,o),
(194,273,cs),
(283,690,l),
(129,690,l),
(38,265,ls),
(33,243,o),
(31,221,o),
(31,201,cs),
(31,74,o),
(121,-14,o),
(286,-14,c)
);
},
{
closed = 1;
nodes = (
(287,-198,o),
(323,-166,o),
(323,-117,c),
(323,-75,o),
(296,-48,o),
(252,-48,c),
(207,-48,o),
(171,-80,o),
(171,-130,c),
(171,-171,o),
(198,-198,o),
(242,-198,c)
);
}
);
};
layerId = "935096DB-18C6-4F5A-A149-9E36F9702B37";
shapes = (
{
ref = U;
},
{
pos = (96,0);
ref = dotbelow;
}
);
width = 692;
}
);
unicode = 7908;
},
{
color = 10;
glyphname = Ugrave;
kernLeft = U;
kernRight = U;
lastChange = "2024-03-21 14:00:11 +0000";
layers = (
{
background = {
shapes = (
{
closed = 1;
nodes = (
(438,-10,o),
(551,90,o),
(588,264,cs),
(679,690,l),
(577,690,l),
(488,274,ls),
(462,151,o),
(389,87,o),
(281,87,cs),
(195,87,o),
(152,128,o),
(152,208,cs),
(152,228,o),
(155,250,o),
(160,274,cs),
(249,690,l),
(144,690,l),
(53,264,ls),
(48,241,o),
(46,219,o),
(46,198,cs),
(46,73,o),
(131,-10,o),
(276,-10,c)
);
},
{
closed = 1;
nodes = (
(479,735,l),
(403,845,l),
(278,845,l),
(391,735,l)
);
}
);
};
layerId = m001;
shapes = (
{
ref = U;
},
{
pos = (87,0);
ref = gravecomb.case;
}
);
width = 674;
},
{
background = {
shapes = (
{
closed = 1;
nodes = (
(466,-14,o),
(583,87,o),
(621,265,cs),
(712,690,l),
(560,690,l),
(471,273,ls),
(452,184,o),
(388,131,o),
(299,131,c),
(225,131,o),
(189,163,o),
(189,226,cs),
(189,240,o),
(190,256,o),
(194,273,cs),
(283,690,l),
(129,690,l),
(38,265,ls),
(33,243,o),
(31,221,o),
(31,201,cs),
(31,74,o),
(121,-14,o),
(286,-14,c)
);
},
{
closed = 1;
nodes = (
(495,735,l),
(417,850,l),
(256,850,l),
(385,735,l)
);
}
);
};
layerId = "935096DB-18C6-4F5A-A149-9E36F9702B37";
shapes = (
{
ref = U;
},
{
pos = (95,0);
ref = gravecomb.case;
}
);
width = 692;
}
);
unicode = 217;
},
{
color = 10;
glyphname = Uhungarumlaut;
kernLeft = U;
kernRight = U;
lastChange = "2024-03-21 14:00:11 +0000";
layers = (
{
background = {
shapes = (
{
closed = 1;
nodes = (
(438,-10,o),
(551,90,o),
(588,264,cs),
(679,690,l),
(577,690,l),
(488,274,ls),
(462,151,o),
(389,87,o),
(281,87,cs),
(195,87,o),
(152,128,o),
(152,208,cs),
(152,228,o),
(155,250,o),
(160,274,cs),
(249,690,l),
(144,690,l),
(53,264,ls),
(48,241,o),
(46,219,o),
(46,198,cs),
(46,73,o),
(131,-10,o),
(276,-10,c)
);
},
{
closed = 1;
nodes = (
(395,735,l),
(516,845,l),
(400,845,l),
(307,735,l)
);
},
{
closed = 1;
nodes = (
(542,735,l),
(701,845,l),
(577,845,l),
(453,735,l)
);
}
);
};
layerId = m001;
shapes = (
{
ref = U;
},
{
pos = (88,0);
ref = hungarumlautcomb.case;
}
);
width = 674;
},
{
background = {
shapes = (
{
closed = 1;
nodes = (
(466,-14,o),
(583,87,o),
(621,265,cs),
(712,690,l),
(560,690,l),
(471,273,ls),
(452,184,o),
(388,131,o),
(299,131,c),
(225,131,o),
(189,163,o),
(189,226,cs),
(189,240,o),
(190,256,o),
(194,273,cs),
(283,690,l),
(129,690,l),
(38,265,ls),
(33,243,o),
(31,221,o),
(31,201,cs),
(31,74,o),
(121,-14,o),
(286,-14,c)
);
},
{
closed = 1;
nodes = (
(414,735,l),
(547,850,l),
(402,850,l),
(306,735,l)
);
},
{
closed = 1;
nodes = (
(567,735,l),
(743,850,l),
(588,850,l),
(454,735,l)
);
}
);
};
layerId = "935096DB-18C6-4F5A-A149-9E36F9702B37";
shapes = (
{
ref = U;
},
{
pos = (97,0);
ref = hungarumlautcomb.case;
}
);
width = 692;
}
);
unicode = 368;
},
{
color = 10;
glyphname = Umacron;
kernLeft = U;
kernRight = U;
lastChange = "2024-03-21 14:00:11 +0000";
layers = (
{
background = {
shapes = (
{
closed = 1;
nodes = (
(438,-10,o),
(551,90,o),
(588,264,cs),
(679,690,l),
(577,690,l),
(488,274,ls),
(462,151,o),
(389,87,o),
(281,87,cs),
(195,87,o),
(152,128,o),
(152,208,cs),
(152,228,o),
(155,250,o),
(160,274,cs),
(249,690,l),
(144,690,l),
(53,264,ls),
(48,241,o),
(46,219,o),
(46,198,cs),
(46,73,o),
(131,-10,o),
(276,-10,c)
);
},
{
closed = 1;
nodes = (
(582,753,l),
(600,837,l),
(284,837,l),
(266,753,l)
);
}
);
};
layerId = m001;
shapes = (
{
ref = U;
},
{
pos = (88,0);
ref = macroncomb.case;
}
);
width = 674;
},
{
background = {
shapes = (
{
closed = 1;
nodes = (
(466,-14,o),
(583,87,o),
(621,265,cs),
(712,690,l),
(560,690,l),
(471,273,ls),
(452,184,o),
(388,131,o),
(299,131,c),
(225,131,o),
(189,163,o),
(189,226,cs),
(189,240,o),
(190,256,o),
(194,273,cs),
(283,690,l),
(129,690,l),
(38,265,ls),
(33,243,o),
(31,221,o),
(31,201,cs),
(31,74,o),
(121,-14,o),
(286,-14,c)
);
},
{
closed = 1;
nodes = (
(594,735,l),
(619,850,l),
(289,850,l),
(264,735,l)
);
}
);
};
layerId = "935096DB-18C6-4F5A-A149-9E36F9702B37";
shapes = (
{
ref = U;
},
{
pos = (97,0);
ref = macroncomb.case;
}
);
width = 692;
}
);
unicode = 362;
},
{
color = 10;
glyphname = Uogonek;
kernLeft = U;
kernRight = U;
lastChange = "2024-03-21 14:03:46 +0000";
layers = (
{
background = {
shapes = (
{
closed = 1;
nodes = (
(262,-185,o),
(299,-176,o),
(321,-165,c),
(329,-84,l),
(304,-96,o),
(273,-106,o),
(247,-106,c),
(236,-106,o),
(230,-101,o),
(230,-93,cs),
(230,-72,o),
(278,-21,o),
(358,0,cs),
(476,31,o),
(558,121,o),
(588,264,cs),
(679,690,l),
(577,690,l),
(488,274,ls),
(462,151,o),
(389,87,o),
(281,87,cs),
(195,87,o),
(152,128,o),
(152,208,cs),
(152,228,o),
(155,250,o),
(160,274,cs),
(249,690,l),
(144,690,l),
(53,264,ls),
(48,241,o),
(46,219,o),
(46,198,cs),
(46,73,o),
(131,-10,o),
(276,-10,c),
(261,-2,l),
(171,-35,o),
(142,-74,o),
(142,-118,c),
(142,-155,o),
(168,-185,o),
(230,-185,c)
);
}
);
};
layerId = m001;
shapes = (
{
ref = U;
},
{
pos = (126,0);
ref = ogonekcomb;
}
);
width = 674;
},
{
background = {
shapes = (
{
closed = 1;
nodes = (
(273,-190,o),
(308,-183,o),
(339,-170,c),
(350,-75,l),
(328,-87,o),
(300,-96,o),
(281,-96,c),
(268,-96,o),
(261,-90,o),
(261,-80,c),
(261,-65,o),
(286,-26,o),
(377,-4,cs),
(506,27,o),
(590,119,o),
(621,265,cs),
(712,690,l),
(560,690,l),
(471,273,ls),
(452,184,o),
(388,131,o),
(299,131,c),
(225,131,o),
(189,163,o),
(189,226,cs),
(189,240,o),
(190,256,o),
(194,273,cs),
(283,690,l),
(129,690,l),
(38,265,ls),
(33,243,o),
(31,221,o),
(31,201,cs),
(31,74,o),
(121,-14,o),
(286,-14,c),
(274,-3,l),
(177,-36,o),
(146,-82,o),
(146,-121,c),
(146,-158,o),
(176,-190,o),
(245,-190,c)
);
}
);
};
layerId = "935096DB-18C6-4F5A-A149-9E36F9702B37";
shapes = (
{
ref = U;
},
{
pos = (124,0);
ref = ogonekcomb;
}
);
width = 692;
}
);
unicode = 370;
},
{
color = 10;
glyphname = Uring;
kernLeft = U;
kernRight = U;
lastChange = "2024-03-21 14:00:11 +0000";
layers = (
{
background = {
shapes = (
{
closed = 1;
nodes = (
(438,-10,o),
(551,90,o),
(588,264,cs),
(679,690,l),
(577,690,l),
(488,274,ls),
(462,151,o),
(389,87,o),
(281,87,cs),
(195,87,o),
(152,128,o),
(152,208,cs),
(152,228,o),
(155,250,o),
(160,274,cs),
(249,690,l),
(144,690,l),
(53,264,ls),
(48,241,o),
(46,219,o),
(46,198,cs),
(46,73,o),
(131,-10,o),
(276,-10,c)
);
},
{
closed = 1;
nodes = (
(492,735,o),
(536,779,o),
(536,833,c),
(536,878,o),
(501,908,o),
(450,908,c),
(385,908,o),
(341,864,o),
(341,810,c),
(341,765,o),
(376,735,o),
(427,735,c)
);
},
{
closed = 1;
nodes = (
(414,790,o),
(404,800,o),
(404,815,c),
(404,836,o),
(420,853,o),
(445,853,c),
(463,853,o),
(473,843,o),
(473,828,c),
(473,807,o),
(457,790,o),
(432,790,c)
);
}
);
};
layerId = m001;
shapes = (
{
ref = U;
},
{
pos = (88,0);
ref = ringcomb.case;
}
);
width = 674;
},
{
background = {
shapes = (
{
closed = 1;
nodes = (
(466,-14,o),
(583,87,o),
(621,265,cs),
(712,690,l),
(560,690,l),
(471,273,ls),
(452,184,o),
(388,131,o),
(299,131,c),
(225,131,o),
(189,163,o),
(189,226,cs),
(189,240,o),
(190,256,o),
(194,273,cs),
(283,690,l),
(129,690,l),
(38,265,ls),
(33,243,o),
(31,221,o),
(31,201,cs),
(31,74,o),
(121,-14,o),
(286,-14,c)
);
},
{
closed = 1;
nodes = (
(509,735,o),
(552,784,o),
(552,837,c),
(552,883,o),
(518,917,o),
(458,917,c),
(388,917,o),
(345,868,o),
(345,815,c),
(345,769,o),
(379,735,o),
(439,735,c)
);
},
{
closed = 1;
nodes = (
(428,800,o),
(418,808,o),
(418,823,c),
(418,839,o),
(431,852,o),
(451,852,c),
(469,852,o),
(479,844,o),
(479,829,c),
(479,813,o),
(466,800,o),
(446,800,c)
);
}
);
};
layerId = "935096DB-18C6-4F5A-A149-9E36F9702B37";
shapes = (
{
ref = U;
},
{
pos = (97,0);
ref = ringcomb.case;
}
);
width = 692;
}
);
unicode = 366;
},
{
color = 10;
glyphname = Utilde;
kernLeft = U;
kernRight = U;
lastChange = "2024-03-21 14:00:11 +0000";
layers = (
{
background = {
shapes = (
{
closed = 1;
nodes = (
(438,-10,o),
(551,90,o),
(588,264,cs),
(679,690,l),
(577,690,l),
(488,274,ls),
(462,151,o),
(389,87,o),
(281,87,cs),
(195,87,o),
(152,128,o),
(152,208,cs),
(152,228,o),
(155,250,o),
(160,274,cs),
(249,690,l),
(144,690,l),
(53,264,ls),
(48,241,o),
(46,219,o),
(46,198,cs),
(46,73,o),
(131,-10,o),
(276,-10,c)
);
},
{
closed = 1;
nodes = (
(330,735,l),
(332,757,o),
(345,773,o),
(368,773,c),
(404,773,o),
(431,735,o),
(488,735,c),
(551,735,o),
(590,777,o),
(602,845,c),
(534,845,l),
(532,823,o),
(519,807,o),
(496,807,c),
(461,807,o),
(433,845,o),
(376,845,c),
(313,845,o),
(274,803,o),
(262,735,c)
);
}
);
};
layerId = m001;
shapes = (
{
ref = U;
},
{
pos = (88,0);
ref = tildecomb.case;
}
);
width = 674;
},
{
background = {
shapes = (
{
closed = 1;
nodes = (
(466,-14,o),
(583,87,o),
(621,265,cs),
(712,690,l),
(560,690,l),
(471,273,ls),
(452,184,o),
(388,131,o),
(299,131,c),
(225,131,o),
(189,163,o),
(189,226,cs),
(189,240,o),
(190,256,o),
(194,273,cs),
(283,690,l),
(129,690,l),
(38,265,ls),
(33,243,o),
(31,221,o),
(31,201,cs),
(31,74,o),
(121,-14,o),
(286,-14,c)
);
},
{
closed = 1;
nodes = (
(346,735,l),
(347,761,o),
(363,772,o),
(380,772,c),
(413,772,o),
(435,735,o),
(500,735,c),
(563,735,o),
(610,781,o),
(622,854,c),
(538,854,l),
(537,828,o),
(521,817,o),
(504,817,c),
(473,817,o),
(449,854,o),
(384,854,c),
(320,854,o),
(273,808,o),
(262,735,c)
);
}
);
};
layerId = "935096DB-18C6-4F5A-A149-9E36F9702B37";
shapes = (
{
ref = U;
},
{
pos = (96,0);
ref = tildecomb.case;
}
);
width = 692;
}
);
unicode = 360;
},
{
color = 6;
glyphname = V;
kernLeft = V;
kernRight = V;
lastChange = "2024-03-21 14:00:11 +0000";
layers = (
{
background = {
shapes = (
{
closed = 1;
nodes = (
(335,0,l),
(720,690,l),
(605,690,l),
(233,0,l)
);
},
{
closed = 1;
nodes = (
(279,0,l),
(195,690,l),
(90,690,l),
(181,0,l)
);
}
);
};
layerId = m001;
shapes = (
{
closed = 1;
nodes = (
(335,0,l),
(720,690,l),
(605,690,l),
(233,0,l)
);
},
{
closed = 1;
nodes = (
(279,0,l),
(195,690,l),
(90,690,l),
(181,0,l)
);
}
);
width = 660;
},
{
background = {
shapes = (
{
closed = 1;
nodes = (
(384,0,l),
(750,690,l),
(574,690,l),
(227,0,l)
);
},
{
closed = 1;
nodes = (
(297,0,l),
(234,690,l),
(75,690,l),
(147,0,l)
);
}
);
};
layerId = "935096DB-18C6-4F5A-A149-9E36F9702B37";
shapes = (
{
closed = 1;
nodes = (
(384,0,l),
(750,690,l),
(574,690,l),
(227,0,l)
);
},
{
closed = 1;
nodes = (
(297,0,l),
(234,690,l),
(75,690,l),
(147,0,l)
);
}
);
width = 675;
}
);
unicode = 86;
},
{
color = 6;
glyphname = W;
kernLeft = W;
kernRight = W;
lastChange = "2024-03-21 14:00:11 +0000";
layers = (
{
anchors = (
{
name = bottom;
pos = (405,0);
},
{
name = top;
pos = (551,690);
}
);
background = {
anchors = (
{
name = bottom;
pos = (405,0);
},
{
name = top;
pos = (551,690);
}
);
shapes = (
{
closed = 1;
nodes = (
(679,0,l),
(978,690,l),
(870,690,l),
(579,0,l)
);
},
{
closed = 1;
nodes = (
(195,0,l),
(197,690,l),
(93,690,l),
(98,0,l)
);
},
{
closed = 1;
nodes = (
(259,0,l),
(555,690,l),
(456,690,l),
(159,0,l)
);
},
{
closed = 1;
nodes = (
(615,0,l),
(611,690,l),
(517,690,l),
(520,0,l)
);
}
);
};
layerId = m001;
shapes = (
{
closed = 1;
nodes = (
(259,0,l),
(517,602,l),
(520,0,l),
(679,0,l),
(978,690,l),
(870,690,l),
(615,84,l),
(611,690,l),
(456,690,l),
(195,84,l),
(197,690,l),
(93,690,l),
(98,0,l)
);
}
);
width = 921;
},
{
anchors = (
{
name = bottom;
pos = (437,0);
},
{
name = top;
pos = (583,690);
}
);
background = {
anchors = (
{
name = bottom;
pos = (437,0);
},
{
name = top;
pos = (583,690);
}
);
shapes = (
{
closed = 1;
nodes = (
(770,0,l),
(1057,690,l),
(893,690,l),
(620,0,l)
);
},
{
closed = 1;
nodes = (
(218,0,l),
(235,690,l),
(79,690,l),
(72,0,l)
);
},
{
closed = 1;
nodes = (
(323,0,l),
(592,690,l),
(446,690,l),
(175,0,l)
);
},
{
closed = 1;
nodes = (
(663,0,l),
(682,690,l),
(544,690,l),
(519,0,l)
);
}
);
};
layerId = "935096DB-18C6-4F5A-A149-9E36F9702B37";
shapes = (
{
closed = 1;
nodes = (
(323,0,l),
(539,554,l),
(519,0,l),
(770,0,l),
(1057,690,l),
(893,690,l),
(666,117,l),
(682,690,l),
(446,690,l),
(221,117,l),
(235,690,l),
(79,690,l),
(72,0,l)
);
}
);
width = 986;
}
);
unicode = 87;
},
{
color = 10;
glyphname = Wacute;
kernLeft = W;
kernRight = W;
lastChange = "2024-03-21 14:21:18 +0000";
layers = (
{
background = {
shapes = (
{
closed = 1;
nodes = (
(679,0,l),
(978,690,l),
(870,690,l),
(579,0,l)
);
},
{
closed = 1;
nodes = (
(195,0,l),
(197,690,l),
(93,690,l),
(98,0,l)
);
},
{
closed = 1;
nodes = (
(259,0,l),
(555,690,l),
(456,690,l),
(159,0,l)
);
},
{
closed = 1;
nodes = (
(615,0,l),
(611,690,l),
(517,690,l),
(520,0,l)
);
},
{
closed = 1;
nodes = (
(582,735,l),
(740,845,l),
(605,845,l),
(481,735,l)
);
}
);
};
layerId = m001;
shapes = (
{
ref = W;
},
{
pos = (228,0);
ref = acutecomb.case;
}
);
width = 921;
},
{
background = {
shapes = (
{
closed = 1;
nodes = (
(770,0,l),
(1057,690,l),
(893,690,l),
(620,0,l)
);
},
{
closed = 1;
nodes = (
(218,0,l),
(235,690,l),
(79,690,l),
(72,0,l)
);
},
{
closed = 1;
nodes = (
(323,0,l),
(592,690,l),
(446,690,l),
(175,0,l)
);
},
{
closed = 1;
nodes = (
(663,0,l),
(682,690,l),
(544,690,l),
(519,0,l)
);
},
{
closed = 1;
nodes = (
(627,735,l),
(803,850,l),
(630,850,l),
(502,735,l)
);
}
);
};
layerId = "935096DB-18C6-4F5A-A149-9E36F9702B37";
shapes = (
{
ref = W;
},
{
pos = (261,0);
ref = acutecomb.case;
}
);
width = 986;
}
);
unicode = 7810;
},
{
color = 10;
glyphname = Wcircumflex;
kernLeft = W;
kernRight = W;
lastChange = "2024-03-21 14:00:11 +0000";
layers = (
{
background = {
shapes = (
{
closed = 1;
nodes = (
(679,0,l),
(978,690,l),
(870,690,l),
(579,0,l)
);
},
{
closed = 1;
nodes = (
(195,0,l),
(197,690,l),
(93,690,l),
(98,0,l)
);
},
{
closed = 1;
nodes = (
(259,0,l),
(555,690,l),
(456,690,l),
(159,0,l)
);
},
{
closed = 1;
nodes = (
(615,0,l),
(611,690,l),
(517,690,l),
(520,0,l)
);
},
{
closed = 1;
nodes = (
(470,735,l),
(591,814,l),
(606,845,l),
(501,845,l),
(363,735,l)
);
},
{
closed = 1;
nodes = (
(729,735,l),
(639,845,l),
(534,845,l),
(548,814,l),
(636,735,l)
);
}
);
};
layerId = m001;
shapes = (
{
ref = W;
},
{
pos = (227,0);
ref = circumflexcomb.case;
}
);
width = 921;
},
{
background = {
shapes = (
{
closed = 1;
nodes = (
(770,0,l),
(1057,690,l),
(893,690,l),
(620,0,l)
);
},
{
closed = 1;
nodes = (
(218,0,l),
(235,690,l),
(79,690,l),
(72,0,l)
);
},
{
closed = 1;
nodes = (
(323,0,l),
(592,690,l),
(446,690,l),
(175,0,l)
);
},
{
closed = 1;
nodes = (
(663,0,l),
(682,690,l),
(544,690,l),
(519,0,l)
);
},
{
closed = 1;
nodes = (
(508,735,l),
(623,812,l),
(645,850,l),
(516,850,l),
(381,735,l)
);
},
{
closed = 1;
nodes = (
(769,735,l),
(684,850,l),
(555,850,l),
(571,812,l),
(652,735,l)
);
}
);
};
layerId = "935096DB-18C6-4F5A-A149-9E36F9702B37";
shapes = (
{
ref = W;
},
{
pos = (259,0);
ref = circumflexcomb.case;
}
);
width = 986;
}
);
unicode = 372;
},
{
color = 10;
glyphname = Wdieresis;
kernLeft = W;
kernRight = W;
lastChange = "2024-03-21 14:00:11 +0000";
layers = (
{
background = {
shapes = (
{
closed = 1;
nodes = (
(679,0,l),
(978,690,l),
(870,690,l),
(579,0,l)
);
},
{
closed = 1;
nodes = (
(195,0,l),
(197,690,l),
(93,690,l),
(98,0,l)
);
},
{
closed = 1;
nodes = (
(259,0,l),
(555,690,l),
(456,690,l),
(159,0,l)
);
},
{
closed = 1;
nodes = (
(615,0,l),
(611,690,l),
(517,690,l),
(520,0,l)
);
},
{
closed = 1;
nodes = (
(488,742,o),
(514,767,o),
(514,802,c),
(514,834,o),
(493,855,o),
(462,855,c),
(427,855,o),
(402,830,o),
(402,793,c),
(402,763,o),
(423,742,o),
(453,742,c)
);
},
{
closed = 1;
nodes = (
(691,742,o),
(717,767,o),
(717,802,c),
(717,834,o),
(696,855,o),
(665,855,c),
(630,855,o),
(605,830,o),
(605,793,c),
(605,763,o),
(626,742,o),
(656,742,c)
);
}
);
};
layerId = m001;
shapes = (
{
ref = W;
},
{
pos = (228,0);
ref = dieresiscomb.case;
}
);
width = 921;
},
{
background = {
shapes = (
{
closed = 1;
nodes = (
(770,0,l),
(1057,690,l),
(893,690,l),
(620,0,l)
);
},
{
closed = 1;
nodes = (
(218,0,l),
(235,690,l),
(79,690,l),
(72,0,l)
);
},
{
closed = 1;
nodes = (
(323,0,l),
(592,690,l),
(446,690,l),
(175,0,l)
);
},
{
closed = 1;
nodes = (
(663,0,l),
(682,690,l),
(544,690,l),
(519,0,l)
);
},
{
closed = 1;
nodes = (
(518,742,o),
(550,770,o),
(550,813,c),
(550,850,o),
(526,873,o),
(485,873,c),
(443,873,o),
(411,845,o),
(411,802,c),
(411,765,o),
(434,742,o),
(476,742,c)
);
},
{
closed = 1;
nodes = (
(738,742,o),
(770,770,o),
(770,813,c),
(770,850,o),
(746,873,o),
(705,873,c),
(663,873,o),
(631,845,o),
(631,802,c),
(631,765,o),
(654,742,o),
(696,742,c)
);
}
);
};
layerId = "935096DB-18C6-4F5A-A149-9E36F9702B37";
shapes = (
{
ref = W;
},
{
pos = (259,0);
ref = dieresiscomb.case;
}
);
width = 986;
}
);
unicode = 7812;
},
{
color = 10;
glyphname = Wgrave;
kernLeft = W;
kernRight = W;
lastChange = "2024-03-21 14:00:11 +0000";
layers = (
{
background = {
shapes = (
{
closed = 1;
nodes = (
(679,0,l),
(978,690,l),
(870,690,l),
(579,0,l)
);
},
{
closed = 1;
nodes = (
(195,0,l),
(197,690,l),
(93,690,l),
(98,0,l)
);
},
{
closed = 1;
nodes = (
(259,0,l),
(555,690,l),
(456,690,l),
(159,0,l)
);
},
{
closed = 1;
nodes = (
(615,0,l),
(611,690,l),
(517,690,l),
(520,0,l)
);
},
{
closed = 1;
nodes = (
(605,735,l),
(529,845,l),
(404,845,l),
(517,735,l)
);
}
);
};
layerId = m001;
shapes = (
{
ref = W;
},
{
pos = (227,0);
ref = gravecomb.case;
}
);
width = 921;
},
{
background = {
shapes = (
{
closed = 1;
nodes = (
(770,0,l),
(1057,690,l),
(893,690,l),
(620,0,l)
);
},
{
closed = 1;
nodes = (
(218,0,l),
(235,690,l),
(79,690,l),
(72,0,l)
);
},
{
closed = 1;
nodes = (
(323,0,l),
(592,690,l),
(446,690,l),
(175,0,l)
);
},
{
closed = 1;
nodes = (
(663,0,l),
(682,690,l),
(544,690,l),
(519,0,l)
);
},
{
closed = 1;
nodes = (
(641,735,l),
(563,850,l),
(402,850,l),
(531,735,l)
);
}
);
};
layerId = "935096DB-18C6-4F5A-A149-9E36F9702B37";
shapes = (
{
ref = W;
},
{
pos = (258,0);
ref = gravecomb.case;
}
);
width = 986;
}
);
unicode = 7808;
},
